<svg width="111" height="94" viewBox="0 0 111 94" fill="none" xmlns="http://www.w3.org/2000/svg">
<path d="M49.6947 16.553L105.794 51.5725C105.794 51.5725 107.236 52.2381 106.535 53.318C105.835 54.3979 104.491 53.4353 104.491 53.4353L100.146 50.5766C100.146 50.5766 99.4355 50.2139 98.9168 51.004C98.398 51.7941 97.4356 52.8757 97.4356 52.8757C97.4356 52.8757 89.0938 52.1136 87.3889 51.9928C85.6839 51.8719 82.4181 50.7155 80.3457 49.5175C76.5289 47.3112 75.603 46.1362 72.4913 47.2573C69.3795 48.3782 68.9927 49.2987 68.4226 50.2467C67.8525 51.1944 66.1668 53.828 65.6738 54.5395C65.1808 55.251 64.1892 55.8863 62.0377 55.6635C59.8863 55.4407 53.6435 54.9281 52.6473 54.9079C51.651 54.8878 50.9387 54.2628 51.056 52.2945C51.1733 50.3262 53.4953 26.3086 53.5923 25.2062C53.6893 24.1038 53.1346 23.5299 51.089 23.3852C49.8039 23.3143 48.9415 23.6868 48.9415 23.6868C48.9415 23.6868 42.8199 25.4819 42.1129 25.6436C41.406 25.8054 41.044 26.516 40.9479 27.7495C40.8519 28.983 39.9536 39.2457 39.9536 39.2457C39.9536 39.2457 38.8465 42.1119 38.666 42.5328C38.4855 42.9536 37.9384 43.429 36.8612 43.1209C35.7841 42.8128 32.3451 42.1255 31.7667 41.8928C31.1883 41.6601 30.8462 41.5051 31.0918 39.1425C31.3375 36.7799 31.696 35.5448 30.8032 35.3403C29.9104 35.1359 26.1072 34.897 25.5564 34.8478C25.0056 34.7987 24.6399 34.9846 23.7545 35.8294C22.8691 36.6743 20.0304 39.3675 19.6923 39.7369C19.3542 40.1063 19.1515 41.1306 19.0507 41.7083C18.9498 42.286 17.7724 53.8095 17.6266 55.4631C17.4808 57.1168 15.4646 57.4177 14.5909 56.2162C13.7172 55.0147 14.137 55.0647 13.5843 54.7533C13.0317 54.442 11.6888 53.6107 10.8502 53.6421C10.0115 53.6734 9.4342 53.5722 8.32967 53.0805C7.22513 52.5887 6.3838 52.2265 5.88407 52.0199C5.38433 51.8132 5.69423 51.1293 6.08291 50.471C6.47158 49.8128 12.4306 39.8078 21.503 32.5642C30.5753 25.3206 38.3087 21.522 40.7423 20.8776C43.176 20.2331 45.3782 20.2983 46.5582 20.2911C47.7381 20.2838 47.5226 19.472 47.6499 18.9464C47.7772 18.4208 47.8752 17.4497 47.9744 16.6097C48.0736 15.7698 48.9488 16.1706 49.6947 16.553Z" stroke="#0EDD9E" stroke-width="0.9" stroke-linecap="round" stroke-linejoin="round"/>
<g filter="url(#filter0_f_2_2273)">
<path d="M49.6947 16.553L105.794 51.5725C105.794 51.5725 107.236 52.2381 106.535 53.318C105.835 54.3979 104.491 53.4353 104.491 53.4353L100.146 50.5766C100.146 50.5766 99.4355 50.2139 98.9168 51.004C98.398 51.7941 97.4356 52.8757 97.4356 52.8757C97.4356 52.8757 89.0938 52.1136 87.3889 51.9928C85.6839 51.8719 82.4181 50.7155 80.3457 49.5175C76.5289 47.3112 75.603 46.1362 72.4913 47.2573C69.3795 48.3782 68.9927 49.2987 68.4226 50.2467C67.8525 51.1944 66.1668 53.828 65.6738 54.5395C65.1808 55.251 64.1892 55.8863 62.0377 55.6635C59.8863 55.4407 53.6435 54.9281 52.6473 54.9079C51.651 54.8878 50.9387 54.2628 51.056 52.2945C51.1733 50.3262 53.4953 26.3086 53.5923 25.2062C53.6893 24.1038 53.1346 23.5299 51.089 23.3852C49.8039 23.3143 48.9415 23.6868 48.9415 23.6868C48.9415 23.6868 42.8199 25.4819 42.1129 25.6436C41.406 25.8054 41.044 26.516 40.9479 27.7495C40.8519 28.983 39.9536 39.2457 39.9536 39.2457C39.9536 39.2457 38.8465 42.1119 38.666 42.5328C38.4855 42.9536 37.9384 43.429 36.8612 43.1209C35.7841 42.8128 32.3451 42.1255 31.7667 41.8928C31.1883 41.6601 30.8462 41.5051 31.0918 39.1425C31.3375 36.7799 31.696 35.5448 30.8032 35.3403C29.9104 35.1359 26.1072 34.897 25.5564 34.8478C25.0056 34.7987 24.6399 34.9846 23.7545 35.8294C22.8691 36.6743 20.0304 39.3675 19.6923 39.7369C19.3542 40.1063 19.1515 41.1306 19.0507 41.7083C18.9498 42.286 17.7724 53.8095 17.6266 55.4631C17.4808 57.1168 15.4646 57.4177 14.5909 56.2162C13.7172 55.0147 14.137 55.0647 13.5843 54.7533C13.0317 54.442 11.6888 53.6107 10.8502 53.6421C10.0115 53.6734 9.4342 53.5722 8.32967 53.0805C7.22513 52.5887 6.3838 52.2265 5.88407 52.0199C5.38433 51.8132 5.69423 51.1293 6.08291 50.471C6.47158 49.8128 12.4306 39.8078 21.503 32.5642C30.5753 25.3206 38.3087 21.522 40.7423 20.8776C43.176 20.2331 45.3782 20.2983 46.5582 20.2911C47.7381 20.2838 47.5226 19.472 47.6499 18.9464C47.7772 18.4208 47.8752 17.4497 47.9744 16.6097C48.0736 15.7698 48.9488 16.1706 49.6947 16.553Z" stroke="#0EDD9E" stroke-width="0.914826" stroke-miterlimit="10"/>
</g>
<defs>
<filter id="filter0_f_2_2273" x="1.46674" y="11.9563" width="109.419" height="49.1484" filterUnits="userSpaceOnUse" color-interpolation-filters="sRGB">
<feFlood flood-opacity="0" result="BackgroundImageFix"/>
<feBlend mode="normal" in="SourceGraphic" in2="BackgroundImageFix" result="shape"/>
<feGaussianBlur stdDeviation="1.85034" result="effect1_foregroundBlur_2_2273"/>
</filter>
</defs>
</svg>
