<svg width="76" height="83" viewBox="0 0 76 83" fill="none" xmlns="http://www.w3.org/2000/svg">
<path d="M35.2031 35.5505L45.9746 27.4906L52.5965 21.8452C55.1464 19.356 57.9922 17.0408 60.5421 14.523C62.2284 12.8082 63.9694 11.1163 65.6266 9.42999C66.6003 8.72814 69.1219 4.79525 70.2622 5.00834C71.4268 5.33285 70.9533 6.26568 70.5868 8.19254C70.2202 10.1194 68.1049 23.5664 67.8295 23.9372C67.3627 24.5244 60.7252 30.499 60.2442 30.612C59.7632 30.7249 58.6302 29.6235 57.1555 29.6815C55.6809 29.7395 54.6061 31.1358 54.4479 33.3204C54.0769 35.3842 53.637 36.8037 52.5595 37.6281C52.2841 37.8522 51.4039 37.878 51.4039 37.878L47.4054 38.0191C45.6912 37.9727 45.0319 38.5726 44.0548 39.6308C42.9756 40.8313 42.691 42.2938 42.8067 43.6049C42.9224 44.9159 43.2441 45.5161 43.4888 46.1601C43.7386 46.8181 43.8474 47.5037 43.7724 48.0943C43.6988 48.6736 42.9939 49.6765 42.1894 50.6619C41.7099 51.249 41.6212 51.4978 41.3754 52.1525C41.0621 52.9867 41.7532 54.6104 41.6233 55.7208C41.354 58.0216 40.3073 58.8841 38.722 61.6491C37.5632 63.67 37.0082 65.3428 36.8529 66.4271C36.7856 66.8976 36.6073 69.1095 38.1219 70.7396C38.825 71.4962 39.3319 72.1134 41.4322 73.9044C42.8574 75.1198 44.7988 76.5208 44.5209 77.3326C44.1796 78.3296 43.1106 77.9799 41.1318 77.7372C39.5804 77.547 23.7923 74.9905 13.2455 73.3042C7.70988 72.4191 5.31068 72.2733 5.01686 71.5369C4.72304 70.8005 8.33984 66.9153 10.3929 64.0923C11.7563 62.2176 12.7776 60.487 13.3443 60.3385C14.4501 60.0487 15.6706 60.7764 17.9242 61.557C18.7219 61.8461 20.3061 62.4711 22.3043 63.3075C25.1612 64.3964 27.7604 64.3872 29.9724 62.5947C30.4815 62.1574 30.9115 61.6177 31.2877 61.1794C31.6787 60.724 32.5675 59.9771 32.5822 58.5997C32.5969 57.226 32.389 55.3395 31.7412 54.7035C31.2038 54.1759 22.9903 49.5098 22.7645 49.0017C22.4729 48.3455 23.8711 47.9481 24.5816 47.6269C25.1249 47.3813 26.0926 47.5286 26.7227 47.7255C27.3212 47.9126 28.2426 48.1834 28.5761 48.3573C29.0762 48.618 30.0175 49.4517 30.4003 49.8615C30.619 50.0957 30.8742 50.1878 31.3295 50.1801C32.0131 50.1686 32.6906 49.7745 33.5855 49.334C34.4202 48.8441 35.4326 48.4927 34.9744 47.5069C34.7794 46.999 33.2621 46.1495 31.3772 45.2316C29.5511 44.3423 29.2825 44.4172 28.0979 43.951C27.5753 43.7453 25.5184 43.2573 25.4079 42.7872C25.2973 42.3171 30.8052 38.7959 35.2031 35.5505Z" stroke="#0EDD9E" stroke-width="0.9" stroke-linejoin="round"/>
<g filter="url(#filter0_f_1_1973)">
<path d="M35.2031 35.5505L45.9746 27.4906L52.5965 21.8452C55.1464 19.356 57.9922 17.0408 60.5421 14.523C62.2284 12.8082 63.9694 11.1163 65.6266 9.42999C66.6003 8.72814 69.1219 4.79525 70.2622 5.00834C71.4268 5.33285 70.9533 6.26568 70.5868 8.19254C70.2202 10.1194 68.1049 23.5664 67.8295 23.9372C67.3627 24.5244 60.7252 30.499 60.2442 30.612C59.7632 30.7249 58.6302 29.6235 57.1555 29.6815C55.6809 29.7395 54.6061 31.1358 54.4479 33.3204C54.0769 35.3842 53.637 36.8037 52.5595 37.6281C52.2841 37.8522 51.4039 37.878 51.4039 37.878L47.4054 38.0191C45.6912 37.9727 45.0319 38.5726 44.0548 39.6308C42.9756 40.8313 42.691 42.2938 42.8067 43.6049C42.9224 44.9159 43.2441 45.5161 43.4888 46.1601C43.7386 46.8181 43.8474 47.5037 43.7724 48.0943C43.6988 48.6736 42.9939 49.6765 42.1894 50.6619C41.7099 51.249 41.6212 51.4978 41.3754 52.1525C41.0621 52.9867 41.7532 54.6104 41.6233 55.7208C41.354 58.0216 40.3073 58.8841 38.722 61.6491C37.5632 63.67 37.0082 65.3428 36.8529 66.4271C36.7856 66.8976 36.6073 69.1095 38.1219 70.7396C38.825 71.4962 39.3319 72.1134 41.4322 73.9044C42.8574 75.1198 44.7988 76.5208 44.5209 77.3326C44.1796 78.3296 43.1106 77.9799 41.1318 77.7372C39.5804 77.547 23.7923 74.9905 13.2455 73.3042C7.70988 72.4191 5.31068 72.2733 5.01686 71.5369C4.72304 70.8005 8.33984 66.9153 10.3929 64.0923C11.7563 62.2176 12.7776 60.487 13.3443 60.3385C14.4501 60.0487 15.6706 60.7764 17.9242 61.557C18.7219 61.8461 20.3061 62.4711 22.3043 63.3075C25.1612 64.3964 27.7604 64.3872 29.9724 62.5947C30.4815 62.1574 30.9115 61.6177 31.2877 61.1794C31.6787 60.724 32.5675 59.9771 32.5822 58.5997C32.5969 57.226 32.389 55.3395 31.7412 54.7035C31.2038 54.1759 22.9903 49.5098 22.7645 49.0017C22.4729 48.3455 23.8711 47.9481 24.5816 47.6269C25.1249 47.3813 26.0926 47.5286 26.7227 47.7255C27.3212 47.9126 28.2426 48.1834 28.5761 48.3573C29.0762 48.618 30.0175 49.4517 30.4003 49.8615C30.619 50.0957 30.8742 50.1878 31.3295 50.1801C32.0131 50.1686 32.6906 49.7745 33.5855 49.334C34.4202 48.8441 35.4326 48.4927 34.9744 47.5069C34.7794 46.999 33.2621 46.1495 31.3772 45.2316C29.5511 44.3423 29.2825 44.4172 28.0979 43.951C27.5753 43.7453 25.5184 43.2573 25.4079 42.7872C25.2973 42.3171 30.8052 38.7959 35.2031 35.5505Z" stroke="#0EDD9E" stroke-width="0.914826" stroke-miterlimit="10"/>
</g>
<defs>
<filter id="filter0_f_1_1973" x="0.841924" y="0.841848" width="74.3162" height="81.3162" filterUnits="userSpaceOnUse" color-interpolation-filters="sRGB">
<feFlood flood-opacity="0" result="BackgroundImageFix"/>
<feBlend mode="normal" in="SourceGraphic" in2="BackgroundImageFix" result="shape"/>
<feGaussianBlur stdDeviation="1.85034" result="effect1_foregroundBlur_1_1973"/>
</filter>
</defs>
</svg>
