<svg width="92" height="81" viewBox="0 0 92 81" fill="none" xmlns="http://www.w3.org/2000/svg">
<g filter="url(#filter0_f_1_656)">
<path fill-rule="evenodd" clip-rule="evenodd" d="M86.9416 17.841L81.1015 46.1124L77.1303 64.9012L76.6038 67.1356C76.6038 67.1356 74.5095 67.2328 73.5094 67.1982C73.5094 67.1982 70.3611 67.3638 64.8763 68.6003L58.15 69.7309L28.3071 70.0843L7.13662 75.8386C7.13662 75.8386 4.39749 76.8399 5.12199 73.8538L10.2903 62.4451L15.5757 55.3007L23.3431 44.64L29.592 34.4505L35.8176 23.7366C35.8176 23.7366 37.7615 21.2155 39.9289 23.7898C39.9289 23.7898 44.8346 30.2687 42.1481 38.0433C42.1481 38.0433 41.9145 40.1637 36.5417 47.3493C36.5417 47.3493 32.0105 52.0184 31.9864 55.2887C31.9864 55.2887 31.6707 59.7177 35.8172 61.4846C35.8172 61.4846 36.8136 61.8677 38.2737 61.8677L50.693 61.3553C50.693 61.3553 55.8254 59.9541 55.1421 54.334L52.2564 46.4572C52.2564 46.4572 51.6503 43.025 53.0519 39.55L65.6837 13.5414L68.7087 7.28657C68.7087 7.28657 69.951 4.85524 72.6419 5.0068L84.7808 7.41589C84.7808 7.41589 87 7.65149 87 10.1841L86.9416 17.841Z" stroke="#0EDD9E" stroke-width="0.914826" stroke-miterlimit="10"/>
</g>
<path fill-rule="evenodd" clip-rule="evenodd" d="M86.9416 17.841L81.1015 46.1124L77.1303 64.9012L76.6038 67.1356C76.6038 67.1356 74.5095 67.2328 73.5094 67.1982C73.5094 67.1982 70.3611 67.3638 64.8763 68.6003L58.15 69.7309L28.3071 70.0843L7.13662 75.8386C7.13662 75.8386 4.39749 76.8399 5.12199 73.8538L10.2903 62.4451L15.5757 55.3007L23.3431 44.64L29.592 34.4505L35.8176 23.7366C35.8176 23.7366 37.7615 21.2155 39.9289 23.7898C39.9289 23.7898 44.8346 30.2687 42.1481 38.0433C42.1481 38.0433 41.9145 40.1637 36.5417 47.3493C36.5417 47.3493 32.0105 52.0184 31.9864 55.2887C31.9864 55.2887 31.6707 59.7177 35.8172 61.4846C35.8172 61.4846 36.8136 61.8677 38.2737 61.8677L50.693 61.3553C50.693 61.3553 55.8254 59.9541 55.1421 54.334L52.2564 46.4572C52.2564 46.4572 51.6503 43.025 53.0519 39.55L65.6837 13.5414L68.7087 7.28657C68.7087 7.28657 69.951 4.85524 72.6419 5.0068L84.7808 7.41589C84.7808 7.41589 87 7.65149 87 10.1841L86.9416 17.841Z" stroke="#0EDD9E" stroke-width="0.914826" stroke-miterlimit="10"/>
<defs>
<filter id="filter0_f_1_656" x="0.841924" y="0.841886" width="90.3162" height="79.3162" filterUnits="userSpaceOnUse" color-interpolation-filters="sRGB">
<feFlood flood-opacity="0" result="BackgroundImageFix"/>
<feBlend mode="normal" in="SourceGraphic" in2="BackgroundImageFix" result="shape"/>
<feGaussianBlur stdDeviation="1.85034" result="effect1_foregroundBlur_1_656"/>
</filter>
</defs>
</svg>
