<svg width="156" height="82" viewBox="0 0 156 82" fill="none" xmlns="http://www.w3.org/2000/svg">
<path d="M123.555 56.6908L86.9691 58.4517L67.9498 59.1412L64.7892 56.2619C64.38 55.9125 63.7874 55.6404 63.0904 55.4818C62.3935 55.3233 61.6255 55.286 60.8891 55.3749C60.8891 55.3749 49.0837 56.4327 39.5647 56.2712C39.5647 56.2712 30.7349 55.644 23.1913 54.5249C23.1913 54.5249 19.3926 54.7293 21.9568 52.6723L24.6581 50.1711C24.6581 50.1711 26.0256 49.1106 21.7205 47.7963L14.4268 44.5649C14.4268 44.5649 12.7751 44.0372 13.464 41.8355L14.7013 36.1495C14.7013 36.1495 15.5615 34.1803 16.724 32.8598C16.724 32.8598 18.7801 31.2477 18.2495 29.5235C18.2495 29.5235 17.223 27.8082 20.2753 27.5793C20.2753 27.5793 25.112 27.941 27.1067 26.3293C27.1067 26.3293 32.8869 23.331 34.8142 22.9643C34.8142 22.9643 36.5099 22.2175 40.7073 23.152C40.7073 23.152 47.1364 24.5742 55.4454 27.2962L59.8594 28.8261C59.8594 28.8261 60.6347 28.8237 59.697 30.0726C59.697 30.0726 58.0055 31.8911 59.4461 32.8374C59.4461 32.8374 65.8502 38.3153 70.6446 39.9672C70.6446 39.9672 76.9006 43.014 83.3346 42.8639L97.7233 41.6665C97.7233 41.6665 100.446 41.336 102.51 39.7311C102.51 39.7311 104.526 37.4361 108.824 37.1818L126.355 35.7678C126.355 35.7678 129.535 36.1583 131.574 36.7485L148.185 40.7511C148.185 40.7511 150.902 41.2525 149.606 42.9476L145.245 50.0323C145.245 50.0323 144.24 52.0053 139.821 51.4298L128.412 50.3969C127.092 50.5441 125.806 50.1952 126.374 51.9554C126.364 51.9547 129.418 56.783 123.555 56.6908Z" stroke="#0EDD9E" stroke-width="1.19864" stroke-miterlimit="10"/>
<g filter="url(#filter0_f_2_2277)">
<path d="M123.555 56.6908L86.9691 58.4517L67.9498 59.1412L64.7892 56.2619C64.38 55.9125 63.7874 55.6404 63.0904 55.4818C62.3935 55.3233 61.6255 55.286 60.8891 55.3749C60.8891 55.3749 49.0837 56.4327 39.5647 56.2712C39.5647 56.2712 30.7349 55.644 23.1913 54.5249C23.1913 54.5249 19.3926 54.7293 21.9568 52.6723L24.6581 50.1711C24.6581 50.1711 26.0256 49.1106 21.7205 47.7963L14.4268 44.5649C14.4268 44.5649 12.7751 44.0372 13.464 41.8355L14.7013 36.1495C14.7013 36.1495 15.5615 34.1803 16.724 32.8598C16.724 32.8598 18.7801 31.2477 18.2495 29.5235C18.2495 29.5235 17.223 27.8082 20.2753 27.5793C20.2753 27.5793 25.112 27.941 27.1067 26.3293C27.1067 26.3293 32.8869 23.331 34.8142 22.9643C34.8142 22.9643 36.5099 22.2175 40.7073 23.152C40.7073 23.152 47.1364 24.5742 55.4454 27.2962L59.8594 28.8261C59.8594 28.8261 60.6347 28.8237 59.697 30.0726C59.697 30.0726 58.0055 31.8911 59.4461 32.8374C59.4461 32.8374 65.8502 38.3153 70.6446 39.9672C70.6446 39.9672 76.9006 43.014 83.3346 42.8639L97.7233 41.6665C97.7233 41.6665 100.446 41.336 102.51 39.7311C102.51 39.7311 104.526 37.4361 108.824 37.1818L126.355 35.7678C126.355 35.7678 129.535 36.1583 131.574 36.7485L148.185 40.7511C148.185 40.7511 150.902 41.2525 149.606 42.9476L145.245 50.0323C145.245 50.0323 144.24 52.0053 139.821 51.4298L128.412 50.3969C127.092 50.5441 125.806 50.1952 126.374 51.9554C126.364 51.9547 129.418 56.783 123.555 56.6908Z" stroke="#0EDD9E" stroke-width="1.19864" stroke-miterlimit="10"/>
</g>
<defs>
<filter id="filter0_f_2_2277" x="7.73046" y="17.3806" width="147.792" height="47.0778" filterUnits="userSpaceOnUse" color-interpolation-filters="sRGB">
<feFlood flood-opacity="0" result="BackgroundImageFix"/>
<feBlend mode="normal" in="SourceGraphic" in2="BackgroundImageFix" result="shape"/>
<feGaussianBlur stdDeviation="2.42438" result="effect1_foregroundBlur_2_2277"/>
</filter>
</defs>
</svg>
