<svg width="175" height="157" viewBox="0 0 175 157" fill="none" xmlns="http://www.w3.org/2000/svg">
<path d="M131.658 62.2449L127.467 63.6844L114.294 68.285L109.397 70.0429L99.8237 73.7149L89.742 77.4311L89.4963 77.5217C89.3689 77.5673 89.2486 77.6144 89.1243 77.6589C86.5118 78.5955 83.8191 79.317 81.2586 80.3948C80.7967 80.5979 80.3453 80.8232 79.9067 81.0697C79.8412 81.1066 79.775 81.1478 79.7093 81.1862C79.6435 81.2247 79.4831 81.3187 79.4831 81.3187L77.0032 82.7676L73.5024 85.0233L68.2704 88.4037L65.6075 90.1389L65.1968 90.4055C65.1006 90.468 64.999 90.5252 64.9087 90.5931C64.7137 90.731 64.5313 90.8829 64.3637 91.0468C64.1776 91.2437 64.0114 91.4536 63.8673 91.6738C63.7191 91.8861 63.5921 92.1077 63.4879 92.3357C63.4458 92.4493 63.4106 92.564 63.3824 92.6795C63.3604 92.7509 63.3154 92.896 63.3154 92.896L62.8484 94.3899L62.2296 96.3744C62.2296 96.3744 62.1852 96.5151 62.1632 96.5861L62.0593 96.9185C62.0105 97.0739 61.9677 97.2303 61.9136 97.3847C61.8353 97.609 61.7931 97.8447 61.6561 98.0523C61.5299 98.2474 61.3387 98.4102 61.1574 98.5708C60.8139 98.8767 60.416 99.1335 60.0466 99.4142L59.8634 99.5527L59.668 99.7005L53.2724 104.536L53.0345 104.716C52.951 104.779 52.867 104.841 52.784 104.905C52.0346 105.483 51.2169 106.001 50.5547 106.655C50.2459 106.961 50.0097 107.315 49.7565 107.655C49.7078 107.721 49.6651 107.788 49.6193 107.855L49.4934 108.038L45.0999 114.432L44.8437 114.805C44.7786 114.899 44.7213 114.999 44.6476 115.089C44.5706 115.19 44.4813 115.284 44.3817 115.368C44.2986 115.435 44.2059 115.49 44.1069 115.533C43.9847 115.587 43.8555 115.623 43.725 115.639C43.608 115.65 43.4923 115.644 43.3821 115.622C43.2042 115.587 43.0335 115.534 42.8727 115.466C42.7825 115.431 42.7013 115.382 42.615 115.341L42.2905 115.182L39.4527 113.804L34.2103 111.203L27.9242 108.227L27.6466 108.095C27.5814 108.065 27.5148 108.035 27.4497 108.002C27.3387 107.95 27.1929 107.922 27.123 107.829C27.0714 107.758 27.0802 107.658 27.0753 107.569C27.0691 107.368 27.0819 107.165 27.1136 106.962C27.1604 106.601 27.2739 106.243 27.3271 105.88C27.3733 105.567 27.3922 105.253 27.4171 104.94C27.4229 104.862 27.4263 104.785 27.4314 104.708L27.4486 104.426L27.6528 101.121L27.8615 98.2771C27.8615 98.2771 27.8782 98.0508 27.8862 97.9379C27.8996 97.7548 27.9088 97.5718 27.9266 97.3887C27.9766 96.8679 27.9743 96.3434 28.1134 95.8254C28.2414 95.3497 28.4933 94.8932 28.7015 94.4317C28.7382 94.3509 28.7792 94.269 28.8174 94.1903L28.9364 93.943L31.4216 88.7796L32.2194 87.1521L32.3169 86.953C32.3466 86.8834 32.3803 86.8148 32.4178 86.7474C32.6429 86.4011 32.9308 86.085 33.2682 85.8134C33.5383 85.6049 33.8502 85.4392 34.153 85.2692C34.2094 85.2373 34.2682 85.2102 34.3254 85.181L34.4803 85.1017L36.4363 84.1031L45.0334 80.1802L47.8867 79.008L50.1338 78.247L53.1318 77.4014L53.2579 77.366C53.2939 77.3559 53.3294 77.3442 53.3657 77.3357C53.4919 77.2998 53.6205 77.2762 53.7491 77.2653C53.8377 77.2586 53.9245 77.2679 54.0043 77.2928C54.0927 77.3236 54.1673 77.3757 54.2204 77.4438C54.3119 77.5675 54.3069 77.737 54.3536 77.8822L54.3764 77.9499C54.3829 77.9698 54.3967 78.0086 54.3967 78.0086L55.0205 79.8368L55.0534 79.9341C55.0657 79.9707 55.0761 80.0078 55.0911 80.0417C55.1221 80.1452 55.1695 80.2427 55.232 80.3316C55.2856 80.388 55.3517 80.4339 55.427 80.4671C55.5254 80.5121 55.6312 80.5454 55.7422 80.5663C55.8769 80.5923 56.0153 80.6078 56.156 80.6126C56.3177 80.6212 56.4822 80.613 56.6457 80.6075C56.9677 80.5976 57.2922 80.5601 57.6134 80.5567C57.6951 80.5527 57.7761 80.5552 57.8554 80.5644C57.9156 80.5744 57.9734 80.5908 58.0276 80.6133C58.1638 80.6685 58.2812 80.7515 58.4091 80.8192C58.6165 80.9249 58.8069 81.0632 59.0357 81.1396C59.1211 81.1666 59.2118 81.1827 59.3053 81.1874C59.4669 81.193 59.6308 81.1844 59.7947 81.1617C59.9025 81.1498 60.011 81.1055 60.1182 81.1076C60.1574 81.1083 60.1954 81.1148 60.2305 81.1269C60.2679 81.1378 60.3014 81.1559 60.3287 81.1798C60.3561 81.2088 60.3764 81.2428 60.3886 81.2801C60.4227 81.3827 60.4486 81.488 60.4661 81.5955C60.4699 81.6127 60.4731 81.63 60.4767 81.6494L60.4874 81.6978L61.2828 85.2906L62.3715 89.8332L62.3897 89.908C62.3965 89.9355 62.3997 89.9619 62.4093 89.9909C62.4485 90.0954 62.5013 90.1942 62.5667 90.2855C62.6203 90.3683 62.6909 90.4406 62.7752 90.4992C62.8069 90.518 62.8436 90.5301 62.883 90.5347C62.9297 90.5416 62.9789 90.5394 63.0272 90.5284C63.0782 90.5123 63.1271 90.49 63.1725 90.4621C63.2228 90.4351 63.2695 90.4027 63.3172 90.3726C63.3536 90.3495 63.3894 90.3265 63.4246 90.3029C63.4599 90.2793 63.5382 90.2234 63.5382 90.2234L67.1456 87.9337L73.6956 83.719L77.3974 81.4412L81.1106 79.0473L81.1882 78.9973C81.2093 78.9841 81.2304 78.9715 81.2505 78.9573C81.3025 78.9283 81.3486 78.8911 81.3862 78.8479C81.4126 78.7986 81.4253 78.7458 81.4232 78.6942C81.4271 78.6452 81.4219 78.5969 81.4077 78.5514C81.3968 78.5272 81.3833 78.5043 81.3675 78.4827L81.3226 78.4071L81.1624 78.1347L80.676 77.2683L80.643 77.2093C80.6282 77.1824 80.6123 77.1556 80.5981 77.1293C80.5163 76.9732 80.4071 76.827 80.367 76.6547C80.3471 76.5613 80.346 76.4635 80.3639 76.3655C80.3859 76.2198 80.4349 76.0752 80.5088 75.9376C80.5585 75.8498 80.6242 75.7684 80.7029 75.697C80.8316 75.5911 80.9723 75.4974 81.1219 75.4179C81.1693 75.3899 81.2209 75.3667 81.2703 75.3413L81.4803 75.2312L89.1938 71.24L92.3627 70.0191L97.2154 68.1597L97.4283 68.0781C97.4673 68.0654 97.5057 68.0508 97.5433 68.0343C97.592 68.0128 97.6369 67.9842 97.6758 67.9498C97.7169 67.9081 97.7471 67.8594 97.7635 67.808C97.7778 67.748 97.7786 67.6877 97.7659 67.6304C97.7469 67.5495 97.7212 67.4706 97.6891 67.3943C97.6749 67.3497 97.6606 67.305 97.6458 67.2604L97.6158 67.1684L97.1506 65.7325L95.5866 61.4857L94.738 58.4516L94.692 58.2869C94.6734 58.2407 94.6593 58.1926 94.6499 58.1433C94.6444 58.067 94.6545 57.9886 94.68 57.912C94.7186 57.7814 94.7906 57.6568 94.8901 57.5482C94.9848 57.4549 95.1199 57.4022 95.2425 57.3421C95.3073 57.3106 95.3749 57.2867 95.4407 57.2617L95.6107 57.1925L96.9949 56.6295L107.309 52.5308L111.187 50.9862L124.02 46.1517L133.947 42.7652L140.33 40.5674L140.482 40.5151C140.513 40.5045 140.545 40.4928 140.574 40.4833C140.705 40.4378 140.839 40.4014 140.974 40.3744C141.057 40.3599 141.141 40.3555 141.223 40.3615C141.297 40.3656 141.367 40.3832 141.429 40.4133C141.482 40.4442 141.526 40.4854 141.557 40.5344C141.605 40.6197 141.643 40.7096 141.672 40.8031L141.7 40.874L141.735 40.9583L144.199 47.0234L146.453 53.6913L146.52 53.8897C146.534 53.93 146.549 53.9709 146.562 54.0112C146.684 54.3958 146.854 54.7685 146.909 55.1721C146.934 55.3541 146.93 55.5416 146.897 55.7292C146.877 55.8601 146.833 55.9899 146.767 56.1137C146.724 56.1934 146.666 56.2672 146.595 56.3314C146.497 56.4096 146.389 56.4777 146.275 56.534C146.066 56.6506 145.85 56.7571 145.63 56.8527C145.583 56.8732 145.535 56.8894 145.487 56.9082L145.334 56.967L131.655 62.2492" stroke="#0EDD9E" stroke-width="1.08539"/>
<g filter="url(#filter0_f_2_2280)">
<path d="M131.658 62.2449L127.467 63.6844L114.294 68.285L109.397 70.0429L99.8237 73.7149L89.742 77.4311L89.4963 77.5217C89.3689 77.5673 89.2486 77.6144 89.1243 77.6589C86.5118 78.5955 83.8191 79.317 81.2586 80.3948C80.7967 80.5979 80.3453 80.8232 79.9067 81.0697C79.8412 81.1066 79.775 81.1478 79.7093 81.1862C79.6435 81.2247 79.4831 81.3187 79.4831 81.3187L77.0032 82.7676L73.5024 85.0233L68.2704 88.4037L65.6075 90.1389L65.1968 90.4055C65.1006 90.468 64.999 90.5252 64.9087 90.5931C64.7137 90.731 64.5313 90.8829 64.3637 91.0468C64.1776 91.2437 64.0114 91.4536 63.8673 91.6738C63.7191 91.8861 63.5921 92.1077 63.4879 92.3357C63.4458 92.4493 63.4106 92.564 63.3824 92.6795C63.3604 92.7509 63.3154 92.896 63.3154 92.896L62.8484 94.3899L62.2296 96.3744C62.2296 96.3744 62.1852 96.5151 62.1632 96.5861L62.0593 96.9185C62.0105 97.0739 61.9677 97.2303 61.9136 97.3847C61.8353 97.609 61.7931 97.8447 61.6561 98.0523C61.5299 98.2474 61.3387 98.4102 61.1574 98.5708C60.8139 98.8767 60.416 99.1335 60.0466 99.4142L59.8634 99.5527L59.668 99.7005L53.2724 104.536L53.0345 104.716C52.951 104.779 52.867 104.841 52.784 104.905C52.0346 105.483 51.2169 106.001 50.5547 106.655C50.2459 106.961 50.0097 107.315 49.7565 107.655C49.7078 107.721 49.6651 107.788 49.6193 107.855L49.4934 108.038L45.0999 114.432L44.8437 114.805C44.7786 114.899 44.7213 114.999 44.6476 115.089C44.5706 115.19 44.4813 115.284 44.3817 115.368C44.2986 115.435 44.2059 115.49 44.1069 115.533C43.9847 115.587 43.8555 115.623 43.725 115.639C43.608 115.65 43.4923 115.644 43.3821 115.622C43.2042 115.587 43.0335 115.534 42.8727 115.466C42.7825 115.431 42.7013 115.382 42.615 115.341L42.2905 115.182L39.4527 113.804L34.2103 111.203L27.9242 108.227L27.6466 108.095C27.5814 108.065 27.5148 108.035 27.4497 108.002C27.3387 107.95 27.1929 107.922 27.123 107.829C27.0714 107.758 27.0802 107.658 27.0753 107.569C27.0691 107.368 27.0819 107.165 27.1136 106.962C27.1604 106.601 27.2739 106.243 27.3271 105.88C27.3733 105.567 27.3922 105.253 27.4171 104.94C27.4229 104.862 27.4263 104.785 27.4314 104.708L27.4486 104.426L27.6528 101.121L27.8615 98.2771C27.8615 98.2771 27.8782 98.0508 27.8862 97.9379C27.8996 97.7548 27.9088 97.5718 27.9266 97.3887C27.9766 96.8679 27.9743 96.3434 28.1134 95.8254C28.2414 95.3497 28.4933 94.8932 28.7015 94.4317C28.7382 94.3509 28.7792 94.269 28.8174 94.1903L28.9364 93.943L31.4216 88.7796L32.2194 87.1521L32.3169 86.953C32.3466 86.8834 32.3803 86.8148 32.4178 86.7474C32.6429 86.4011 32.9308 86.085 33.2682 85.8134C33.5383 85.6049 33.8502 85.4392 34.153 85.2692C34.2094 85.2373 34.2682 85.2102 34.3254 85.181L34.4803 85.1017L36.4363 84.1031L45.0334 80.1802L47.8867 79.008L50.1338 78.247L53.1318 77.4014L53.2579 77.366C53.2939 77.3559 53.3294 77.3442 53.3657 77.3357C53.4919 77.2998 53.6205 77.2762 53.7491 77.2653C53.8377 77.2586 53.9245 77.2679 54.0043 77.2928C54.0927 77.3236 54.1673 77.3757 54.2204 77.4438C54.3119 77.5675 54.3069 77.737 54.3536 77.8822L54.3764 77.9499C54.3829 77.9698 54.3967 78.0086 54.3967 78.0086L55.0205 79.8368L55.0534 79.9341C55.0657 79.9707 55.0761 80.0078 55.0911 80.0417C55.1221 80.1452 55.1695 80.2427 55.232 80.3316C55.2856 80.388 55.3517 80.4339 55.427 80.4671C55.5254 80.5121 55.6312 80.5454 55.7422 80.5663C55.8769 80.5923 56.0153 80.6078 56.156 80.6126C56.3177 80.6212 56.4822 80.613 56.6457 80.6075C56.9677 80.5976 57.2922 80.5601 57.6134 80.5567C57.6951 80.5527 57.7761 80.5552 57.8554 80.5644C57.9156 80.5744 57.9734 80.5908 58.0276 80.6133C58.1638 80.6685 58.2812 80.7515 58.4091 80.8192C58.6165 80.9249 58.8069 81.0632 59.0357 81.1396C59.1211 81.1666 59.2118 81.1827 59.3053 81.1874C59.4669 81.193 59.6308 81.1844 59.7947 81.1617C59.9025 81.1498 60.011 81.1055 60.1182 81.1076C60.1574 81.1083 60.1954 81.1148 60.2305 81.1269C60.2679 81.1378 60.3014 81.1559 60.3287 81.1798C60.3561 81.2088 60.3764 81.2428 60.3886 81.2801C60.4227 81.3827 60.4486 81.488 60.4661 81.5955C60.4699 81.6127 60.4731 81.63 60.4767 81.6494L60.4874 81.6978L61.2828 85.2906L62.3715 89.8332L62.3897 89.908C62.3965 89.9355 62.3997 89.9619 62.4093 89.9909C62.4485 90.0954 62.5013 90.1942 62.5667 90.2855C62.6203 90.3683 62.6909 90.4406 62.7752 90.4992C62.8069 90.518 62.8436 90.5301 62.883 90.5347C62.9297 90.5416 62.9789 90.5394 63.0272 90.5284C63.0782 90.5123 63.1271 90.49 63.1725 90.4621C63.2228 90.4351 63.2695 90.4027 63.3172 90.3726C63.3536 90.3495 63.3894 90.3265 63.4246 90.3029C63.4599 90.2793 63.5382 90.2234 63.5382 90.2234L67.1456 87.9337L73.6956 83.719L77.3974 81.4412L81.1106 79.0473L81.1882 78.9973C81.2093 78.9841 81.2304 78.9715 81.2505 78.9573C81.3025 78.9283 81.3486 78.8911 81.3862 78.8479C81.4126 78.7986 81.4253 78.7458 81.4232 78.6942C81.4271 78.6452 81.4219 78.5969 81.4077 78.5514C81.3968 78.5272 81.3833 78.5043 81.3675 78.4827L81.3226 78.4071L81.1624 78.1347L80.676 77.2683L80.643 77.2093C80.6282 77.1824 80.6123 77.1556 80.5981 77.1293C80.5163 76.9732 80.4071 76.827 80.367 76.6547C80.3471 76.5613 80.346 76.4635 80.3639 76.3655C80.3859 76.2198 80.4349 76.0752 80.5088 75.9376C80.5585 75.8498 80.6242 75.7684 80.7029 75.697C80.8316 75.5911 80.9723 75.4974 81.1219 75.4179C81.1693 75.3899 81.2209 75.3667 81.2703 75.3413L81.4803 75.2312L89.1938 71.24L92.3627 70.0191L97.2154 68.1597L97.4283 68.0781C97.4673 68.0654 97.5057 68.0508 97.5433 68.0343C97.592 68.0128 97.6369 67.9842 97.6758 67.9498C97.7169 67.9081 97.7471 67.8594 97.7635 67.808C97.7778 67.748 97.7786 67.6877 97.7659 67.6304C97.7469 67.5495 97.7212 67.4706 97.6891 67.3943C97.6749 67.3497 97.6606 67.305 97.6458 67.2604L97.6158 67.1684L97.1506 65.7325L95.5866 61.4857L94.738 58.4516L94.692 58.2869C94.6734 58.2407 94.6593 58.1926 94.6499 58.1433C94.6444 58.067 94.6545 57.9886 94.68 57.912C94.7186 57.7814 94.7906 57.6568 94.8901 57.5482C94.9848 57.4549 95.1199 57.4022 95.2425 57.3421C95.3073 57.3106 95.3749 57.2867 95.4407 57.2617L95.6107 57.1925L96.9949 56.6295L107.309 52.5308L111.187 50.9862L124.02 46.1517L133.947 42.7652L140.33 40.5674L140.482 40.5151C140.513 40.5045 140.545 40.4928 140.574 40.4833C140.705 40.4378 140.839 40.4014 140.974 40.3744C141.057 40.3599 141.141 40.3555 141.223 40.3615C141.297 40.3656 141.367 40.3832 141.429 40.4133C141.482 40.4442 141.526 40.4854 141.557 40.5344C141.605 40.6197 141.643 40.7096 141.672 40.8031L141.7 40.874L141.735 40.9583L144.199 47.0234L146.453 53.6913L146.52 53.8897C146.534 53.93 146.549 53.9709 146.562 54.0112C146.684 54.3958 146.854 54.7685 146.909 55.1721C146.934 55.3541 146.93 55.5416 146.897 55.7292C146.877 55.8601 146.833 55.9899 146.767 56.1137C146.724 56.1934 146.666 56.2672 146.595 56.3314C146.497 56.4096 146.389 56.4777 146.275 56.534C146.066 56.6506 145.85 56.7571 145.63 56.8527C145.583 56.8732 145.535 56.8894 145.487 56.9082L145.334 56.967L131.655 62.2492" stroke="#0EDD9E" stroke-width="1.08435" stroke-miterlimit="10"/>
</g>
<defs>
<filter id="filter0_f_2_2280" x="22.1407" y="35.4348" width="129.718" height="85.1339" filterUnits="userSpaceOnUse" color-interpolation-filters="sRGB">
<feFlood flood-opacity="0" result="BackgroundImageFix"/>
<feBlend mode="normal" in="SourceGraphic" in2="BackgroundImageFix" result="shape"/>
<feGaussianBlur stdDeviation="2.19322" result="effect1_foregroundBlur_2_2280"/>
</filter>
</defs>
</svg>
