<svg width="115" height="75" viewBox="0 0 115 75" fill="none" xmlns="http://www.w3.org/2000/svg">
<path d="M24.3603 52.341C19.2588 55.999 14.0102 59.4452 8.71773 62.8118C7.93857 63.3074 7.22372 63.9623 6.34694 64.2432C6.04128 64.3411 5.67111 64.469 5.38806 64.3162C5.1605 64.1934 5.02655 63.8953 5.0045 63.6346C4.94259 62.9024 5.5369 62.0161 5.74443 61.5621C7.16368 58.4571 8.20758 55.7827 9.70303 53.03C10.4436 51.6668 11.2184 50.3076 12.177 49.0926C13.5794 47.3152 15.3459 45.8686 16.9235 44.2497C18.3567 42.7788 19.788 41.3061 21.2105 39.8246C22.2001 38.7939 23.3133 37.8694 24.1654 36.719C24.7791 35.8905 25.096 34.8645 25.6916 34.0225C26.1349 33.3957 26.6025 32.7627 27.2018 32.2883C27.8989 31.7365 28.7279 31.3625 29.5566 31.0507C30.6309 30.6465 31.8425 30.692 32.9015 30.2481C33.7326 29.8997 34.4397 29.3525 35.1703 28.8443C36.4601 27.9471 37.6474 26.9066 38.893 25.9472C40.1853 24.9519 41.4705 23.9467 42.7845 22.9812C43.791 22.2415 44.8003 21.5042 45.8417 20.8161C46.3231 20.4981 46.8073 20.1818 47.3152 19.9097C48.0855 19.497 48.8849 19.1397 49.694 18.8125C51.8267 17.9502 54.0491 17.335 56.2057 16.5362C64.3925 13.5038 78.3708 7.8422 80.5989 6.98577C82.3145 6.3263 83.9855 5.48334 85.7825 5.10873C86.159 5.03025 86.5577 4.95263 86.9332 5.0357C87.4666 5.15368 87.9299 5.45475 88.3475 5.79038C88.7729 6.13226 89.0268 6.61354 89.3857 7.00762C89.5705 7.2105 89.7142 7.42308 89.9297 7.56756C90.2252 7.76571 90.5521 7.87421 90.8886 7.93273C91.1976 7.98648 91.5029 7.95198 91.7995 7.88404C92.8186 7.65062 93.7164 7.03665 94.697 6.67084C95.2743 6.45547 95.8472 6.20472 96.4525 6.09388C96.9254 6.0073 97.4239 5.92223 97.8925 6.02979C98.3826 6.14227 98.8794 6.37954 99.2237 6.748C101.687 9.3839 104.368 12.6062 106.892 15.5771C107.588 16.3953 108.31 17.1928 108.952 18.0546C109.205 18.3941 109.492 18.7213 109.657 19.1127C109.863 19.5996 110.043 20.138 109.991 20.6651C109.95 21.0882 109.735 21.4902 109.488 21.8337C109.276 22.1281 108.993 22.3778 108.68 22.5567C108.359 22.7401 107.991 22.8433 107.627 22.8919C107.314 22.9335 106.986 22.9332 106.681 22.8505C106.304 22.7484 105.952 22.5448 105.643 22.3036C105.198 21.9562 104.871 21.4744 104.509 21.0393C103.238 19.5138 101.751 17.3009 100.863 16.3245C100.569 16.0006 100.054 15.8751 99.6072 15.7986C99.1889 15.7269 98.7486 15.7686 98.3367 15.8716C97.5435 16.0701 96.8569 16.5754 96.1057 16.9014C95.0571 17.3564 93.9916 17.7702 92.9302 18.1933C91.733 18.6706 90.5463 19.1786 89.3288 19.5996C88.0029 20.0581 86.6527 20.4426 85.3015 20.8169C82.7938 21.5115 80.2392 22.0231 77.7335 22.7247C76.9928 22.9321 76.2309 23.0897 75.528 23.4047C74.9919 23.6451 74.4706 23.9408 74.017 24.3176C73.6332 24.6366 73.2605 24.9981 73.0181 25.4375C72.7164 25.9847 72.6016 26.6249 72.4971 27.2431C72.4027 27.8016 72.4122 28.374 72.4052 28.9407C72.397 29.6094 72.3846 30.2822 72.4643 30.946C72.5624 31.7618 72.7128 32.5793 72.9773 33.3561C73.2005 34.0112 73.476 34.6625 73.8739 35.2257C74.1399 35.6023 74.4944 35.9098 74.8479 36.2028C75.2331 36.522 75.6615 36.7846 76.0873 37.0452C76.5772 37.345 77.0664 37.6571 77.5975 37.8729C79.5543 38.6678 81.6726 38.9684 83.6976 39.5616C86.4028 40.3541 89.102 41.1708 91.7778 42.0602C92.7193 42.3731 93.708 42.5856 94.5825 43.0583C94.9771 43.2716 95.3554 43.5382 95.6573 43.8731C95.9685 44.2182 96.2371 44.6239 96.3836 45.0676C96.5355 45.5277 96.5667 46.0342 96.5179 46.5169C96.4666 47.0237 96.2807 47.4961 96.1343 47.9776C95.8852 48.7971 95.4254 49.5576 95.2937 50.4048C95.2154 50.908 95.2213 51.4357 95.3312 51.9328C95.448 52.461 95.6667 52.9788 95.9785 53.4179C96.1175 53.6135 96.3132 53.7636 96.5059 53.9047C97.767 54.8287 99.1576 55.582 100.572 56.2264C102.47 57.0908 104.583 57.8766 106.234 59.246C106.625 59.5707 106.976 59.9751 107.193 60.4389C107.381 60.843 107.49 61.3076 107.456 61.7535C107.414 62.3198 107.163 62.8651 106.875 63.3521C105.801 65.1694 104.84 66.6736 103.559 68.2771C103.195 68.7331 102.734 69.1194 102.231 69.4099C101.788 69.6661 101.31 69.8369 100.817 69.9228C100.105 70.0466 99.3863 70.0047 98.6794 69.9147C97.3168 69.7412 95.9854 69.3403 94.6833 68.8971C93.4782 68.4869 92.2837 68.0126 91.1729 67.3853C89.7054 66.5565 88.3603 65.5111 87.0553 64.438C85.7419 63.3578 84.4691 62.2118 83.3364 60.938C81.8523 59.2689 80.6174 57.3855 79.3395 55.5488C78.3067 54.0644 77.4688 52.4413 76.3758 51.002C75.5396 49.901 74.7067 48.762 73.639 47.8916C72.677 47.1074 71.5156 46.6114 70.4115 46.0527C69.2552 45.4676 68.082 44.9039 66.8621 44.472C64.8729 43.7675 62.8272 43.197 60.7508 42.836C59.9311 42.6934 59.0916 42.5452 58.2641 42.6298C57.4363 42.7145 56.6376 43.0175 55.8669 43.3358C54.5711 43.871 53.4069 44.6893 52.1648 45.3427C50.4417 46.249 48.7627 47.26 46.9628 47.9963C46.071 48.3611 45.1356 48.6074 44.2077 48.863C43.2573 49.1247 42.2928 49.3305 41.331 49.5446C38.2139 50.2387 33.2328 51.498 31.9531 51.4994C31.6958 51.4997 31.2872 51.2199 31.1397 50.9184C31.0401 50.7148 31.152 50.4638 31.1637 50.2368C31.1879 49.7656 31.3809 49.2802 31.2596 48.8248C31.1965 48.5879 31.0494 48.3576 30.852 48.2162C30.6968 48.105 30.49 48.0541 30.3007 48.0701C29.9692 48.098 29.6566 48.2823 29.3897 48.4839C27.5656 49.8621 26.0765 51.1105 24.3603 52.341Z" stroke="#0EDD9E" stroke-width="0.9"/>
<g filter="url(#filter0_f_1_1218)">
<path d="M24.3603 52.341C19.2588 55.999 14.0102 59.4452 8.71773 62.8118C7.93857 63.3074 7.22372 63.9623 6.34694 64.2432C6.04128 64.3411 5.67111 64.469 5.38806 64.3162C5.1605 64.1934 5.02655 63.8953 5.0045 63.6346C4.94259 62.9024 5.5369 62.0161 5.74443 61.5621C7.16368 58.4571 8.20758 55.7827 9.70303 53.03C10.4436 51.6668 11.2184 50.3076 12.177 49.0926C13.5794 47.3152 15.3459 45.8686 16.9235 44.2497C18.3567 42.7788 19.788 41.3061 21.2105 39.8246C22.2001 38.7939 23.3133 37.8694 24.1654 36.719C24.7791 35.8905 25.096 34.8645 25.6916 34.0225C26.1349 33.3957 26.6025 32.7627 27.2018 32.2883C27.8989 31.7365 28.7279 31.3625 29.5566 31.0507C30.6309 30.6465 31.8425 30.692 32.9015 30.2481C33.7326 29.8997 34.4397 29.3525 35.1703 28.8443C36.4601 27.9471 37.6474 26.9066 38.893 25.9472C40.1853 24.9519 41.4705 23.9467 42.7845 22.9812C43.791 22.2415 44.8003 21.5042 45.8417 20.8161C46.3231 20.4981 46.8073 20.1818 47.3152 19.9097C48.0855 19.497 48.8849 19.1397 49.694 18.8125C51.8267 17.9502 54.0491 17.335 56.2057 16.5362C64.3925 13.5038 78.3708 7.8422 80.5989 6.98577C82.3145 6.3263 83.9855 5.48334 85.7825 5.10873C86.159 5.03025 86.5577 4.95263 86.9332 5.0357C87.4666 5.15368 87.9299 5.45475 88.3475 5.79038C88.7729 6.13226 89.0268 6.61354 89.3857 7.00762C89.5705 7.2105 89.7142 7.42308 89.9297 7.56756C90.2252 7.76571 90.5521 7.87421 90.8886 7.93273C91.1976 7.98648 91.5029 7.95198 91.7995 7.88404C92.8186 7.65062 93.7164 7.03665 94.697 6.67084C95.2743 6.45547 95.8472 6.20472 96.4525 6.09388C96.9254 6.0073 97.4239 5.92223 97.8925 6.02979C98.3826 6.14227 98.8794 6.37954 99.2237 6.748C101.687 9.3839 104.368 12.6062 106.892 15.5771C107.588 16.3953 108.31 17.1928 108.952 18.0546C109.205 18.3941 109.492 18.7213 109.657 19.1127C109.863 19.5996 110.043 20.138 109.991 20.6651C109.95 21.0882 109.735 21.4902 109.488 21.8337C109.276 22.1281 108.993 22.3778 108.68 22.5567C108.359 22.7401 107.991 22.8433 107.627 22.8919C107.314 22.9335 106.986 22.9332 106.681 22.8505C106.304 22.7484 105.952 22.5448 105.643 22.3036C105.198 21.9562 104.871 21.4744 104.509 21.0393C103.238 19.5138 101.751 17.3009 100.863 16.3245C100.569 16.0006 100.054 15.8751 99.6072 15.7986C99.1889 15.7269 98.7486 15.7686 98.3367 15.8716C97.5435 16.0701 96.8569 16.5754 96.1057 16.9014C95.0571 17.3564 93.9916 17.7702 92.9302 18.1933C91.733 18.6706 90.5463 19.1786 89.3288 19.5996C88.0029 20.0581 86.6527 20.4426 85.3015 20.8169C82.7938 21.5115 80.2392 22.0231 77.7335 22.7247C76.9928 22.9321 76.2309 23.0897 75.528 23.4047C74.9919 23.6451 74.4706 23.9408 74.017 24.3176C73.6332 24.6366 73.2605 24.9981 73.0181 25.4375C72.7164 25.9847 72.6016 26.6249 72.4971 27.2431C72.4027 27.8016 72.4122 28.374 72.4052 28.9407C72.397 29.6094 72.3846 30.2822 72.4643 30.946C72.5624 31.7618 72.7128 32.5793 72.9773 33.3561C73.2005 34.0112 73.476 34.6625 73.8739 35.2257C74.1399 35.6023 74.4944 35.9098 74.8479 36.2028C75.2331 36.522 75.6615 36.7846 76.0873 37.0452C76.5772 37.345 77.0664 37.6571 77.5975 37.8729C79.5543 38.6678 81.6726 38.9684 83.6976 39.5616C86.4028 40.3541 89.102 41.1708 91.7778 42.0602C92.7193 42.3731 93.708 42.5856 94.5825 43.0583C94.9771 43.2716 95.3554 43.5382 95.6573 43.8731C95.9685 44.2182 96.2371 44.6239 96.3836 45.0676C96.5355 45.5277 96.5667 46.0342 96.5179 46.5169C96.4666 47.0237 96.2807 47.4961 96.1343 47.9776C95.8852 48.7971 95.4254 49.5576 95.2937 50.4048C95.2154 50.908 95.2213 51.4357 95.3312 51.9328C95.448 52.461 95.6667 52.9788 95.9785 53.4179C96.1175 53.6135 96.3132 53.7636 96.5059 53.9047C97.767 54.8287 99.1576 55.582 100.572 56.2264C102.47 57.0908 104.583 57.8766 106.234 59.246C106.625 59.5707 106.976 59.9751 107.193 60.4389C107.381 60.843 107.49 61.3076 107.456 61.7535C107.414 62.3198 107.163 62.8651 106.875 63.3521C105.801 65.1694 104.84 66.6736 103.559 68.2771C103.195 68.7331 102.734 69.1194 102.231 69.4099C101.788 69.6661 101.31 69.8369 100.817 69.9228C100.105 70.0466 99.3863 70.0047 98.6794 69.9147C97.3168 69.7412 95.9854 69.3403 94.6833 68.8971C93.4782 68.4869 92.2837 68.0126 91.1729 67.3853C89.7054 66.5565 88.3603 65.5111 87.0553 64.438C85.7419 63.3578 84.4691 62.2118 83.3364 60.938C81.8523 59.2689 80.6174 57.3855 79.3395 55.5488C78.3067 54.0644 77.4688 52.4413 76.3758 51.002C75.5396 49.901 74.7067 48.762 73.639 47.8916C72.677 47.1074 71.5156 46.6114 70.4115 46.0527C69.2552 45.4676 68.082 44.9039 66.8621 44.472C64.8729 43.7675 62.8272 43.197 60.7508 42.836C59.9311 42.6934 59.0916 42.5452 58.2641 42.6298C57.4363 42.7145 56.6376 43.0175 55.8669 43.3358C54.5711 43.871 53.4069 44.6893 52.1648 45.3427C50.4417 46.249 48.7627 47.26 46.9628 47.9963C46.071 48.3611 45.1356 48.6074 44.2077 48.863C43.2573 49.1247 42.2928 49.3305 41.331 49.5446C38.2139 50.2387 33.2328 51.498 31.9531 51.4994C31.6958 51.4997 31.2872 51.2199 31.1397 50.9184C31.0401 50.7148 31.152 50.4638 31.1637 50.2368C31.1879 49.7656 31.3809 49.2802 31.2596 48.8248C31.1965 48.5879 31.0494 48.3576 30.852 48.2162C30.6968 48.105 30.49 48.0541 30.3007 48.0701C29.9692 48.098 29.6566 48.2823 29.3897 48.4839C27.5656 49.8621 26.0765 51.1105 24.3603 52.341Z" stroke="#0EDD9E" stroke-width="0.914826" stroke-miterlimit="10"/>
</g>
<defs>
<filter id="filter0_f_1_1218" x="0.841924" y="0.842183" width="113.316" height="73.3159" filterUnits="userSpaceOnUse" color-interpolation-filters="sRGB">
<feFlood flood-opacity="0" result="BackgroundImageFix"/>
<feBlend mode="normal" in="SourceGraphic" in2="BackgroundImageFix" result="shape"/>
<feGaussianBlur stdDeviation="1.85034" result="effect1_foregroundBlur_1_1218"/>
</filter>
</defs>
</svg>
