<svg width="74" height="71" viewBox="0 0 74 71" fill="none" xmlns="http://www.w3.org/2000/svg">
<path d="M8.04327 54.1382C11.6954 53.876 11.391 55.0995 11.391 55.0995C11.9127 58.5952 14.5682 65.4386 21.956 65.9798C24.7636 66.2217 27.6056 64.2307 30.054 63.0029C32.4503 61.8011 51.6089 52.2163 55.4278 50.2216C58.7195 48.5022 62.9552 46.4505 63.5128 45.2423C64.9524 41.8351 60.0309 34.7708 58.2266 33.7886C55.0717 31.3345 49.5475 32.9808 44.2739 33.602C41.2612 33.9611 32.2641 34.2257 30.1732 33.9943C26.3037 32.6834 26.2602 27.2661 26.2602 26.3474C26.2602 25.4298 33.2591 17.6427 34.2166 17.6519C36.3262 17.6519 34.9226 22.4594 36.8303 24.3982C38.5353 26.181 40.8251 23.8131 40.8251 23.8131C42.7816 21.8904 42.3903 21.9341 42.2599 15.773C42.4338 14.7461 44.8685 11.3815 45.5098 10.442C46.8032 8.58494 47.7006 8.00112 48.6945 9.00006C49.2597 9.93952 48.4867 17.9268 48.651 19.0119C48.8467 22.4912 52.5116 24.2919 54.0422 24.5996C56.4334 24.8181 65.5311 23.103 65.5311 23.103C68.3571 22.6114 68.7158 21.3442 68.9549 20.7543C69.3911 19.2734 66.5202 13.3697 66.5202 13.3697C63.5637 10.1362 58.2704 7.31775 55.0585 5.772C53.3683 4.88169 49.2696 4.92079 48.2597 5.1111C47.5219 5.25013 30.2601 14.3747 27.695 16.341L8.02153 44.7435C6.30418 46.9283 4.364 51.145 5.20094 53.0676C6.21179 54.4659 8.04327 54.1382 8.04327 54.1382Z" stroke="#0EDD9E" stroke-width="0.9"/>
<g filter="url(#filter0_f_1_2143)">
<path d="M8.04327 54.1382C11.6954 53.876 11.391 55.0995 11.391 55.0995C11.9127 58.5952 14.5682 65.4386 21.956 65.9798C24.7636 66.2217 27.6056 64.2307 30.054 63.0029C32.4503 61.8011 51.6089 52.2163 55.4278 50.2216C58.7195 48.5022 62.9552 46.4505 63.5128 45.2423C64.9524 41.8351 60.0309 34.7708 58.2266 33.7886C55.0717 31.3345 49.5475 32.9808 44.2739 33.602C41.2612 33.9611 32.2641 34.2257 30.1732 33.9943C26.3037 32.6834 26.2602 27.2661 26.2602 26.3474C26.2602 25.4298 33.2591 17.6427 34.2166 17.6519C36.3262 17.6519 34.9226 22.4594 36.8303 24.3982C38.5353 26.181 40.8251 23.8131 40.8251 23.8131C42.7816 21.8904 42.3903 21.9341 42.2599 15.773C42.4338 14.7461 44.8685 11.3815 45.5098 10.442C46.8032 8.58494 47.7006 8.00112 48.6945 9.00006C49.2597 9.93952 48.4867 17.9268 48.651 19.0119C48.8467 22.4912 52.5116 24.2919 54.0422 24.5996C56.4334 24.8181 65.5311 23.103 65.5311 23.103C68.3571 22.6114 68.7158 21.3442 68.9549 20.7543C69.3911 19.2734 66.5202 13.3697 66.5202 13.3697C63.5637 10.1362 58.2704 7.31775 55.0585 5.772C53.3683 4.88169 49.2696 4.92079 48.2597 5.1111C47.5219 5.25013 30.2601 14.3747 27.695 16.341L8.02153 44.7435C6.30418 46.9283 4.364 51.145 5.20094 53.0676C6.21179 54.4659 8.04327 54.1382 8.04327 54.1382Z" stroke="#0EDD9E" stroke-width="0.914826" stroke-miterlimit="10"/>
</g>
<defs>
<filter id="filter0_f_1_2143" x="0.841924" y="0.841909" width="72.3162" height="69.3162" filterUnits="userSpaceOnUse" color-interpolation-filters="sRGB">
<feFlood flood-opacity="0" result="BackgroundImageFix"/>
<feBlend mode="normal" in="SourceGraphic" in2="BackgroundImageFix" result="shape"/>
<feGaussianBlur stdDeviation="1.85034" result="effect1_foregroundBlur_1_2143"/>
</filter>
</defs>
</svg>
