<svg width="127" height="41" viewBox="0 0 127 41" fill="none" xmlns="http://www.w3.org/2000/svg">
<path d="M36.1136 33.4467C33.2221 33.5119 30.3223 33.5282 27.4225 33.5363C25.8446 33.5363 24.2584 33.6178 22.6722 33.5119C21.4495 33.4304 20.2351 33.2756 19.0537 32.966C17.1701 32.4771 15.336 31.7601 13.4772 31.1328C12.7254 30.8883 11.9902 30.5136 11.2384 30.3506C10.9162 30.2773 10.5196 30.2773 10.2387 30.4402C9.80088 30.7091 9.38781 31.1654 9.08213 31.6216C8.75994 32.1105 8.68558 32.8438 8.3386 33.2511C8.09076 33.5607 7.6116 33.7807 7.25636 33.7807C6.90937 33.7726 6.47978 33.5119 6.19063 33.2511C5.90148 32.9823 5.65364 32.583 5.52145 32.192C5.39753 31.8253 5.3397 31.3772 5.39753 30.9861C5.48841 30.3588 5.69494 29.7314 5.95105 29.1529C6.66153 27.5804 7.79335 27.1405 8.64428 25.6576C8.9169 25.1443 9.28867 24.7125 9.6687 24.2888C10.5279 23.3437 11.3871 22.3904 12.3371 21.5594C14.4025 19.7669 16.534 18.0152 18.7232 16.4672C18.9215 16.3042 19.252 16.3042 19.4833 16.3857C20.1855 16.6709 20.8051 17.396 21.5156 17.6078C21.97 17.7463 22.5483 17.673 23.0027 17.4612C25.0019 16.5079 27.0095 15.408 28.8435 14.1451C29.934 13.3874 30.7271 12.1816 31.7763 11.3668C32.3877 10.8861 33.0981 10.5195 33.8417 10.275C34.7009 9.98172 35.6592 9.7047 36.568 9.78618C38.7985 9.97357 41.0291 10.6254 43.2597 11.0898C44.2841 11.3098 46.3165 11.7253 47.3326 11.8394C47.7044 11.8801 48.1174 11.7579 48.4396 11.5786C48.7536 11.375 49.0758 11.049 49.2327 10.715C49.3897 10.3565 49.3732 9.88395 49.3732 9.46027C49.3732 9.0529 49.4723 8.59663 49.5797 8.2137C49.7615 7.57004 50.1415 6.86935 50.5959 6.38865C51.0255 5.94053 51.6451 5.60648 52.2482 5.42723C53.1982 5.14207 53.1982 5.0443 54.1896 5.00356C55.0075 4.97912 55.4867 5.08504 56.3128 5.18281C59.3282 5.58204 62.3684 5.95683 65.3591 6.47827C66.78 6.73084 68.1597 7.17896 69.5476 7.5456C70.6877 7.83076 71.8443 8.05889 72.9596 8.45812C74.7771 9.09363 76.5864 9.81062 78.3295 10.658C80.2875 11.5949 82.1463 12.76 84.0547 13.8029C84.7322 14.1859 85.4757 14.4873 86.1118 14.9191C86.3844 15.0984 86.7397 15.3265 86.8388 15.628C86.9627 15.9376 86.7727 16.3613 86.7562 16.7279C86.7314 17.2005 86.6488 17.6893 86.7149 18.1374C86.7975 18.5448 86.9627 18.9929 87.2106 19.3025C87.6071 19.8077 88.1441 20.2476 88.6811 20.6061C90.0195 21.5187 91.3991 22.3742 92.8284 23.1074C95.5381 24.4925 98.314 25.7798 101.115 26.9612C102.949 27.7271 104.841 28.387 106.741 28.9655C107.658 29.2344 108.608 29.3566 109.558 29.5033C110.797 29.6825 112.061 29.8699 113.317 29.9351C114.82 30.0084 116.324 29.9351 117.819 29.8943C118.769 29.8699 119.719 29.7477 120.669 29.7477C120.934 29.7477 121.289 29.707 121.438 29.8862C121.611 30.098 121.611 30.5624 121.62 30.8883C121.636 31.092 121.619 31.3609 121.512 31.4994C121.314 31.7601 121 32.0127 120.702 32.086C119.992 32.2571 119.207 32.2979 118.472 32.249C117.984 32.2245 117.53 31.9231 117.034 31.8661C116.159 31.7357 115.258 31.6542 114.391 31.7031C113.837 31.7194 113.3 31.9231 112.763 32.0616C111.227 32.4771 109.715 33.023 108.17 33.3734C105.221 34.0415 102.106 34.2859 99.1319 34.8236C97.1822 35.1658 95.2242 35.4754 93.258 35.7361C92.3327 35.8584 91.3826 35.9643 90.4491 35.9806C86.8801 36.062 83.2203 35.8584 79.6431 35.8991C73.2488 35.9724 66.8048 35.9643 60.4022 35.9806C57.4198 36.005 54.3301 35.5487 51.389 35.3532C51.1246 35.3288 50.9016 35.0436 50.7776 34.7992C50.5628 34.4488 50.5711 33.9029 50.3646 33.577C50.2241 33.3571 49.9515 33.1697 49.7036 33.1289C49.084 33.023 48.3983 33.0882 47.7374 33.1045C45.8621 33.1208 44.0032 33.1534 42.1362 33.2104C40.1204 33.2674 38.1211 33.4141 36.1136 33.4467Z" stroke="#0EDD9E" stroke-width="0.996429"/>
<g filter="url(#filter0_f_2_2283)">
<path d="M36.1136 33.4467C33.2221 33.5119 30.3223 33.5282 27.4225 33.5363C25.8446 33.5363 24.2584 33.6178 22.6722 33.5119C21.4495 33.4304 20.2351 33.2756 19.0537 32.966C17.1701 32.4771 15.336 31.7601 13.4772 31.1328C12.7254 30.8883 11.9902 30.5136 11.2384 30.3506C10.9162 30.2773 10.5196 30.2773 10.2387 30.4402C9.80088 30.7091 9.38781 31.1654 9.08213 31.6216C8.75994 32.1105 8.68558 32.8438 8.3386 33.2511C8.09076 33.5607 7.6116 33.7807 7.25636 33.7807C6.90937 33.7726 6.47978 33.5119 6.19063 33.2511C5.90148 32.9823 5.65364 32.583 5.52145 32.192C5.39753 31.8253 5.3397 31.3772 5.39753 30.9861C5.48841 30.3588 5.69494 29.7314 5.95105 29.1529C6.66153 27.5804 7.79335 27.1405 8.64428 25.6576C8.9169 25.1443 9.28867 24.7125 9.6687 24.2888C10.5279 23.3437 11.3871 22.3904 12.3371 21.5594C14.4025 19.7669 16.534 18.0152 18.7232 16.4672C18.9215 16.3042 19.252 16.3042 19.4833 16.3857C20.1855 16.6709 20.8051 17.396 21.5156 17.6078C21.97 17.7463 22.5483 17.673 23.0027 17.4612C25.0019 16.5079 27.0095 15.408 28.8435 14.1451C29.934 13.3874 30.7271 12.1816 31.7763 11.3668C32.3877 10.8861 33.0981 10.5195 33.8417 10.275C34.7009 9.98172 35.6592 9.7047 36.568 9.78618C38.7985 9.97357 41.0291 10.6254 43.2597 11.0898C44.2841 11.3098 46.3165 11.7253 47.3326 11.8394C47.7044 11.8801 48.1174 11.7579 48.4396 11.5786C48.7536 11.375 49.0758 11.049 49.2327 10.715C49.3897 10.3565 49.3732 9.88395 49.3732 9.46027C49.3732 9.0529 49.4723 8.59663 49.5797 8.2137C49.7615 7.57004 50.1415 6.86935 50.5959 6.38865C51.0255 5.94053 51.6451 5.60648 52.2482 5.42723C53.1982 5.14207 53.1982 5.0443 54.1896 5.00356C55.0075 4.97912 55.4867 5.08504 56.3128 5.18281C59.3282 5.58204 62.3684 5.95683 65.3591 6.47827C66.78 6.73084 68.1597 7.17896 69.5476 7.5456C70.6877 7.83076 71.8443 8.05889 72.9596 8.45812C74.7771 9.09363 76.5864 9.81062 78.3295 10.658C80.2875 11.5949 82.1463 12.76 84.0547 13.8029C84.7322 14.1859 85.4757 14.4873 86.1118 14.9191C86.3844 15.0984 86.7397 15.3265 86.8388 15.628C86.9627 15.9376 86.7727 16.3613 86.7562 16.7279C86.7314 17.2005 86.6488 17.6893 86.7149 18.1374C86.7975 18.5448 86.9627 18.9929 87.2106 19.3025C87.6071 19.8077 88.1441 20.2476 88.6811 20.6061C90.0195 21.5187 91.3991 22.3742 92.8284 23.1074C95.5381 24.4925 98.314 25.7798 101.115 26.9612C102.949 27.7271 104.841 28.387 106.741 28.9655C107.658 29.2344 108.608 29.3566 109.558 29.5033C110.797 29.6825 112.061 29.8699 113.317 29.9351C114.82 30.0084 116.324 29.9351 117.819 29.8943C118.769 29.8699 119.719 29.7477 120.669 29.7477C120.934 29.7477 121.289 29.707 121.438 29.8862C121.611 30.098 121.611 30.5624 121.62 30.8883C121.636 31.092 121.619 31.3609 121.512 31.4994C121.314 31.7601 121 32.0127 120.702 32.086C119.992 32.2571 119.207 32.2979 118.472 32.249C117.984 32.2245 117.53 31.9231 117.034 31.8661C116.159 31.7357 115.258 31.6542 114.391 31.7031C113.837 31.7194 113.3 31.9231 112.763 32.0616C111.227 32.4771 109.715 33.023 108.17 33.3734C105.221 34.0415 102.106 34.2859 99.1319 34.8236C97.1822 35.1658 95.2242 35.4754 93.258 35.7361C92.3327 35.8584 91.3826 35.9643 90.4491 35.9806C86.8801 36.062 83.2203 35.8584 79.6431 35.8991C73.2488 35.9724 66.8048 35.9643 60.4022 35.9806C57.4198 36.005 54.3301 35.5487 51.389 35.3532C51.1246 35.3288 50.9016 35.0436 50.7776 34.7992C50.5628 34.4488 50.5711 33.9029 50.3646 33.577C50.2241 33.3571 49.9515 33.1697 49.7036 33.1289C49.084 33.023 48.3983 33.0882 47.7374 33.1045C45.8621 33.1208 44.0032 33.1534 42.1362 33.2104C40.1204 33.2674 38.1211 33.4141 36.1136 33.4467Z" stroke="#0EDD9E" stroke-width="1.01284" stroke-miterlimit="10"/>
</g>
<defs>
<filter id="filter0_f_2_2283" x="0.771411" y="0.396472" width="125.457" height="40.2071" filterUnits="userSpaceOnUse" color-interpolation-filters="sRGB">
<feFlood flood-opacity="0" result="BackgroundImageFix"/>
<feBlend mode="normal" in="SourceGraphic" in2="BackgroundImageFix" result="shape"/>
<feGaussianBlur stdDeviation="2.04859" result="effect1_foregroundBlur_2_2283"/>
</filter>
</defs>
</svg>
