<svg width="120" height="67" viewBox="0 0 120 67" fill="none" xmlns="http://www.w3.org/2000/svg">
<path d="M114.565 13.0459L105.712 16.4936C105.628 16.5274 105.55 16.5775 105.485 16.641C104.275 17.8064 92.4736 29.2361 91.0707 29.8743C89.8492 30.4318 81.3733 34.3925 78.4707 35.7498C78.3665 35.7984 78.2517 35.8198 78.137 35.8121C78.0223 35.8045 77.9114 35.768 77.8145 35.7059C77.7177 35.6439 77.638 35.5584 77.5829 35.4573C77.5277 35.3563 77.4989 35.2429 77.4992 35.1277C77.4987 34.948 77.4279 34.7756 77.302 34.6476C77.1762 34.5196 77.0052 34.4462 76.8259 34.443L49.6466 34.0512C49.5818 34.0493 49.5174 34.0391 49.4551 34.0209L48.5078 33.728C47.7889 33.5059 47.0192 33.5111 46.3034 33.7427C45.5875 33.9743 44.9602 34.4212 44.5067 35.0227L42.87 37.1898C42.562 37.5987 42.3429 38.0676 42.2266 38.5664C42.1103 39.0652 42.0994 39.5829 42.1947 40.0861L44.7989 53.7396C44.8293 53.8931 44.805 54.0525 44.7304 54.19L40.7676 61.6368C40.7023 61.7598 40.6012 61.8599 40.4777 61.9238C40.3541 61.9876 40.2141 62.0122 40.0762 61.9943L26.2286 60.1765C26.187 60.1735 26.1452 60.1735 26.1036 60.1765L5.72115 61.2934C5.58417 61.3006 5.44819 61.2664 5.3308 61.1953C5.21341 61.1242 5.12002 61.0195 5.0627 60.8946C5.00539 60.7697 4.98678 60.6305 5.0093 60.4949C5.03182 60.3593 5.09443 60.2336 5.18903 60.1341L15.729 49.1023C15.8009 49.0269 15.8547 48.936 15.8861 48.8366C15.9176 48.7371 15.9259 48.6318 15.9104 48.5287L15.1747 43.5197C15.1566 43.4011 15.1705 43.2797 15.215 43.1683L24.4629 19.7393C24.5217 19.5914 24.63 19.4686 24.7692 19.3919L31.8241 15.4796C31.9053 15.4349 31.9765 15.3741 32.0333 15.3008C32.0902 15.2275 32.1315 15.1433 32.1547 15.0535L32.8218 12.4945C32.8662 12.3255 32.9747 12.1805 33.1242 12.0905C34.3497 11.3432 40.5217 8.20251 56.6269 9.14573C56.6567 9.14764 56.6864 9.15169 56.7156 9.15785L70.9885 11.8098C71.0284 11.8178 71.0689 11.8219 71.1095 11.8219L92.4212 11.9552C92.5058 11.9555 92.5898 11.9405 92.6691 11.9108L110.78 5.04364C110.939 4.98391 111.115 4.98554 111.273 5.04822C111.432 5.1109 111.561 5.23017 111.637 5.38295L114.93 12.1047C114.972 12.1899 114.995 12.2828 114.999 12.3775C115.003 12.4723 114.988 12.5669 114.954 12.6553C114.919 12.7438 114.867 12.8241 114.8 12.8913C114.733 12.9586 114.653 13.0112 114.565 13.0459Z" stroke="#0EDD9E" stroke-miterlimit="10"/>
<g filter="url(#filter0_f_2_2293)">
<path d="M114.565 13.0459L105.712 16.4936C105.628 16.5274 105.55 16.5775 105.485 16.641C104.275 17.8064 92.4736 29.2361 91.0707 29.8743C89.8492 30.4318 81.3733 34.3925 78.4707 35.7498C78.3665 35.7984 78.2517 35.8198 78.137 35.8121C78.0223 35.8045 77.9114 35.768 77.8145 35.7059C77.7177 35.6439 77.638 35.5584 77.5829 35.4573C77.5277 35.3563 77.4989 35.2429 77.4992 35.1277C77.4987 34.948 77.4279 34.7756 77.302 34.6476C77.1762 34.5196 77.0052 34.4462 76.8259 34.443L49.6466 34.0512C49.5818 34.0493 49.5174 34.0391 49.4551 34.0209L48.5078 33.728C47.7889 33.5059 47.0192 33.5111 46.3034 33.7427C45.5875 33.9743 44.9602 34.4212 44.5067 35.0227L42.87 37.1898C42.562 37.5987 42.3429 38.0676 42.2266 38.5664C42.1103 39.0652 42.0994 39.5829 42.1947 40.0861L44.7989 53.7396C44.8293 53.8931 44.805 54.0525 44.7304 54.19L40.7676 61.6368C40.7023 61.7598 40.6012 61.8599 40.4777 61.9238C40.3541 61.9876 40.2141 62.0122 40.0762 61.9943L26.2286 60.1765C26.187 60.1735 26.1452 60.1735 26.1036 60.1765L5.72115 61.2934C5.58417 61.3006 5.44819 61.2664 5.3308 61.1953C5.21341 61.1242 5.12002 61.0195 5.0627 60.8946C5.00539 60.7697 4.98678 60.6305 5.0093 60.4949C5.03182 60.3593 5.09443 60.2336 5.18903 60.1341L15.729 49.1023C15.8009 49.0269 15.8547 48.936 15.8861 48.8366C15.9176 48.7371 15.9259 48.6318 15.9104 48.5287L15.1747 43.5197C15.1566 43.4011 15.1705 43.2797 15.215 43.1683L24.4629 19.7393C24.5217 19.5914 24.63 19.4686 24.7692 19.3919L31.8241 15.4796C31.9053 15.4349 31.9765 15.3741 32.0333 15.3008C32.0902 15.2275 32.1315 15.1433 32.1547 15.0535L32.8218 12.4945C32.8662 12.3255 32.9747 12.1805 33.1242 12.0905C34.3497 11.3432 40.5217 8.20251 56.6269 9.14573C56.6567 9.14764 56.6864 9.15169 56.7156 9.15785L70.9885 11.8098C71.0284 11.8178 71.0689 11.8219 71.1095 11.8219L92.4212 11.9552C92.5058 11.9555 92.5898 11.9405 92.6691 11.9108L110.78 5.04364C110.939 4.98391 111.115 4.98554 111.273 5.04822C111.432 5.1109 111.561 5.23017 111.637 5.38295L114.93 12.1047C114.972 12.1899 114.995 12.2828 114.999 12.3775C115.003 12.4723 114.988 12.5669 114.954 12.6553C114.919 12.7438 114.867 12.8241 114.8 12.8913C114.733 12.9586 114.653 13.0112 114.565 13.0459Z" stroke="#0EDD9E" stroke-width="0.914826" stroke-miterlimit="10"/>
</g>
<defs>
<filter id="filter0_f_2_2293" x="0.841924" y="0.841893" width="118.316" height="65.3162" filterUnits="userSpaceOnUse" color-interpolation-filters="sRGB">
<feFlood flood-opacity="0" result="BackgroundImageFix"/>
<feBlend mode="normal" in="SourceGraphic" in2="BackgroundImageFix" result="shape"/>
<feGaussianBlur stdDeviation="1.85034" result="effect1_foregroundBlur_2_2293"/>
</filter>
</defs>
</svg>
