<svg width="91" height="69" viewBox="0 0 91 69" fill="none" xmlns="http://www.w3.org/2000/svg">
<path d="M6.57709 17.8018C7.01561 14.5525 7.50656 12.2657 8.13417 9.03123C8.32914 8.02642 9.17927 7.04433 9.64204 6.69586C10.394 6.12968 11.9405 5.48555 12.8819 5.33914C15.614 4.91417 17.6661 4.96432 20.4555 5.08531C22.8589 5.18956 25.4149 5.57484 27.8628 6.15348C29.9061 6.63649 32.0978 7.39606 34.2002 7.53383C35.7952 7.63835 37.1963 7.21414 38.656 6.6967C39.239 6.49001 40.2854 6.45092 41.1217 7.08015C42.0062 7.74564 42.9561 8.45405 43.9293 9.04713C44.8025 9.57922 45.7603 10.0973 46.7219 10.2513C47.7074 10.4091 48.6093 10.055 49.6073 9.77046C50.3562 9.55701 50.8536 8.94969 51.9123 8.98694C52.8599 9.02028 53.5105 9.25913 54.1516 9.65054C54.7343 10.0063 55.2302 10.5536 55.5052 11.2176C56.0555 12.5463 56.185 14.0824 56.8135 15.3707C57.3919 16.5563 58.3196 17.6321 59.3151 18.5286C64.9914 23.6407 70.8071 28.7728 76.4624 34.0497C79.4229 36.8121 82.2271 39.6224 84.8275 42.6565C85.4606 43.395 85.9706 44.5355 85.9987 45.4676C86.0265 46.3922 85.6074 47.4958 85.0666 48.2555C84.5246 49.0166 83.6358 49.5685 82.74 49.901C81.144 50.4932 78.8001 50.3038 77.2808 51.1328C73.8362 53.0124 70.6775 54.6085 66.8891 56.4428C65.924 56.9101 65.9906 57.6375 66.1899 58.008C66.5257 58.6324 67.1043 59.2668 67.1206 59.8957C67.1438 60.7903 66.8242 61.8253 66.066 62.5634C65.3386 63.2717 64.2574 63.8611 63.2175 63.9716C62.1457 64.0856 60.8234 63.855 59.8909 63.3018C58.6849 62.5863 57.7377 61.2956 56.8021 60.1657C52.1332 54.527 47.9413 49.759 42.9231 44.4711C41.4505 42.9192 43.1065 40.4171 43.6337 39.6957C43.9618 39.2468 46.2092 35.2217 46.5546 33.1227C46.8841 31.1204 45.3175 27.9177 43.595 25.6082C41.9304 23.3764 40.5962 22.1995 40.7952 21.5294C40.9941 20.8594 40.7952 20.3701 44.2508 20.3701C47.9873 20.2347 48.8584 19.2108 46.5546 16.8921C41.947 13.4142 40.1481 13.0604 37.1706 15.1852C23.3701 25.0318 21.8753 25.4616 13.2494 33.462C12.6298 33.7406 12.2275 34.6379 12.3454 35.2238C12.4698 35.8415 13.1089 36.5038 13.8132 36.7569C14.8108 37.1154 15.9755 37.5125 16.954 37.9108C17.5209 38.1416 17.983 38.8634 18.1373 39.4456C18.3112 40.1019 18.2599 41.036 17.9388 41.6263C17.5992 42.2505 16.816 42.7786 16.1451 42.856C15.2719 42.9567 14.2242 42.3857 13.4642 41.7665C11.3731 40.0628 9.21276 38.4242 7.55333 36.3253C6.49449 34.986 4.91322 32.7548 5.00372 31.0781C5.24486 26.6106 5.94827 22.4611 6.57709 17.8018Z" stroke="#0EDD9E" stroke-width="0.9" stroke-linejoin="round"/>
<g filter="url(#filter0_f_1_913)">
<path d="M6.57709 17.8018C7.01561 14.5525 7.50656 12.2657 8.13417 9.03123C8.32914 8.02642 9.17927 7.04433 9.64204 6.69586C10.394 6.12968 11.9405 5.48555 12.8819 5.33914C15.614 4.91417 17.6661 4.96432 20.4555 5.08531C22.8589 5.18956 25.4149 5.57484 27.8628 6.15348C29.9061 6.63649 32.0978 7.39606 34.2002 7.53383C35.7952 7.63835 37.1963 7.21414 38.656 6.6967C39.239 6.49001 40.2854 6.45092 41.1217 7.08015C42.0062 7.74564 42.9561 8.45405 43.9293 9.04713C44.8025 9.57922 45.7603 10.0973 46.7219 10.2513C47.7074 10.4091 48.6093 10.055 49.6073 9.77046C50.3562 9.55701 50.8536 8.94969 51.9123 8.98694C52.8599 9.02028 53.5105 9.25913 54.1516 9.65054C54.7343 10.0063 55.2302 10.5536 55.5052 11.2176C56.0555 12.5463 56.185 14.0824 56.8135 15.3707C57.3919 16.5563 58.3196 17.6321 59.3151 18.5286C64.9914 23.6407 70.8071 28.7728 76.4624 34.0497C79.4229 36.8121 82.2271 39.6224 84.8275 42.6565C85.4606 43.395 85.9706 44.5355 85.9987 45.4676C86.0265 46.3922 85.6074 47.4958 85.0666 48.2555C84.5246 49.0166 83.6358 49.5685 82.74 49.901C81.144 50.4932 78.8001 50.3038 77.2808 51.1328C73.8362 53.0124 70.6775 54.6085 66.8891 56.4428C65.924 56.9101 65.9906 57.6375 66.1899 58.008C66.5257 58.6324 67.1043 59.2668 67.1206 59.8957C67.1438 60.7903 66.8242 61.8253 66.066 62.5634C65.3386 63.2717 64.2574 63.8611 63.2175 63.9716C62.1457 64.0856 60.8234 63.855 59.8909 63.3018C58.6849 62.5863 57.7377 61.2956 56.8021 60.1657C52.1332 54.527 47.9413 49.759 42.9231 44.4711C41.4505 42.9192 43.1065 40.4171 43.6337 39.6957C43.9618 39.2468 46.2092 35.2217 46.5546 33.1227C46.8841 31.1204 45.3175 27.9177 43.595 25.6082C41.9304 23.3764 40.5962 22.1995 40.7952 21.5294C40.9941 20.8594 40.7952 20.3701 44.2508 20.3701C47.9873 20.2347 48.8584 19.2108 46.5546 16.8921C41.947 13.4142 40.1481 13.0604 37.1706 15.1852C23.3701 25.0318 21.8753 25.4616 13.2494 33.462C12.6298 33.7406 12.2275 34.6379 12.3454 35.2238C12.4698 35.8415 13.1089 36.5038 13.8132 36.7569C14.8108 37.1154 15.9755 37.5125 16.954 37.9108C17.5209 38.1416 17.983 38.8634 18.1373 39.4456C18.3112 40.1019 18.2599 41.036 17.9388 41.6263C17.5992 42.2505 16.816 42.7786 16.1451 42.856C15.2719 42.9567 14.2242 42.3857 13.4642 41.7665C11.3731 40.0628 9.21276 38.4242 7.55333 36.3253C6.49449 34.986 4.91322 32.7548 5.00372 31.0781C5.24486 26.6106 5.94827 22.4611 6.57709 17.8018Z" stroke="#0EDD9E" stroke-width="0.914826" stroke-miterlimit="10"/>
</g>
<defs>
<filter id="filter0_f_1_913" x="0.841924" y="0.841892" width="89.3162" height="67.3161" filterUnits="userSpaceOnUse" color-interpolation-filters="sRGB">
<feFlood flood-opacity="0" result="BackgroundImageFix"/>
<feBlend mode="normal" in="SourceGraphic" in2="BackgroundImageFix" result="shape"/>
<feGaussianBlur stdDeviation="1.85034" result="effect1_foregroundBlur_1_913"/>
</filter>
</defs>
</svg>
