<svg width="79" height="84" viewBox="0 0 79 84" fill="none" xmlns="http://www.w3.org/2000/svg">
<path d="M30.9665 78.9799C22.6238 78.9222 15.2463 79.0798 6.97467 78.9411C6.17578 78.9277 5.58615 78.4419 5.25404 77.8125C5.11562 77.5501 4.93013 76.9374 5.02681 76.2646C5.09249 75.8075 5.804 75.0048 6.18873 74.6977C7.74261 73.4573 8.62229 72.648 10.3628 71.6543C11.6341 70.9285 12.5962 70.2739 13.9919 69.8361C15.2272 69.4486 17.0536 69.0555 18.353 69.0173C24.081 68.8492 28.692 68.9784 34.3937 68.7664C35.1656 68.7377 36.36 68.607 36.9959 68.2308C37.5517 67.902 38.4343 67.0731 38.651 65.7614C38.7836 64.9582 38.6104 63.7885 38.2746 63.2788C37.4908 62.0893 36.9277 61.6792 36.2631 61.3384C33.7083 60.0285 30.4108 59.4145 28.0005 57.9727C27.1913 57.4887 26.9329 56.4562 26.7605 55.7158C26.1356 53.0324 26.2696 53.2678 25.9168 51.343C25.4079 48.7821 25.2621 48.0166 24.7872 45.9666C23.4343 40.1426 22.2136 34.2344 21.1004 28.325C20.7263 26.339 21.3348 24.0003 20.9446 22.135C20.7809 21.3524 20.1165 20.8986 19.4388 20.3812C16.3777 18.0443 12.8109 16.1885 9.98803 13.6754C9.14137 12.9216 8.60373 11.6529 8.43021 10.5804C8.29217 9.72712 8.58471 8.63645 9.05334 7.89803C9.58864 7.05456 10.5074 6.24089 11.442 5.83469C12.7229 5.278 14.2683 4.93825 15.7 5.00936C20.4995 5.24775 25.4443 5.90471 30.1357 6.7632C30.7062 6.86759 31.2606 7.41617 31.4858 7.89803C31.7107 8.37906 31.3987 9.08046 31.4858 9.65186C31.5718 10.2153 31.6089 10.517 32.0375 10.8841C34.6206 13.0962 37.8673 15.3774 40.8452 17.0675C41.4811 17.4284 42.6774 17.5715 43.2221 17.4867C44.2175 17.3318 47.5939 14.7729 49.6993 13.9015C50.5018 13.5693 51.6521 13.6978 52.3995 14.069C53.3138 14.5231 54.1803 15.7401 54.7492 16.6672C56.3958 19.3509 57.3146 22.591 59.111 25.1269C59.9456 26.305 61.306 27.2157 62.6421 27.8092C65.564 29.1071 69.1084 29.3839 71.8851 30.801C72.8818 31.3097 73.9404 32.456 73.9622 33.5865C74.1481 43.2542 73.6275 52.0868 72.8647 62.0365C72.8045 62.8207 72.4432 63.8471 71.4614 63.7508C68.8666 63.4963 65.0192 63.0406 62.3305 62.7827C59.9996 62.5592 57.8559 62.4864 55.6573 62.8859C55.0172 63.0022 54.3536 63.5843 54.0085 64.1499C53.6612 64.7191 53.6191 65.7257 53.736 66.3226C53.8615 66.9637 54.3068 67.6545 54.8655 68.1086C55.4492 68.583 56.0655 68.9434 56.8262 68.9727C60.687 69.1216 62.7274 68.8537 66.3808 68.9212C67.1555 68.9354 68.8861 69.168 69.7108 69.9722C70.9677 71.198 71.3699 71.919 71.6126 72.9575C71.8199 73.8448 71.5877 74.9446 71.1581 75.7817C70.6877 76.6984 69.8681 77.6301 68.9772 78.1546C67.9987 78.7306 66.6518 78.8081 65.4715 78.8062C53.9815 78.7869 42.4945 79.0597 30.9665 78.9799Z" stroke="#0EDD9E" stroke-width="0.9" stroke-linejoin="round"/>
<g filter="url(#filter0_f_1_1076)">
<path d="M30.9665 78.9799C22.6238 78.9222 15.2463 79.0798 6.97467 78.9411C6.17578 78.9277 5.58615 78.4419 5.25404 77.8125C5.11562 77.5501 4.93013 76.9374 5.02681 76.2646C5.09249 75.8075 5.804 75.0048 6.18873 74.6977C7.74261 73.4573 8.62229 72.648 10.3628 71.6543C11.6341 70.9285 12.5962 70.2739 13.9919 69.8361C15.2272 69.4486 17.0536 69.0555 18.353 69.0173C24.081 68.8492 28.692 68.9784 34.3937 68.7664C35.1656 68.7377 36.36 68.607 36.9959 68.2308C37.5517 67.902 38.4343 67.0731 38.651 65.7614C38.7836 64.9582 38.6104 63.7885 38.2746 63.2788C37.4908 62.0893 36.9277 61.6792 36.2631 61.3384C33.7083 60.0285 30.4108 59.4145 28.0005 57.9727C27.1913 57.4887 26.9329 56.4562 26.7605 55.7158C26.1356 53.0324 26.2696 53.2678 25.9168 51.343C25.4079 48.7821 25.2621 48.0166 24.7872 45.9666C23.4343 40.1426 22.2136 34.2344 21.1004 28.325C20.7263 26.339 21.3348 24.0003 20.9446 22.135C20.7809 21.3524 20.1165 20.8986 19.4388 20.3812C16.3777 18.0443 12.8109 16.1885 9.98803 13.6754C9.14137 12.9216 8.60373 11.6529 8.43021 10.5804C8.29217 9.72712 8.58471 8.63645 9.05334 7.89803C9.58864 7.05456 10.5074 6.24089 11.442 5.83469C12.7229 5.278 14.2683 4.93825 15.7 5.00936C20.4995 5.24775 25.4443 5.90471 30.1357 6.7632C30.7062 6.86759 31.2606 7.41617 31.4858 7.89803C31.7107 8.37906 31.3987 9.08046 31.4858 9.65186C31.5718 10.2153 31.6089 10.517 32.0375 10.8841C34.6206 13.0962 37.8673 15.3774 40.8452 17.0675C41.4811 17.4284 42.6774 17.5715 43.2221 17.4867C44.2175 17.3318 47.5939 14.7729 49.6993 13.9015C50.5018 13.5693 51.6521 13.6978 52.3995 14.069C53.3138 14.5231 54.1803 15.7401 54.7492 16.6672C56.3958 19.3509 57.3146 22.591 59.111 25.1269C59.9456 26.305 61.306 27.2157 62.6421 27.8092C65.564 29.1071 69.1084 29.3839 71.8851 30.801C72.8818 31.3097 73.9404 32.456 73.9622 33.5865C74.1481 43.2542 73.6275 52.0868 72.8647 62.0365C72.8045 62.8207 72.4432 63.8471 71.4614 63.7508C68.8666 63.4963 65.0192 63.0406 62.3305 62.7827C59.9996 62.5592 57.8559 62.4864 55.6573 62.8859C55.0172 63.0022 54.3536 63.5843 54.0085 64.1499C53.6612 64.7191 53.6191 65.7257 53.736 66.3226C53.8615 66.9637 54.3068 67.6545 54.8655 68.1086C55.4492 68.583 56.0655 68.9434 56.8262 68.9727C60.687 69.1216 62.7274 68.8537 66.3808 68.9212C67.1555 68.9354 68.8861 69.168 69.7108 69.9722C70.9677 71.198 71.3699 71.919 71.6126 72.9575C71.8199 73.8448 71.5877 74.9446 71.1581 75.7817C70.6877 76.6984 69.8681 77.6301 68.9772 78.1546C67.9987 78.7306 66.6518 78.8081 65.4715 78.8062C53.9815 78.7869 42.4945 79.0597 30.9665 78.9799Z" stroke="#0EDD9E" stroke-width="0.914826" stroke-miterlimit="10"/>
</g>
<defs>
<filter id="filter0_f_1_1076" x="0.841924" y="0.841909" width="77.3162" height="82.3161" filterUnits="userSpaceOnUse" color-interpolation-filters="sRGB">
<feFlood flood-opacity="0" result="BackgroundImageFix"/>
<feBlend mode="normal" in="SourceGraphic" in2="BackgroundImageFix" result="shape"/>
<feGaussianBlur stdDeviation="1.85034" result="effect1_foregroundBlur_1_1076"/>
</filter>
</defs>
</svg>
