<svg width="105" height="75" viewBox="0 0 105 75" fill="none" xmlns="http://www.w3.org/2000/svg">
<path d="M59.5291 30.1433C62.7938 31.2112 66.0536 32.3257 69.2344 33.5385C69.7475 33.7341 70.1375 34.1969 70.4891 34.6185C71.5853 35.9329 72.4585 37.4907 73.5778 38.7466C73.7776 38.9708 74.1586 39.0542 74.4465 39.0586C74.6895 39.0622 74.9975 38.9387 75.1704 38.7706C75.3595 38.5867 75.4989 38.2683 75.5323 38.0026C75.5633 37.7563 75.4783 37.4673 75.3634 37.2345C75.044 36.5873 74.5926 35.9949 74.2293 35.3625C73.6918 34.4269 73.1558 33.4886 72.6608 32.5304C72.2549 31.7446 71.8187 30.96 71.5267 30.1304C71.2556 29.36 71.0657 28.5387 70.9717 27.7303C70.9048 27.1547 70.9657 26.5545 71.0441 25.9783C71.1105 25.4905 71.2366 25.0017 71.4061 24.5383C71.6871 23.7697 71.9901 22.9923 72.3954 22.2822C72.8668 21.4563 73.451 20.684 74.0363 19.9302C74.4323 19.42 74.8719 18.9369 75.3393 18.4901C76.1106 17.7529 76.9052 17.0265 77.7523 16.3781C78.546 15.7705 79.3807 15.1908 80.2618 14.722C81.1101 14.2708 82.0213 13.8979 82.9403 13.618C83.7023 13.3859 84.5108 13.2728 85.305 13.186C85.9747 13.1128 86.6614 13.0658 87.3319 13.138C90.0799 13.4338 92.8234 14.0512 95.5603 14.29C96.0327 14.3312 96.5422 14.1839 96.9599 13.978C97.435 13.7438 97.8988 13.3806 98.2388 12.97C98.6871 12.4285 99.049 11.7745 99.3246 11.122C99.6201 10.4225 99.8487 9.66138 99.952 8.91391C100.026 8.38135 100.03 7.77911 99.8555 7.28188C99.6597 6.72309 99.2631 6.16469 98.842 5.74584C98.5714 5.47668 98.1541 5.33196 97.7803 5.21783C97.3418 5.08395 96.8626 4.98521 96.4049 5.00183C95.7607 5.02521 95.1002 5.15956 94.4745 5.33783C93.4996 5.61557 92.5529 6.00705 91.603 6.36986C90.5421 6.77506 89.482 7.18721 88.4419 7.64188C87.4873 8.05923 86.5418 8.5034 85.6187 8.98591C84.3379 9.65543 83.0458 10.32 81.8303 11.098C80.3834 12.024 78.9951 13.0515 77.6316 14.098C76.2121 15.1875 74.8689 16.3752 73.4813 17.5061C71.8848 18.8072 70.2655 20.0808 68.6794 21.3942C67.0481 22.7449 65.4294 24.1113 63.8292 25.4983C61.4238 27.5833 58.9818 29.6479 56.6626 31.8104C56.4079 32.0479 56.2074 32.3683 56.1076 32.6984C55.7891 33.7523 55.5492 34.8633 55.4078 35.9625C55.2837 36.9274 55.2023 37.925 55.3113 38.8906C55.5401 40.917 55.9877 42.9364 56.4213 44.9387C56.8001 46.6885 57.4491 48.3918 57.7484 50.1468C57.9076 51.0799 57.8655 52.0783 57.7967 53.0029C57.7851 53.1583 57.6512 53.3293 57.5071 53.3869C56.9112 53.6253 56.1511 53.6228 55.5767 53.8909C55.3628 53.9908 55.1518 54.2612 55.1424 54.4909C55.1196 55.0452 55.317 55.6532 55.3649 56.243C55.4216 56.9412 55.4373 57.6675 55.3407 58.355C55.2845 58.7555 55.1893 59.1331 55.0217 59.507C54.8595 59.8692 54.6857 60.2328 54.4667 60.5631C54.187 60.9848 53.8852 61.4097 53.5257 61.7631C53.1934 62.0897 52.797 62.3666 52.3915 62.6031C51.494 63.1266 50.5668 63.6225 49.6166 64.0431C49.0305 64.3026 48.4028 64.4761 47.7827 64.6432C47.2446 64.7881 46.6942 64.8983 46.1418 64.9792C40.7341 65.7704 35.3102 66.4645 29.9023 67.2592C26.3821 67.7765 22.8763 68.3893 19.3574 68.9152C16.8277 69.2933 14.2939 69.6819 11.7564 69.9713C11.2777 70.0259 10.7872 69.994 10.3086 69.9473C9.88633 69.906 9.45224 69.8456 9.05386 69.7073C8.59964 69.5496 8.14223 69.3378 7.75083 69.0592C7.2092 68.6738 6.69661 68.2127 6.25477 67.7152C5.84402 67.2527 5.45846 66.7275 5.19304 66.1792C5.04021 65.8635 5 65.4758 5 65.1232C5 64.7238 5.04318 64.2875 5.19304 63.9231C5.33274 63.5835 5.60504 63.2774 5.86868 63.0111C6.12785 62.7494 6.43522 62.5075 6.7615 62.3391C7.07065 62.1795 7.42766 62.0786 7.77496 62.0271C8.3446 61.9426 8.93271 61.9517 9.51233 61.9311C11.8525 61.8477 14.2065 61.8629 16.5342 61.7151C16.8528 61.6949 17.169 61.5709 17.4511 61.4271C17.8125 61.2429 18.1721 61.0097 18.4646 60.7311C18.7432 60.4657 18.9629 60.1267 19.1644 59.795C19.4295 59.3587 19.5722 58.8392 19.8641 58.427C20.0709 58.1352 20.3584 57.8758 20.6604 57.683C21.0099 57.4598 21.4175 57.2833 21.8187 57.179C22.1253 57.0993 22.463 57.1197 22.7839 57.131C23.1467 57.1437 23.5165 57.1667 23.8697 57.251C24.9241 57.5027 25.9528 57.8798 27.0067 58.139C27.4489 58.2478 27.9098 58.3634 28.358 58.355C28.7624 58.3474 29.1847 58.2375 29.5645 58.091C29.973 57.9335 30.3735 57.7057 30.7227 57.443C31.0009 57.2337 31.2418 56.9593 31.4466 56.675C31.9737 55.9432 32.3799 55.1165 32.9185 54.3949C33.1682 54.0605 33.4753 53.7507 33.8114 53.5069C34.159 53.2547 34.5675 53.066 34.9696 52.9069C35.3156 52.77 35.6869 52.6713 36.0555 52.6189C36.4752 52.5593 36.9189 52.5149 37.3344 52.5709C37.6911 52.6189 38.0454 52.773 38.3719 52.9309C38.6245 53.053 38.8685 53.2175 39.0717 53.4109C39.4234 53.7455 39.7277 54.1367 40.0369 54.5149C40.4275 54.9927 40.7732 55.5075 41.171 55.979C41.5293 56.4035 41.866 56.8775 42.3052 57.203C42.7186 57.5095 43.2367 57.707 43.7288 57.875C44.0571 57.987 44.4186 58.0322 44.7664 58.043C45.1908 58.0562 45.6413 58.0642 46.0453 57.947C46.6065 57.7842 47.1506 57.4991 47.662 57.203C48.325 56.8191 48.9772 56.3921 49.5683 55.907C50.1274 55.4481 50.6362 54.9152 51.1126 54.3709C51.4486 53.9872 51.7414 53.5594 52.0055 53.1229C52.3367 52.5753 52.6655 52.0111 52.8983 51.4189C53.0837 50.947 53.1651 50.4316 53.2602 49.9308C53.3581 49.4156 53.4382 48.8933 53.4774 48.3708C53.5186 47.8213 53.5391 47.2639 53.5015 46.7148C53.4587 46.0879 53.3915 45.4506 53.2361 44.8427C53.0376 44.0666 52.7171 43.3184 52.4398 42.5627C51.6956 40.5344 50.8078 38.5294 50.1716 36.4905C50.0839 36.2094 50.1535 35.8759 50.2681 35.6025C51.183 33.4198 52.1831 31.2217 53.2602 29.1224C53.3735 28.9016 53.6187 28.7399 53.8393 28.6423C54.0531 28.5479 54.3324 28.4729 54.5633 28.5463C55.7087 28.9106 56.8582 29.2775 58.0085 29.6491" stroke="#0EDD9E" stroke-width="0.9"/>
<g filter="url(#filter0_f_1_1511)">
<path d="M59.5291 30.1433C62.7938 31.2112 66.0536 32.3257 69.2344 33.5385C69.7475 33.7341 70.1375 34.1969 70.4891 34.6185C71.5853 35.9329 72.4585 37.4907 73.5778 38.7466C73.7776 38.9708 74.1586 39.0542 74.4465 39.0586C74.6895 39.0622 74.9975 38.9387 75.1704 38.7706C75.3595 38.5867 75.4989 38.2683 75.5323 38.0026C75.5633 37.7563 75.4783 37.4673 75.3634 37.2345C75.044 36.5873 74.5926 35.9949 74.2293 35.3625C73.6918 34.4269 73.1558 33.4886 72.6608 32.5304C72.2549 31.7446 71.8187 30.96 71.5267 30.1304C71.2556 29.36 71.0657 28.5387 70.9717 27.7303C70.9048 27.1547 70.9657 26.5545 71.0441 25.9783C71.1105 25.4905 71.2366 25.0017 71.4061 24.5383C71.6871 23.7697 71.9901 22.9923 72.3954 22.2822C72.8668 21.4563 73.451 20.684 74.0363 19.9302C74.4323 19.42 74.8719 18.9369 75.3393 18.4901C76.1106 17.7529 76.9052 17.0265 77.7523 16.3781C78.546 15.7705 79.3807 15.1908 80.2618 14.722C81.1101 14.2708 82.0213 13.8979 82.9403 13.618C83.7023 13.3859 84.5108 13.2728 85.305 13.186C85.9747 13.1128 86.6614 13.0658 87.3319 13.138C90.0799 13.4338 92.8234 14.0512 95.5603 14.29C96.0327 14.3312 96.5422 14.1839 96.9599 13.978C97.435 13.7438 97.8988 13.3806 98.2388 12.97C98.6871 12.4285 99.049 11.7745 99.3246 11.122C99.6201 10.4225 99.8487 9.66138 99.952 8.91391C100.026 8.38135 100.03 7.77911 99.8555 7.28188C99.6597 6.72309 99.2631 6.16469 98.842 5.74584C98.5714 5.47668 98.1541 5.33196 97.7803 5.21783C97.3418 5.08395 96.8626 4.98521 96.4049 5.00183C95.7607 5.02521 95.1002 5.15956 94.4745 5.33783C93.4996 5.61557 92.5529 6.00705 91.603 6.36986C90.5421 6.77506 89.482 7.18721 88.4419 7.64188C87.4873 8.05923 86.5418 8.5034 85.6187 8.98591C84.3379 9.65543 83.0458 10.32 81.8303 11.098C80.3834 12.024 78.9951 13.0515 77.6316 14.098C76.2121 15.1875 74.8689 16.3752 73.4813 17.5061C71.8848 18.8072 70.2655 20.0808 68.6794 21.3942C67.0481 22.7449 65.4294 24.1113 63.8292 25.4983C61.4238 27.5833 58.9818 29.6479 56.6626 31.8104C56.4079 32.0479 56.2074 32.3683 56.1076 32.6984C55.7891 33.7523 55.5492 34.8633 55.4078 35.9625C55.2837 36.9274 55.2023 37.925 55.3113 38.8906C55.5401 40.917 55.9877 42.9364 56.4213 44.9387C56.8001 46.6885 57.4491 48.3918 57.7484 50.1468C57.9076 51.0799 57.8655 52.0783 57.7967 53.0029C57.7851 53.1583 57.6512 53.3293 57.5071 53.3869C56.9112 53.6253 56.1511 53.6228 55.5767 53.8909C55.3628 53.9908 55.1518 54.2612 55.1424 54.4909C55.1196 55.0452 55.317 55.6532 55.3649 56.243C55.4216 56.9412 55.4373 57.6675 55.3407 58.355C55.2845 58.7555 55.1893 59.1331 55.0217 59.507C54.8595 59.8692 54.6857 60.2328 54.4667 60.5631C54.187 60.9848 53.8852 61.4097 53.5257 61.7631C53.1934 62.0897 52.797 62.3666 52.3915 62.6031C51.494 63.1266 50.5668 63.6225 49.6166 64.0431C49.0305 64.3026 48.4028 64.4761 47.7827 64.6432C47.2446 64.7881 46.6942 64.8983 46.1418 64.9792C40.7341 65.7704 35.3102 66.4645 29.9023 67.2592C26.3821 67.7765 22.8763 68.3893 19.3574 68.9152C16.8277 69.2933 14.2939 69.6819 11.7564 69.9713C11.2777 70.0259 10.7872 69.994 10.3086 69.9473C9.88633 69.906 9.45224 69.8456 9.05386 69.7073C8.59964 69.5496 8.14223 69.3378 7.75083 69.0592C7.2092 68.6738 6.69661 68.2127 6.25477 67.7152C5.84402 67.2527 5.45846 66.7275 5.19304 66.1792C5.04021 65.8635 5 65.4758 5 65.1232C5 64.7238 5.04318 64.2875 5.19304 63.9231C5.33274 63.5835 5.60504 63.2774 5.86868 63.0111C6.12785 62.7494 6.43522 62.5075 6.7615 62.3391C7.07065 62.1795 7.42766 62.0786 7.77496 62.0271C8.3446 61.9426 8.93271 61.9517 9.51233 61.9311C11.8525 61.8477 14.2065 61.8629 16.5342 61.7151C16.8528 61.6949 17.169 61.5709 17.4511 61.4271C17.8125 61.2429 18.1721 61.0097 18.4646 60.7311C18.7432 60.4657 18.9629 60.1267 19.1644 59.795C19.4295 59.3587 19.5722 58.8392 19.8641 58.427C20.0709 58.1352 20.3584 57.8758 20.6604 57.683C21.0099 57.4598 21.4175 57.2833 21.8187 57.179C22.1253 57.0993 22.463 57.1197 22.7839 57.131C23.1467 57.1437 23.5165 57.1667 23.8697 57.251C24.9241 57.5027 25.9528 57.8798 27.0067 58.139C27.4489 58.2478 27.9098 58.3634 28.358 58.355C28.7624 58.3474 29.1847 58.2375 29.5645 58.091C29.973 57.9335 30.3735 57.7057 30.7227 57.443C31.0009 57.2337 31.2418 56.9593 31.4466 56.675C31.9737 55.9432 32.3799 55.1165 32.9185 54.3949C33.1682 54.0605 33.4753 53.7507 33.8114 53.5069C34.159 53.2547 34.5675 53.066 34.9696 52.9069C35.3156 52.77 35.6869 52.6713 36.0555 52.6189C36.4752 52.5593 36.9189 52.5149 37.3344 52.5709C37.6911 52.6189 38.0454 52.773 38.3719 52.9309C38.6245 53.053 38.8685 53.2175 39.0717 53.4109C39.4234 53.7455 39.7277 54.1367 40.0369 54.5149C40.4275 54.9927 40.7732 55.5075 41.171 55.979C41.5293 56.4035 41.866 56.8775 42.3052 57.203C42.7186 57.5095 43.2367 57.707 43.7288 57.875C44.0571 57.987 44.4186 58.0322 44.7664 58.043C45.1908 58.0562 45.6413 58.0642 46.0453 57.947C46.6065 57.7842 47.1506 57.4991 47.662 57.203C48.325 56.8191 48.9772 56.3921 49.5683 55.907C50.1274 55.4481 50.6362 54.9152 51.1126 54.3709C51.4486 53.9872 51.7414 53.5594 52.0055 53.1229C52.3367 52.5753 52.6655 52.0111 52.8983 51.4189C53.0837 50.947 53.1651 50.4316 53.2602 49.9308C53.3581 49.4156 53.4382 48.8933 53.4774 48.3708C53.5186 47.8213 53.5391 47.2639 53.5015 46.7148C53.4587 46.0879 53.3915 45.4506 53.2361 44.8427C53.0376 44.0666 52.7171 43.3184 52.4398 42.5627C51.6956 40.5344 50.8078 38.5294 50.1716 36.4905C50.0839 36.2094 50.1535 35.8759 50.2681 35.6025C51.183 33.4198 52.1831 31.2217 53.2602 29.1224C53.3735 28.9016 53.6187 28.7399 53.8393 28.6423C54.0531 28.5479 54.3324 28.4729 54.5633 28.5463C55.7087 28.9106 56.8582 29.2775 58.0085 29.6491" stroke="#0EDD9E" stroke-width="0.914826" stroke-miterlimit="10"/>
</g>
<defs>
<filter id="filter0_f_1_1511" x="0.841924" y="0.841924" width="103.316" height="73.3161" filterUnits="userSpaceOnUse" color-interpolation-filters="sRGB">
<feFlood flood-opacity="0" result="BackgroundImageFix"/>
<feBlend mode="normal" in="SourceGraphic" in2="BackgroundImageFix" result="shape"/>
<feGaussianBlur stdDeviation="1.85034" result="effect1_foregroundBlur_1_1511"/>
</filter>
</defs>
</svg>
