<svg width="88" height="56" viewBox="0 0 88 56" fill="none" xmlns="http://www.w3.org/2000/svg">
<path d="M28.723 49.4862C28.0846 49.2794 27.4648 49.0833 27.0381 48.9636L27.0365 48.9631C25.752 48.6078 23.3032 47.4824 19.7201 45.5839C16.295 43.7683 12.6747 41.4044 10.5002 39.9829C9.85437 39.5606 9.3382 39.2235 8.96138 38.9877L8.96129 38.9876C8.62878 38.7796 7.95407 38.4 7.25224 38.071C6.9009 37.9063 6.53512 37.7506 6.19705 37.6353C5.9496 37.5508 5.69368 37.4796 5.45849 37.4499C5.4634 37.4047 5.47087 37.3513 5.48195 37.2887L5.48197 37.2887C5.57862 36.7427 5.88246 35.4556 6.26415 34.2116C6.45472 33.5904 6.66159 32.9903 6.86794 32.5041C6.97115 32.261 7.07141 32.053 7.16617 31.8882C7.26397 31.7181 7.34226 31.6182 7.39457 31.57C7.93213 31.0766 8.89568 30.5401 9.98306 30.0295C11.0572 29.525 12.201 29.0687 13.0672 28.7234L13.0673 28.7234C13.1114 28.7058 13.1548 28.6885 13.1974 28.6715C13.8234 28.422 14.2969 28.2333 14.5281 28.0981C15.8481 27.3334 17.0805 26.5387 17.9687 25.3697C18.8693 24.1842 19.3865 22.656 19.3725 20.4762C19.3548 17.7259 19.3985 13.6433 19.4308 10.658L19.4308 10.6575C19.4346 10.2679 19.4381 9.91106 19.4413 9.58606C19.4479 8.92068 19.4532 8.38865 19.4564 7.98142C19.4586 7.68714 19.46 7.4496 19.4596 7.27165C19.9743 7.3629 20.801 7.53361 21.5485 7.688L21.5675 7.69191C21.5675 7.69192 21.5676 7.69193 21.5676 7.69194C21.5677 7.69195 21.5677 7.69196 21.5677 7.69196C22.2034 7.82366 22.5856 7.90202 22.8219 7.9474C23.0425 7.98977 23.174 8.01175 23.2776 8.01175H23.2993C23.8341 8.03788 24.2412 7.85063 24.5139 7.52826C24.7168 7.28831 24.8212 7.00184 24.8757 6.74694C24.905 6.74452 24.94 6.7424 24.9815 6.74079C25.0893 6.73663 25.2267 6.73641 25.4029 6.73959C25.519 6.74497 25.6399 6.74496 25.7392 6.74496H25.7439C26.1719 6.74496 27.0612 6.84056 28.0153 7.16329C28.9704 7.48637 29.9444 8.02142 30.6 8.86808L30.6001 8.86821C31.2154 9.66216 31.5083 10.3413 31.6515 10.9684C31.797 11.6055 31.7938 12.2083 31.788 12.8869H31.788V12.8908V12.8915V12.8922V12.893V12.8937V12.8944V12.8952V12.8959V12.8966V12.8974V12.8981V12.8988V12.8996V12.9003V12.901V12.9018V12.9025V12.9032V12.904V12.9047V12.9054V12.9062V12.9069V12.9076V12.9084V12.9091V12.9098V12.9106V12.9113V12.912V12.9128V12.9135V12.9142V12.915V12.9157V12.9165V12.9172V12.9179V12.9187V12.9194V12.9201V12.9209V12.9216V12.9223V12.9231V12.9238V12.9245V12.9253V12.926V12.9267V12.9275V12.9282V12.9289V12.9297V12.9304V12.9311V12.9319V12.9326V12.9334V12.9341V12.9348V12.9356V12.9363V12.937V12.9378V12.9385V12.9392V12.94V12.9407V12.9414V12.9422V12.9429V12.9436V12.9444V12.9451V12.9458V12.9466V12.9473V12.9481V12.9488V12.9495V12.9503V12.951V12.9517V12.9525V12.9532V12.9539V12.9547V12.9554V12.9561V12.9569V12.9576V12.9583V12.9591V12.9598V12.9606V12.9613V12.962V12.9628V12.9635V12.9642V12.965V12.9657V12.9664V12.9672V12.9679V12.9686V12.9694V12.9701V12.9709V12.9716V12.9723V12.9731V12.9738V12.9745V12.9753V12.976V12.9767V12.9775V12.9782V12.979V12.9797V12.9804V12.9812V12.9819V12.9826V12.9834V12.9841V12.9848V12.9856V12.9863V12.987V12.9878V12.9885V12.9893V12.99V12.9907V12.9915V12.9922V12.9929V12.9937V12.9944V12.9951V12.9959V12.9966V12.9974V12.9981V12.9988V12.9996V13.0003V13.001V13.0018V13.0025V13.0032V13.004V13.0047V13.0055V13.0062V13.0069V13.0077V13.0084V13.0091V13.0099V13.0106V13.0113V13.0121V13.0128V13.0136V13.0143V13.015V13.0158V13.0165V13.0172V13.018V13.0187V13.0194V13.0202V13.0209V13.0217V13.0224V13.0231V13.0239V13.0246V13.0253V13.0261V13.0268V13.0275V13.0283V13.029V13.0298V13.0305V13.0312V13.032V13.0327V13.0334V13.0342V13.0349V13.0356V13.0364V13.0371V13.0379V13.0386V13.0393V13.0401V13.0408V13.0415V13.0423V13.043V13.0438V13.0445V13.0452V13.046V13.0467V13.0474V13.0482V13.0489V13.0496V13.0504V13.0511V13.0519V13.0526V13.0533V13.0541V13.0548V13.0555V13.0563V13.057V13.0577V13.0585V13.0592V13.06V13.0607V13.0614V13.0622V13.0629V13.0636V13.0644V13.0651V13.0659V13.0666V13.0673V13.0681V13.0688V13.0695V13.0703V13.071V13.0717V13.0725V13.0732V13.074V13.0747V13.0754V13.0762V13.0769V13.0776V13.0784V13.0791V13.0799V13.0806V13.0813V13.0821V13.0828V13.0835V13.0843V13.085V13.0857V13.0865V13.0872V13.088V13.0887V13.0894V13.0902V13.0909V13.0916V13.0924V13.0931V13.0939V13.0946V13.0953V13.0961V13.0968V13.0975V13.0983V13.099V13.0997V13.1005V13.1012V13.102V13.1027V13.1034V13.1042V13.1049V13.1056V13.1064V13.1071V13.1079V13.1086V13.1093V13.1101V13.1108V13.1115V13.1123V13.113V13.1137V13.1145V13.1152V13.116V13.1167V13.1174V13.1182V13.1189V13.1196V13.1204V13.1211V13.1218V13.1226V13.1233V13.1241V13.1248V13.1255V13.1263V13.127V13.1277V13.1285V13.1292V13.13V13.1307V13.1314V13.1322V13.1329V13.1336V13.1344V13.1351V13.1358V13.1366V13.1373V13.1381V13.1388V13.1395V13.1403V13.141V13.1417V13.1425V13.1432V13.1439V13.1447V13.1454V13.1462V13.1469V13.1476V13.1484V13.1491V13.1498V13.1506V13.1513V13.152V13.1528V13.1535V13.1543V13.155V13.1557V13.1565V13.1572V13.1579V13.1587V13.1594V13.1601V13.1609V13.1616V13.1624V13.1631V13.1638V13.1646V13.1653V13.166V13.1668V13.1675V13.1682V13.169V13.1697V13.1705V13.1712V13.1719V13.1727V13.1734V13.1741V13.1749V13.1756V13.1763V13.1771V13.1778V13.1785V13.1793V13.18V13.1808V13.1815V13.1822V13.183V13.1837V13.1844V13.1852V13.1859V13.1866V13.1874V13.1881V13.1888V13.1896V13.1903V13.1911V13.1918V13.1925V13.1933V13.194V13.1947V13.1955V13.1962V13.1969V13.1977V13.1984V13.1991V13.1999V13.2006V13.2014V13.2021V13.2028V13.2036V13.2043V13.205V13.2058V13.2065V13.2072V13.208V13.2087V13.2094V13.2102V13.2109V13.2117V13.2124V13.2131V13.2139V13.2146V13.2153V13.2161V13.2168V13.2175V13.2183V13.219V13.2197V13.2205V13.2212V13.2219V13.2227V13.2234V13.2241V13.2249V13.2256V13.2264V13.2271V13.2278V13.2286V13.2293V13.23V13.2308V13.2315V13.2322V13.233V13.2337V13.2344V13.2352V13.2359V13.2366V13.2374V13.2381V13.2388V13.2396V13.2403V13.241V13.2418V13.2425V13.2433V13.244V13.2447V13.2455V13.2462V13.2469V13.2477V13.2484V13.2491V13.2499V13.2506V13.2513V13.2521V13.2528V13.2535V13.2543V13.255V13.2557V13.2565V13.2572V13.2579V13.2587V13.2594V13.2601V13.2609V13.2616V13.2623V13.2631V13.2638V13.2645V13.2653V13.266V13.2667V13.2675C31.788 13.4991 31.7866 13.7589 31.7851 14.036L31.7849 14.0895C31.7833 14.3859 31.7817 14.7004 31.7817 15.0176C31.7817 15.018 31.7817 15.0183 31.7817 15.0186L31.7812 15.12C31.7741 16.4225 31.7674 17.6702 31.7898 18.0468L31.7898 18.0471L31.797 18.1657C31.797 18.1661 31.797 18.1665 31.7971 18.167C31.8232 18.6436 31.8627 19.2202 32.2451 19.635C32.6395 20.0628 33.2814 20.2084 34.1746 20.2004L34.1749 20.2004C35.7547 20.1852 63.5423 19.6493 68.18 19.5599C68.5619 19.5525 68.7868 19.5482 68.8272 19.5474C69.0723 19.5472 69.7814 19.5342 70.5094 19.4887C70.8756 19.4658 71.2526 19.4343 71.5806 19.3912C71.8931 19.35 72.2105 19.2926 72.426 19.2012L72.4325 19.1983C72.4794 19.1776 72.548 19.1505 72.6466 19.1122L72.6483 19.1115L72.6548 19.109C73.1048 18.9321 73.8892 18.6238 74.6316 18.1616C75.3674 17.7035 76.1343 17.0504 76.452 16.1521C76.452 16.152 76.452 16.1519 76.4521 16.1518L76.0278 16.0018M28.723 49.4862L73.452 8.40421C73.4083 9.18767 74.3006 10.4006 74.8916 11.1986M28.723 49.4862C28.7228 49.4862 28.7226 49.4861 28.7224 49.486L28.5844 49.9143L28.723 49.4862ZM76.0278 16.0018C76.6178 14.3366 76.2655 13.5469 75.4805 12.0597C75.3029 11.7605 75.1061 11.4729 74.8916 11.1986M76.0278 16.0018C75.4951 17.5087 73.3843 18.3388 72.4837 18.6927C72.3878 18.73 72.3085 18.761 72.2502 18.7869M76.0278 16.0018L72.2502 18.7869M74.8916 11.1986L75.2532 10.9308C75.2521 10.9292 75.251 10.9277 75.2498 10.9262C75.2486 10.9246 75.2473 10.923 75.246 10.9213L74.8916 11.1986ZM72.2502 18.7869C71.6383 19.0467 69.2877 19.0974 68.8228 19.0974L72.2502 18.7869ZM80.7311 14.4204L80.7446 14.438C81.3409 15.1625 82.9034 17.2417 82.9639 18.1494L80.7311 14.4204ZM80.7311 14.4204C78.542 11.4087 75.1709 6.81244 74.8791 6.49471M80.7311 14.4204L74.8791 6.49471M74.8791 6.49471C74.7467 6.34033 74.6229 6.17899 74.508 6.01138L74.8791 6.49471ZM73.377 5.43802C73.377 5.46906 73.3832 5.59016 73.3926 5.75678L73.427 5.00747C73.3676 5.02507 73.3687 5.1917 73.377 5.33452V5.43802ZM24.7556 6.76433C24.7541 6.76489 24.7533 6.76513 24.7533 6.76512C24.7532 6.7651 24.754 6.76482 24.7556 6.76433Z" stroke="#0EDD9E" stroke-width="0.9"/>
<g filter="url(#filter0_f_2_2224)">
<path d="M19.0038 6.79071C18.9958 6.84632 18.9958 6.90276 19.0038 6.95837C19.0184 7.12707 19.0038 8.27691 18.9808 10.6532C18.9485 13.637 18.9047 17.724 18.9225 20.4791C18.9496 24.681 16.9367 26.1827 14.3015 27.7093C14.0931 27.8314 13.6167 28.0198 12.9006 28.3054C11.1712 28.9947 8.27653 30.1497 7.09029 31.2385C6.27409 31.9888 5.24004 36.0738 5.03886 37.2102C4.95026 37.7101 5.03886 37.8364 5.05345 37.8488C5.06805 37.8612 5.10974 37.885 5.23796 37.885C6.08751 37.885 8.0889 38.9727 8.72267 39.3691C9.0948 39.602 9.60662 39.9363 10.2539 40.3596C12.4263 41.7796 16.0632 44.1548 19.5093 45.9815C23.0858 47.8765 25.5771 49.0263 26.9166 49.3968C27.3335 49.5138 27.9454 49.7073 28.5844 49.9143C29.4996 50.2093 30.5368 50.5436 31.0861 50.6616C31.9805 50.8541 34.5479 51 35.7769 51H81.1532C81.3075 51 81.4117 50.7216 81.4441 50.6067V49.6297C81.4441 49.3389 81.6953 49.1122 82.5615 48.4675L82.7627 48.3164C82.7835 48.1321 82.7898 47.7037 82.7835 47.3518L82.9639 21.4685C82.9639 21.4364 83.0452 19.3396 82.9639 18.1494C82.9034 17.2417 81.3409 15.1625 80.7446 14.438L80.7311 14.4204C78.542 11.4087 75.1709 6.81244 74.8791 6.49471C74.7467 6.34033 74.6229 6.17899 74.508 6.01138C74.2338 5.62948 73.722 4.9195 73.427 5.00747C73.3676 5.02507 73.3687 5.1917 73.377 5.33452C73.377 5.37281 73.377 5.40697 73.377 5.43802C73.377 5.46906 73.3833 5.59016 73.3926 5.75678C73.4249 6.37776 73.4969 7.658 73.452 8.40421C73.4083 9.18767 74.3005 10.4006 74.8916 11.1986C75.1061 11.4729 75.3029 11.7605 75.4805 12.0597C76.2655 13.5469 76.6178 14.3366 76.0278 16.0018C75.4951 17.5087 73.3843 18.3388 72.4837 18.6927C72.3878 18.73 72.3085 18.761 72.2502 18.7869C71.6383 19.0467 69.2877 19.0974 68.8228 19.0974C68.4944 19.1036 35.8832 19.7339 34.1706 19.7505C32.4287 19.766 32.3016 19.1502 32.2463 18.1411L32.239 18.02C32.2171 17.6526 32.2244 16.3713 32.2317 15.0186C32.2317 14.3863 32.238 13.7632 32.238 13.2675C32.238 13.1422 32.238 13.016 32.238 12.8908C32.2494 11.5453 32.2599 10.2754 30.9558 8.59257C29.4965 6.70791 26.6956 6.29496 25.7439 6.29496C25.6396 6.29496 25.525 6.29496 25.4176 6.28979C24.6879 6.27633 24.4878 6.3167 24.4628 6.49678C24.3929 7.00701 24.1365 7.60729 23.3109 7.56175H23.2776C23.1733 7.56175 22.9325 7.51518 21.6587 7.25126C20.877 7.08981 19.9909 6.90662 19.4697 6.81658C19.3174 6.77913 19.1594 6.77036 19.0038 6.79071Z" stroke="#0EDD9E" stroke-width="0.914826" stroke-miterlimit="10"/>
</g>
<defs>
<filter id="filter0_f_2_2224" x="0.841924" y="0.841604" width="86.316" height="54.3165" filterUnits="userSpaceOnUse" color-interpolation-filters="sRGB">
<feFlood flood-opacity="0" result="BackgroundImageFix"/>
<feBlend mode="normal" in="SourceGraphic" in2="BackgroundImageFix" result="shape"/>
<feGaussianBlur stdDeviation="1.85034" result="effect1_foregroundBlur_2_2224"/>
</filter>
</defs>
</svg>
