<svg width="100" height="75" viewBox="0 0 100 75" fill="none" xmlns="http://www.w3.org/2000/svg">
<path d="M31.8114 7.95611C54.889 11.5145 67.2041 12.7412 74.8938 13.9897C80.0216 14.8227 89.0943 16.2952 91.4365 16.8933C93.572 17.4393 93.6155 17.3827 93.4089 18.977C93.2327 20.3147 93.1262 20.9411 92.8957 22.2874C92.7913 22.9051 93.2806 23.1705 94.1135 23.9687C94.6136 24.4494 95.0747 24.78 94.9899 25.215C94.1439 29.5607 93.6959 30.2219 92.6173 32.5427C92.1106 33.6367 91.6344 34.1892 91.0494 35.2419C87.496 40.9514 83.9404 46.6609 80.3848 52.3703C78.5015 55.3958 76.3269 58.2473 74.2718 61.1401C74.0652 61.4293 73.7934 61.8143 73.8303 62.1689C73.8934 62.7518 75.8963 63.6936 76.4856 64.0742C77.0793 64.4592 77.2467 64.7049 77.1663 65.3248C77.1097 65.7729 76.5943 66.0578 76.2464 66.3014C74.5458 67.4912 72.9126 68.6113 71.2142 69.7989C70.9837 69.9598 70.6923 70.0621 70.4313 69.9576C70.1465 69.8445 69.7637 69.5618 69.431 69.366C69.0917 69.1638 69.1439 68.7831 69.2005 68.3916C70.0573 62.5234 70.925 56.4637 71.7796 50.5977C71.884 49.8908 71.5752 49.1339 70.9685 48.7554C69.829 48.0507 69.0482 47.4961 67.937 46.8175C66.8083 46.128 65.9559 44.4793 65.5557 43.2178C65.0642 41.6626 63.7921 40.1619 62.2372 39.8617C59.882 39.4049 57.5268 39.0504 55.1739 38.6328C53.7929 38.387 52.4229 37.7867 51.8096 36.1054C51.4486 35.1223 51.179 34.2284 50.8376 33.2365C50.5875 32.5144 49.7589 32.0664 49.087 31.701C46.8753 30.4938 44.5723 29.2715 42.3585 28.0643C40.8015 27.216 38.9856 26.7462 37.2328 26.4635C31.1786 25.4804 25.1721 24.506 19.1178 23.525C18.061 23.3532 16.9867 22.9747 16.8105 21.3478C16.53 18.7399 16.343 16.1429 16.0929 13.5416C16.0472 13.0522 16.0255 12.4367 15.4296 12.2018C15.0447 12.0495 14.588 12.117 14.3401 12.4476C13.9639 12.9435 13.5637 13.385 13.1897 13.8831C12.8548 14.3268 11.9893 14.3159 11.4826 14.0854C10.9128 13.8244 10.3952 13.3328 9.77546 13.248C8.50981 13.0783 7.32679 13.0196 6.06113 12.8478C5.50659 12.7738 4.94552 12.0952 5.00424 11.5384C5.06296 10.9707 5.1195 10.8098 5.26738 10.4117C5.87411 8.7848 7.07888 6.97517 8.59027 6.08558C9.97771 5.2656 11.5978 4.76751 13.4528 5.10899L31.8114 7.95611Z" stroke="#0EDD9E" stroke-width="0.9" stroke-miterlimit="10"/>
<g filter="url(#filter0_f_1_2050)">
<path d="M31.8114 7.95611C54.889 11.5145 67.2041 12.7412 74.8938 13.9897C80.0216 14.8227 89.0943 16.2952 91.4365 16.8933C93.572 17.4393 93.6155 17.3827 93.4089 18.977C93.2327 20.3147 93.1262 20.9411 92.8957 22.2874C92.7913 22.9051 93.2806 23.1705 94.1135 23.9687C94.6136 24.4494 95.0747 24.78 94.9899 25.215C94.1439 29.5607 93.6959 30.2219 92.6173 32.5427C92.1106 33.6367 91.6344 34.1892 91.0494 35.2419C87.496 40.9514 83.9404 46.6609 80.3848 52.3703C78.5015 55.3958 76.3269 58.2473 74.2718 61.1401C74.0652 61.4293 73.7934 61.8143 73.8303 62.1689C73.8934 62.7518 75.8963 63.6936 76.4856 64.0742C77.0793 64.4592 77.2467 64.7049 77.1663 65.3248C77.1097 65.7729 76.5943 66.0578 76.2464 66.3014C74.5458 67.4912 72.9126 68.6113 71.2142 69.7989C70.9837 69.9598 70.6923 70.0621 70.4313 69.9576C70.1465 69.8445 69.7637 69.5618 69.431 69.366C69.0917 69.1638 69.1439 68.7831 69.2005 68.3916C70.0573 62.5234 70.925 56.4637 71.7796 50.5977C71.884 49.8908 71.5752 49.1339 70.9685 48.7554C69.829 48.0507 69.0482 47.4961 67.937 46.8175C66.8083 46.128 65.9559 44.4793 65.5557 43.2178C65.0642 41.6626 63.7921 40.1619 62.2372 39.8617C59.882 39.4049 57.5268 39.0504 55.1739 38.6328C53.7929 38.387 52.4229 37.7867 51.8096 36.1054C51.4486 35.1223 51.179 34.2284 50.8376 33.2365C50.5875 32.5144 49.7589 32.0664 49.087 31.701C46.8753 30.4938 44.5723 29.2715 42.3585 28.0643C40.8015 27.216 38.9856 26.7462 37.2328 26.4635C31.1786 25.4804 25.1721 24.506 19.1178 23.525C18.061 23.3532 16.9867 22.9747 16.8105 21.3478C16.53 18.7399 16.343 16.1429 16.0929 13.5416C16.0472 13.0522 16.0255 12.4367 15.4296 12.2018C15.0447 12.0495 14.588 12.117 14.3401 12.4476C13.9639 12.9435 13.5637 13.385 13.1897 13.8831C12.8548 14.3268 11.9893 14.3159 11.4826 14.0854C10.9128 13.8244 10.3952 13.3328 9.77546 13.248C8.50981 13.0783 7.32679 13.0196 6.06113 12.8478C5.50659 12.7738 4.94552 12.0952 5.00424 11.5384C5.06296 10.9707 5.1195 10.8098 5.26738 10.4117C5.87411 8.7848 7.07888 6.97517 8.59027 6.08558C9.97771 5.2656 11.5978 4.76751 13.4528 5.10899L31.8114 7.95611Z" stroke="#0EDD9E" stroke-width="0.914826" stroke-miterlimit="10"/>
</g>
<defs>
<filter id="filter0_f_1_2050" x="0.841863" y="0.841822" width="98.3165" height="73.3169" filterUnits="userSpaceOnUse" color-interpolation-filters="sRGB">
<feFlood flood-opacity="0" result="BackgroundImageFix"/>
<feBlend mode="normal" in="SourceGraphic" in2="BackgroundImageFix" result="shape"/>
<feGaussianBlur stdDeviation="1.85034" result="effect1_foregroundBlur_1_2050"/>
</filter>
</defs>
</svg>
