<svg width="155" height="65" viewBox="0 0 155 65" fill="none" xmlns="http://www.w3.org/2000/svg">
<path d="M78.572 21.1985C78.572 21.1985 91.3326 28.7767 93.4085 29.9743C95.464 31.172 96.7055 32.5348 96.6444 33.4433C96.5833 34.3312 95.7082 35.5289 94.7517 36.1277C93.8155 36.7265 92.167 37.5525 91.5157 38.461C90.8645 39.3489 90.3353 40.0716 90.2743 42.343C90.2132 44.6144 90.2132 46.4108 89.7451 47.7737C89.3584 48.8887 87.9745 51.4698 83.2325 53.1424C78.633 54.753 77.188 54.3813 73.3822 54.2781C69.8614 54.1748 66.3812 52.1925 66.3812 52.1925C66.3812 52.1925 48.2477 41.7442 46.4974 40.7324C44.7268 39.7206 41.8979 39.1837 39.6185 39.7206C37.2577 40.2575 36.6471 40.753 35.3243 41.7442C34.2253 42.5701 32.6175 43.8297 31.0911 44.0156C29.5647 44.2014 27.6516 44.0982 26.1456 43.4167C24.782 42.7973 22.9707 40.8976 22.0956 39.9477C21.2204 38.9979 19.3481 37.7383 16.682 37.6764C14.5043 37.6144 9.72163 38.1513 6.97413 41.4551C5.83443 42.8179 5 43.871 5 46.4934C5 48.4344 6.75026 51.0362 8.43946 51.0568C11.8789 51.1188 11.0445 50.6026 13.6699 50.52C16.9058 50.4167 18.2694 50.7677 20.0807 51.4698C21.892 52.1719 26.8986 53.4108 29.5647 53.4314C33.1059 53.4727 54.4143 53.0185 55.8186 53.0185C59.3191 52.9978 62.1684 53.7412 64.285 54.691C66.4015 55.6409 70.7568 57.7264 72.5275 58.2633C74.2981 58.8002 77.473 60.0597 82.2963 59.9978C87.1197 59.9358 95.7693 59.399 100.654 57.6025C105.538 55.8061 120.904 50.4993 125.259 48.579C129.614 46.6586 138.508 42.2191 140.319 41.0008C141.459 40.2368 142.151 39.8032 142.212 38.7294C142.273 37.6557 140.564 36.4581 139.689 36.0451C138.813 35.6321 138.183 35.3637 137.104 34.4345C135.923 33.4227 135.374 32.2663 135.374 31.0068C135.374 28.6734 136.9 26.9596 138.752 26.8976C139.933 26.8563 143.535 26.9596 144.532 26.7737C145.53 26.5879 146.995 26.051 147.768 24.8121C148.542 23.5732 149.437 21.7354 149.722 21.2811C150.21 20.5171 150.068 20.0835 149.193 19.6705C148.318 19.2575 147.829 18.5968 148.257 17.3372C148.684 16.0776 149.519 12.6293 149.681 11.7207C149.824 10.8741 149.62 9.75906 148.379 9.75906C146.791 9.75906 108.367 8.27234 103.605 8.14845C98.761 8.06586 32.8006 5.4641 25.0466 5.00982C22.6044 4.86528 22.0345 6.352 22.1973 7.11601C22.5026 8.54078 25.9624 10.8741 28.079 12.1337C30.1956 13.3933 30.969 13.6824 33.4926 13.8062C36.0162 13.9301 37.5019 13.2074 38.9062 12.3195C40.3105 11.4316 43.2004 9.75906 46.6195 8.97441C49.0414 8.41689 53.4985 8.52013 55.208 8.78857C57.6299 9.1809 60.0314 10.2133 62.2091 11.4729C64.3867 12.7325 78.572 21.1985 78.572 21.1985Z" stroke="#0EDD9E" stroke-width="0.9" stroke-miterlimit="10"/>
<g filter="url(#filter0_f_1_655)">
<path d="M78.572 21.1985C78.572 21.1985 91.3326 28.7767 93.4085 29.9743C95.464 31.172 96.7055 32.5348 96.6444 33.4433C96.5833 34.3312 95.7082 35.5289 94.7517 36.1277C93.8155 36.7265 92.167 37.5525 91.5157 38.461C90.8645 39.3489 90.3353 40.0716 90.2743 42.343C90.2132 44.6144 90.2132 46.4108 89.7451 47.7737C89.3584 48.8887 87.9745 51.4698 83.2325 53.1424C78.633 54.753 77.188 54.3813 73.3822 54.2781C69.8614 54.1748 66.3812 52.1925 66.3812 52.1925C66.3812 52.1925 48.2477 41.7442 46.4974 40.7324C44.7268 39.7206 41.8979 39.1837 39.6185 39.7206C37.2577 40.2575 36.6471 40.753 35.3243 41.7442C34.2253 42.5701 32.6175 43.8297 31.0911 44.0156C29.5647 44.2014 27.6516 44.0982 26.1456 43.4167C24.782 42.7973 22.9707 40.8976 22.0956 39.9477C21.2204 38.9979 19.3481 37.7383 16.682 37.6764C14.5043 37.6144 9.72163 38.1513 6.97413 41.4551C5.83443 42.8179 5 43.871 5 46.4934C5 48.4344 6.75026 51.0362 8.43946 51.0568C11.8789 51.1188 11.0445 50.6026 13.6699 50.52C16.9058 50.4167 18.2694 50.7677 20.0807 51.4698C21.892 52.1719 26.8986 53.4108 29.5647 53.4314C33.1059 53.4727 54.4143 53.0185 55.8186 53.0185C59.3191 52.9978 62.1684 53.7412 64.285 54.691C66.4015 55.6409 70.7568 57.7264 72.5275 58.2633C74.2981 58.8002 77.473 60.0597 82.2963 59.9978C87.1197 59.9358 95.7693 59.399 100.654 57.6025C105.538 55.8061 120.904 50.4993 125.259 48.579C129.614 46.6586 138.508 42.2191 140.319 41.0008C141.459 40.2368 142.151 39.8032 142.212 38.7294C142.273 37.6557 140.564 36.4581 139.689 36.0451C138.813 35.6321 138.183 35.3637 137.104 34.4345C135.923 33.4227 135.374 32.2663 135.374 31.0068C135.374 28.6734 136.9 26.9596 138.752 26.8976C139.933 26.8563 143.535 26.9596 144.532 26.7737C145.53 26.5879 146.995 26.051 147.768 24.8121C148.542 23.5732 149.437 21.7354 149.722 21.2811C150.21 20.5171 150.068 20.0835 149.193 19.6705C148.318 19.2575 147.829 18.5968 148.257 17.3372C148.684 16.0776 149.519 12.6293 149.681 11.7207C149.824 10.8741 149.62 9.75906 148.379 9.75906C146.791 9.75906 108.367 8.27234 103.605 8.14845C98.761 8.06586 32.8006 5.4641 25.0466 5.00982C22.6044 4.86528 22.0345 6.352 22.1973 7.11601C22.5026 8.54078 25.9624 10.8741 28.079 12.1337C30.1956 13.3933 30.969 13.6824 33.4926 13.8062C36.0162 13.9301 37.5019 13.2074 38.9062 12.3195C40.3105 11.4316 43.2004 9.75906 46.6195 8.97441C49.0414 8.41689 53.4985 8.52013 55.208 8.78857C57.6299 9.1809 60.0314 10.2133 62.2091 11.4729C64.3867 12.7325 78.572 21.1985 78.572 21.1985Z" stroke="#0EDD9E" stroke-width="0.914826" stroke-miterlimit="10"/>
</g>
<defs>
<filter id="filter0_f_1_655" x="0.841924" y="0.841954" width="153.317" height="63.3161" filterUnits="userSpaceOnUse" color-interpolation-filters="sRGB">
<feFlood flood-opacity="0" result="BackgroundImageFix"/>
<feBlend mode="normal" in="SourceGraphic" in2="BackgroundImageFix" result="shape"/>
<feGaussianBlur stdDeviation="1.85034" result="effect1_foregroundBlur_1_655"/>
</filter>
</defs>
</svg>
