<svg width="114" height="111" viewBox="0 0 114 111" fill="none" xmlns="http://www.w3.org/2000/svg">
<path fill-rule="evenodd" clip-rule="evenodd" d="M10.0371 97.577C10.0371 97.577 6.67458 93.4109 5.79176 87.6945C5.79176 87.6945 4.9554 80.5489 5.00187 76.8147C5.00187 76.8147 5.37358 67.1797 6.76751 62.8924C6.76751 62.8924 8.11497 56.6688 10.8564 52.1509L14.5735 46.2039C14.5735 46.2039 15.2543 43.799 17.6162 44.686C17.6162 44.686 20.3351 45.3741 24.6563 45.3741L50.4904 44.8209C50.4904 44.8209 52.349 44.7287 55.6479 43.5301C55.6479 43.5301 57.9247 42.8847 60.6661 42.8847L72.0498 42.3776C72.0498 42.3776 72.9326 42.7464 75.6276 40.9485L78.4154 38.5974C78.4154 38.5974 79.9487 36.4767 79.6235 35.6469C79.6235 35.6469 79.7164 34.4483 79.3447 33.4802L75.8134 26.4729C75.8134 26.4729 75.0235 25.0075 75.2409 23.389C75.2409 23.389 75.2459 22.1099 75.7654 21.6372L91.5184 6.83406C91.5184 6.83406 93.4698 5.03613 94.4921 5.03613C94.4921 5.03613 96.1648 4.62122 96.0254 6.60355C96.0254 6.60355 95.9789 12.9193 96.49 15.3166L97.187 18.4975C97.187 18.4975 97.3729 20.4798 98.9526 20.2032C98.9526 20.2032 100.3 20.1571 100.347 18.4975L100.207 13.703C100.207 13.703 99.6961 11.2597 102.623 11.1675L107.363 10.9831C107.363 10.9831 109.361 10.7065 108.942 13.3342L107.595 19.0507C107.595 19.0507 104.157 30.7603 96.9082 38.7818C96.9082 38.7818 87.1972 46.5727 78.5084 48.4629C78.5084 48.4629 75.6276 49.4771 68.7044 49.7076L52.2541 50.0977C52.2541 50.0977 51.5659 50.9314 51.6055 51.736L51.4412 53.2913C51.4412 53.2913 49.992 53.4451 49.4251 53.4597H45.5153L43.846 52.5658C43.846 52.5658 42.2662 51.1828 40.547 51.5516L30.1855 51.5977L23.0765 51.8743C23.0765 51.8743 19.8704 51.736 18.6624 54.6403C18.6624 54.6403 16.7823 58.2648 15.1849 67.4557L16.2252 68.5229C16.2252 68.5229 16.7901 68.8529 16.8933 70.1787L17.094 80.1819C17.094 80.1819 17.0826 81.6553 14.9452 84.4213C14.9452 84.4213 13.4555 86.3058 14.4313 90.086C14.4313 90.086 15.921 94.5634 20.0098 97.6522C20.0098 97.6522 23.03 100.418 25.028 101.156C25.028 101.156 27.4906 102.078 27.1653 104.383C27.1653 104.383 27.1653 106.089 24.7956 105.996L12.0747 104.613C12.0747 104.613 9.74464 104.656 10.4416 102.397C10.4416 102.397 11.8536 99.65 10.0371 97.577Z" stroke="#0EDD9E" stroke-width="0.9"/>
<g filter="url(#filter0_f_1_287)">
<path fill-rule="evenodd" clip-rule="evenodd" d="M10.0371 97.577C10.0371 97.577 6.67458 93.4109 5.79176 87.6945C5.79176 87.6945 4.9554 80.5489 5.00187 76.8147C5.00187 76.8147 5.37358 67.1797 6.76751 62.8924C6.76751 62.8924 8.11497 56.6688 10.8564 52.1509L14.5735 46.2039C14.5735 46.2039 15.2543 43.799 17.6162 44.686C17.6162 44.686 20.3351 45.3741 24.6563 45.3741L50.4904 44.8209C50.4904 44.8209 52.349 44.7287 55.6479 43.5301C55.6479 43.5301 57.9247 42.8847 60.6661 42.8847L72.0498 42.3776C72.0498 42.3776 72.9326 42.7464 75.6276 40.9485L78.4154 38.5974C78.4154 38.5974 79.9487 36.4767 79.6235 35.6469C79.6235 35.6469 79.7164 34.4483 79.3447 33.4802L75.8134 26.4729C75.8134 26.4729 75.0235 25.0075 75.2409 23.389C75.2409 23.389 75.2459 22.1099 75.7654 21.6372L91.5184 6.83406C91.5184 6.83406 93.4698 5.03613 94.4921 5.03613C94.4921 5.03613 96.1648 4.62122 96.0254 6.60355C96.0254 6.60355 95.9789 12.9193 96.49 15.3166L97.187 18.4975C97.187 18.4975 97.3729 20.4798 98.9526 20.2032C98.9526 20.2032 100.3 20.1571 100.347 18.4975L100.207 13.703C100.207 13.703 99.6961 11.2597 102.623 11.1675L107.363 10.9831C107.363 10.9831 109.361 10.7065 108.942 13.3342L107.595 19.0507C107.595 19.0507 104.157 30.7603 96.9082 38.7818C96.9082 38.7818 87.1972 46.5727 78.5084 48.4629C78.5084 48.4629 75.6276 49.4771 68.7044 49.7076L52.2541 50.0977C52.2541 50.0977 51.5659 50.9314 51.6055 51.736L51.4412 53.2913C51.4412 53.2913 49.992 53.4451 49.4251 53.4597H45.5153L43.846 52.5658C43.846 52.5658 42.2662 51.1828 40.547 51.5516L30.1855 51.5977L23.0765 51.8743C23.0765 51.8743 19.8704 51.736 18.6624 54.6403C18.6624 54.6403 16.7823 58.2648 15.1849 67.4557L16.2252 68.5229C16.2252 68.5229 16.7901 68.8529 16.8933 70.1787L17.094 80.1819C17.094 80.1819 17.0826 81.6553 14.9452 84.4213C14.9452 84.4213 13.4555 86.3058 14.4313 90.086C14.4313 90.086 15.921 94.5634 20.0098 97.6522C20.0098 97.6522 23.03 100.418 25.028 101.156C25.028 101.156 27.4906 102.078 27.1653 104.383C27.1653 104.383 27.1653 106.089 24.7956 105.996L12.0747 104.613C12.0747 104.613 9.74464 104.656 10.4416 102.397C10.4416 102.397 11.8536 99.65 10.0371 97.577Z" stroke="#0EDD9E" stroke-width="0.914826" stroke-miterlimit="10"/>
</g>
<defs>
<filter id="filter0_f_1_287" x="0.841924" y="0.841893" width="112.316" height="109.316" filterUnits="userSpaceOnUse" color-interpolation-filters="sRGB">
<feFlood flood-opacity="0" result="BackgroundImageFix"/>
<feBlend mode="normal" in="SourceGraphic" in2="BackgroundImageFix" result="shape"/>
<feGaussianBlur stdDeviation="1.85034" result="effect1_foregroundBlur_1_287"/>
</filter>
</defs>
</svg>
