<svg width="110" height="60" viewBox="0 0 110 60" fill="none" xmlns="http://www.w3.org/2000/svg">
<path d="M71.0716 54.2245C62.0465 54.4895 53.0658 54.5604 44.0956 54.6796C42.241 54.7045 44.1319 52.0718 42.1407 52.8821C39.4019 53.9965 36.7607 54.9679 33.7889 54.9907C31.0005 55.012 27.0491 55.0488 25.2276 54.4336C23.2537 53.767 21.2268 52.1995 20.4857 51.5848C19.1355 50.4648 17.8333 48.7445 16.8691 46.3656C15.7555 43.618 14.8541 39.0621 14.1929 35.0235C13.8339 32.8302 12.8809 27.6155 12.6342 25.643C12.406 23.8179 10.8698 24.9601 10.4199 23.693C8.54883 18.4242 6.14988 14.4129 5.97077 13.6908C5.05682 11.7824 4.80338 10.5581 5.14656 9.20421C5.33568 8.45817 6.73945 7.22359 7.53847 7.06734C11.1691 6.35738 14.4357 5.63077 18.1855 5.00886C18.7264 4.91916 19.3512 5.53072 19.658 5.93864C21.4924 8.37772 26.578 16.3554 29.6083 19.8334C32.5963 23.2629 35.7771 25.9187 39.4858 29.4075C43.0739 32.7828 46.8455 36.3984 50.417 39.5423C51.3523 40.3656 53.0025 39.2977 54.7219 39.4369C55.1105 39.4684 56.3227 39.7991 57.0832 40.4958C57.4634 40.8441 57.8875 41.4739 58.5249 41.7101C59.1624 41.9464 61.2138 42.0054 61.4934 42.0037C75.0369 41.9212 87.2766 41.9311 100.858 42.0226C103.615 42.0176 104.843 43.3175 105 45.8605C104.978 46.7768 104.886 47.7856 104.163 48.7504C103.204 50.0304 101.557 51.4083 100.137 52.0138C97.5564 53.1148 94.9142 53.192 92.279 53.5014C85.4884 54.2988 78.0375 54.0199 71.0716 54.2245Z" stroke="#0EDD9E" stroke-width="0.9" stroke-linejoin="round"/>
<g filter="url(#filter0_f_2_2466)">
<path d="M71.0716 54.2245C62.0465 54.4895 53.0658 54.5604 44.0956 54.6796C42.241 54.7045 44.1319 52.0718 42.1407 52.8821C39.4019 53.9965 36.7607 54.9679 33.7889 54.9907C31.0005 55.012 27.0491 55.0488 25.2276 54.4336C23.2537 53.767 21.2268 52.1995 20.4857 51.5848C19.1355 50.4648 17.8333 48.7445 16.8691 46.3656C15.7555 43.618 14.8541 39.0621 14.1929 35.0235C13.8339 32.8302 12.8809 27.6155 12.6342 25.643C12.406 23.8179 10.8698 24.9601 10.4199 23.693C8.54883 18.4242 6.14988 14.4129 5.97077 13.6908C5.05682 11.7824 4.80338 10.5581 5.14656 9.20421C5.33568 8.45817 6.73945 7.22359 7.53847 7.06734C11.1691 6.35738 14.4357 5.63077 18.1855 5.00886C18.7264 4.91916 19.3512 5.53072 19.658 5.93864C21.4924 8.37772 26.578 16.3554 29.6083 19.8334C32.5963 23.2629 35.7771 25.9187 39.4858 29.4075C43.0739 32.7828 46.8455 36.3984 50.417 39.5423C51.3523 40.3656 53.0025 39.2977 54.7219 39.4369C55.1105 39.4684 56.3227 39.7991 57.0832 40.4958C57.4634 40.8441 57.8875 41.4739 58.5249 41.7101C59.1624 41.9464 61.2138 42.0054 61.4934 42.0037C75.0369 41.9212 87.2766 41.9311 100.858 42.0226C103.615 42.0176 104.843 43.3175 105 45.8605C104.978 46.7768 104.886 47.7856 104.163 48.7504C103.204 50.0304 101.557 51.4083 100.137 52.0138C97.5564 53.1148 94.9142 53.192 92.279 53.5014C85.4884 54.2988 78.0375 54.0199 71.0716 54.2245Z" stroke="#0EDD9E" stroke-width="0.914826" stroke-miterlimit="10"/>
</g>
<defs>
<filter id="filter0_f_2_2466" x="0.841863" y="0.841771" width="108.317" height="58.3163" filterUnits="userSpaceOnUse" color-interpolation-filters="sRGB">
<feFlood flood-opacity="0" result="BackgroundImageFix"/>
<feBlend mode="normal" in="SourceGraphic" in2="BackgroundImageFix" result="shape"/>
<feGaussianBlur stdDeviation="1.85034" result="effect1_foregroundBlur_2_2466"/>
</filter>
</defs>
</svg>
