<svg width="109" height="94" viewBox="0 0 109 94" fill="none" xmlns="http://www.w3.org/2000/svg">
<path d="M31.9733 7.08844C32.7282 5.21915 35.8728 4.6509 37.365 5.1994C39.0634 5.82469 40.4327 8.34121 40.0026 10.0986C39.6252 11.641 36.7681 18.0541 35.7169 20.5925C32.2103 29.057 35.3549 32.6727 32.5153 36.4332C31.4949 37.7847 26.3468 38.9387 22.895 40.2266C21.2887 40.8256 19.8469 42.8155 20.536 44.8209C21.6069 47.9407 24.769 47.3834 26.3951 46.8657C34.2796 44.3645 37.9816 42.7058 41.9337 42.4733C47.7511 42.1332 50.8321 43.6405 57.0071 44.913C61.137 45.7665 65.4973 44.6409 68.3347 42.6576C68.6968 42.4053 73.0022 39.6408 74.1762 39.0879C76.1424 38.1643 78.8174 37.1616 81.4705 37.2472C85.6464 37.3832 89.208 37.5083 93.1996 37.7057C95.5674 37.8242 99.4691 38.4912 101.951 42.074C103.779 44.7112 105.245 49.1672 102.412 53.5969C98.7712 59.2903 97.042 60.0011 91.5275 71.3661C90.2898 73.9155 86.8929 74.5342 80.4808 72.9479C76.3772 71.9321 70.3382 68.097 70.3953 65.1856C70.3075 64.9223 70.4435 62.5221 75.1966 60.7866C77.0641 60.1043 80.7639 60.2798 86.2148 58.0814C90.235 56.4622 90.5597 53.9347 90.2218 52.1598C89.6447 49.1255 87.2506 48.2567 83.3291 47.8859C77.8541 47.3681 75.7562 47.322 70.4304 47.7411C54.5055 48.9917 44.3783 53.9633 36.7593 57.998C35.3966 58.722 34.927 57.4912 34.1567 56.1529C32.9059 53.9852 31.5366 53.5442 29.6604 54.1322C27.7073 54.7443 26.9722 56.2713 27.4506 59.2398C28.8353 67.8228 29.8293 72.8843 31.1833 79.8766C32.5372 86.8579 28.6246 88.7404 25.8355 88.8808C13.944 89.4775 11.4753 87.8584 7.57798 83.4704C5.13121 80.7147 3.71143 75.8901 6.63877 68.7728C15.1553 48.0702 21.7429 32.2383 30.0751 11.5445L31.9733 7.08844Z" stroke="#0EDD9E" stroke-width="0.9" stroke-miterlimit="10"/>
<g filter="url(#filter0_f_1_1295)">
<path d="M31.9733 7.08844C32.7282 5.21915 35.8728 4.6509 37.365 5.1994C39.0634 5.82469 40.4327 8.34121 40.0026 10.0986C39.6252 11.641 36.7681 18.0541 35.7169 20.5925C32.2103 29.057 35.3549 32.6727 32.5153 36.4332C31.4949 37.7847 26.3468 38.9387 22.895 40.2266C21.2887 40.8256 19.8469 42.8155 20.536 44.8209C21.6069 47.9407 24.769 47.3834 26.3951 46.8657C34.2796 44.3645 37.9816 42.7058 41.9337 42.4733C47.7511 42.1332 50.8321 43.6405 57.0071 44.913C61.137 45.7665 65.4973 44.6409 68.3347 42.6576C68.6968 42.4053 73.0022 39.6408 74.1762 39.0879C76.1424 38.1643 78.8174 37.1616 81.4705 37.2472C85.6464 37.3832 89.208 37.5083 93.1996 37.7057C95.5674 37.8242 99.4691 38.4912 101.951 42.074C103.779 44.7112 105.245 49.1672 102.412 53.5969C98.7712 59.2903 97.042 60.0011 91.5275 71.3661C90.2898 73.9155 86.8929 74.5342 80.4808 72.9479C76.3772 71.9321 70.3382 68.097 70.3953 65.1856C70.3075 64.9223 70.4435 62.5221 75.1966 60.7866C77.0641 60.1043 80.7639 60.2798 86.2148 58.0814C90.235 56.4622 90.5597 53.9347 90.2218 52.1598C89.6447 49.1255 87.2506 48.2567 83.3291 47.8859C77.8541 47.3681 75.7562 47.322 70.4304 47.7411C54.5055 48.9917 44.3783 53.9633 36.7593 57.998C35.3966 58.722 34.927 57.4912 34.1567 56.1529C32.9059 53.9852 31.5366 53.5442 29.6604 54.1322C27.7073 54.7443 26.9722 56.2713 27.4506 59.2398C28.8353 67.8228 29.8293 72.8843 31.1833 79.8766C32.5372 86.8579 28.6246 88.7404 25.8355 88.8808C13.944 89.4775 11.4753 87.8584 7.57798 83.4704C5.13121 80.7147 3.71143 75.8901 6.63877 68.7728C15.1553 48.0702 21.7429 32.2383 30.0751 11.5445L31.9733 7.08844Z" stroke="#0EDD9E" stroke-width="0.914826" stroke-miterlimit="10"/>
</g>
<defs>
<filter id="filter0_f_1_1295" x="0.842229" y="0.841893" width="107.317" height="92.3163" filterUnits="userSpaceOnUse" color-interpolation-filters="sRGB">
<feFlood flood-opacity="0" result="BackgroundImageFix"/>
<feBlend mode="normal" in="SourceGraphic" in2="BackgroundImageFix" result="shape"/>
<feGaussianBlur stdDeviation="1.85034" result="effect1_foregroundBlur_1_1295"/>
</filter>
</defs>
</svg>
