<svg width="77" height="58" viewBox="0 0 77 58" fill="none" xmlns="http://www.w3.org/2000/svg">
<path fill-rule="evenodd" clip-rule="evenodd" d="M36.3366 52.9987C28.6309 53.0169 21.2223 52.8356 13.9101 52.8148C9.59385 52.8025 9.08102 48.0612 11.4669 46.777C14.1473 45.3342 16.6684 44.1093 19.285 42.5957C21.25 41.4591 21.405 38.3496 18.9817 37.1266C16.4177 35.8325 14.8333 34.9881 12.3599 33.5976C11.7565 33.2584 10.9601 32.3596 10.7255 31.7077C8.72743 26.1551 7.07414 21.0596 5.18208 15.4341C4.60535 13.7194 5.41863 12.1393 7.3388 11.487C8.81666 10.9849 9.47342 10.7411 11.0625 10.2326C12.4867 9.77693 14.2913 10.9637 14.8873 12.4905C16.1336 15.6831 17.0204 18.8542 18.055 22.0071C18.2911 22.7266 19.287 23.6255 19.8916 23.6127C20.3703 23.6025 21.2879 23.1755 21.3744 22.5925C22.1291 17.5039 22.8648 12.418 23.5142 7.33917C23.6466 6.30431 24.7307 5.4877 25.4856 5.16491C26.191 4.86329 27.2381 5.00886 27.9119 5.33216C28.586 5.65557 29.2419 6.35905 29.5295 7.10502C29.9383 8.16536 29.908 9.38235 30.3382 10.45C30.8965 11.8354 31.5735 13.2629 32.6129 14.3637C33.3272 15.1203 34.5795 15.9155 35.3735 16.8308C35.8579 17.3892 36.8319 18.4242 36.4546 19.7158C36.0087 21.2421 34.9533 24.2391 34.281 27.4093C34.1137 28.1981 34.5751 29.2095 35.1909 29.617C35.9231 30.1015 37.3205 30.0723 38.2575 29.801C40.0164 29.2918 41.8248 28.6118 43.4134 27.5766C44.7678 26.6939 45.8937 25.5873 46.9855 24.3988C47.8267 23.483 48.5757 22.4253 49.1085 21.2879C50.665 17.9652 51.9035 14.5527 53.2871 11.119C53.7008 10.0926 54.4122 8.78826 55.3091 8.25905C55.8532 7.93797 56.9202 7.45915 57.5332 7.45625C60.0221 7.44447 61.4151 7.42753 63.936 7.47297C64.5856 7.48476 65.775 8.20971 66.0758 8.77753C67.4077 11.2916 68.5748 13.2979 69.9849 15.7017C70.3651 16.3499 70.3995 17.8321 69.7996 18.5283C66.81 21.997 64.6052 24.718 61.5096 28.1452C60.6269 29.1225 60.07 30.864 60.7683 31.9251C64.3685 37.3957 67.341 42.5106 71.4508 48.0648C72.8305 49.9295 71.4442 52.7189 69.1424 52.7311C58.0218 52.79 47.5921 52.9723 36.3366 52.9987Z" stroke="#0EDD9E" stroke-width="0.9" stroke-linejoin="round"/>
<g filter="url(#filter0_f_1_1591)">
<path fill-rule="evenodd" clip-rule="evenodd" d="M36.3366 52.9987C28.6309 53.0169 21.2223 52.8356 13.9101 52.8148C9.59385 52.8025 9.08102 48.0612 11.4669 46.777C14.1473 45.3342 16.6684 44.1093 19.285 42.5957C21.25 41.4591 21.405 38.3496 18.9817 37.1266C16.4177 35.8325 14.8333 34.9881 12.3599 33.5976C11.7565 33.2584 10.9601 32.3596 10.7255 31.7077C8.72743 26.1551 7.07414 21.0596 5.18208 15.4341C4.60535 13.7194 5.41863 12.1393 7.3388 11.487C8.81666 10.9849 9.47342 10.7411 11.0625 10.2326C12.4867 9.77693 14.2913 10.9637 14.8873 12.4905C16.1336 15.6831 17.0204 18.8542 18.055 22.0071C18.2911 22.7266 19.287 23.6255 19.8916 23.6127C20.3703 23.6025 21.2879 23.1755 21.3744 22.5925C22.1291 17.5039 22.8648 12.418 23.5142 7.33917C23.6466 6.30431 24.7307 5.4877 25.4856 5.16491C26.191 4.86329 27.2381 5.00886 27.9119 5.33216C28.586 5.65557 29.2419 6.35905 29.5295 7.10502C29.9383 8.16536 29.908 9.38235 30.3382 10.45C30.8965 11.8354 31.5735 13.2629 32.6129 14.3637C33.3272 15.1203 34.5795 15.9155 35.3735 16.8308C35.8579 17.3892 36.8319 18.4242 36.4546 19.7158C36.0087 21.2421 34.9533 24.2391 34.281 27.4093C34.1137 28.1981 34.5751 29.2095 35.1909 29.617C35.9231 30.1015 37.3205 30.0723 38.2575 29.801C40.0164 29.2918 41.8248 28.6118 43.4134 27.5766C44.7678 26.6939 45.8937 25.5873 46.9855 24.3988C47.8267 23.483 48.5757 22.4253 49.1085 21.2879C50.665 17.9652 51.9035 14.5527 53.2871 11.119C53.7008 10.0926 54.4122 8.78826 55.3091 8.25905C55.8532 7.93797 56.9202 7.45915 57.5332 7.45625C60.0221 7.44447 61.4151 7.42753 63.936 7.47297C64.5856 7.48476 65.775 8.20971 66.0758 8.77753C67.4077 11.2916 68.5748 13.2979 69.9849 15.7017C70.3651 16.3499 70.3995 17.8321 69.7996 18.5283C66.81 21.997 64.6052 24.718 61.5096 28.1452C60.6269 29.1225 60.07 30.864 60.7683 31.9251C64.3685 37.3957 67.341 42.5106 71.4508 48.0648C72.8305 49.9295 71.4442 52.7189 69.1424 52.7311C58.0218 52.79 47.5921 52.9723 36.3366 52.9987Z" stroke="#0EDD9E" stroke-width="0.914826" stroke-miterlimit="10"/>
</g>
<defs>
<filter id="filter0_f_1_1591" x="0.841924" y="0.841924" width="75.3165" height="56.3162" filterUnits="userSpaceOnUse" color-interpolation-filters="sRGB">
<feFlood flood-opacity="0" result="BackgroundImageFix"/>
<feBlend mode="normal" in="SourceGraphic" in2="BackgroundImageFix" result="shape"/>
<feGaussianBlur stdDeviation="1.85034" result="effect1_foregroundBlur_1_1591"/>
</filter>
</defs>
</svg>
