<svg width="150" height="86" viewBox="0 0 150 86" fill="none" xmlns="http://www.w3.org/2000/svg">
<path d="M67.8341 57.3721C69.7937 55.8962 69.7151 52.9654 71.4737 51.2035C72.9357 49.7394 75.0665 47.8058 77.0362 47.076C78.5912 46.1512 80.175 45.2631 81.8543 44.5867C84.9148 43.3546 88.2119 42.8522 91.412 42.0608C91.6998 41.9934 91.9665 41.8563 92.1887 41.6615C92.4108 41.4667 92.5815 41.2203 92.6856 40.9441C93.1596 39.6007 91.3316 39.6468 91.5265 38.6031C91.5714 38.3884 91.6905 38.1963 91.863 38.0604C98.707 32.4392 105.585 26.851 112.556 21.4079C118.713 16.605 124.908 11.754 131.497 7.53564C132.416 6.94617 136.845 3.55848 138.085 4.63416C140.958 7.12382 136.569 20.6814 131.888 25.2086C127.206 29.7358 120.758 37.9638 106.867 36.172C106.867 36.172 101.785 34.5855 98.5183 36.7537C96.8525 37.86 95.1537 40.6575 94.1902 42.4327C93.9222 42.9241 93.5488 43.3503 93.0966 43.6808C92.6444 44.0113 92.1247 44.238 91.5748 44.3445L90.4922 44.5578C89.4902 44.7598 88.4766 44.9305 87.4777 45.15C86.9104 45.2756 86.3544 45.4275 85.8003 45.6023C83.4145 46.3171 80.7297 47.2086 78.8587 48.919C76.4973 51.0769 73.7677 55.2802 69.553 58.7982C69.104 59.1717 68.5872 59.4551 68.0308 59.633L62.2464 61.5004C61.4094 61.7716 60.625 62.1842 59.9274 62.7202C58.549 63.7827 56.1954 65.6414 55.0499 66.8156C53.37 68.5381 50.181 70.989 47.7436 71.5824C44.9181 72.2773 41.9397 71.8916 39.9606 69.5616C39.8051 69.3403 39.602 69.1565 39.3661 69.0237C39.1329 68.9424 38.884 68.9159 38.6387 68.9463L32.0701 69.2646C30.144 69.3571 28.2179 69.4497 26.2951 69.6104C25.1814 69.7032 24.0555 69.8225 23.01 70.2184C18.1259 72.067 16.9477 78.8095 11.2249 78.8296C11.2249 78.8296 10.2663 78.8328 8.79931 77.6975C6.18259 75.6698 9.50927 72.8903 11.2763 72.0663C20.4986 67.7929 30.1294 63.8622 40.274 63.2496C40.896 63.212 41.5468 63.1926 42.1107 63.4558C42.7235 63.7365 43.1448 64.32 43.6339 64.7886C45.5964 66.6661 48.8168 66.7303 51.2528 65.5197C53.6888 64.3091 55.4615 62.0817 56.8452 59.7429C57.1413 59.2422 57.4396 58.7154 57.9177 58.3808C58.4926 57.9782 59.2336 57.9186 59.9344 57.8739C62.5672 57.7023 65.7507 58.9852 67.8314 57.3646" stroke="#0EDD9E" stroke-width="0.914826" stroke-miterlimit="10"/>
<g filter="url(#filter0_f_2_2274)">
<path d="M67.8341 57.3721C69.7937 55.8962 69.7151 52.9654 71.4737 51.2035C72.9357 49.7394 75.0665 47.8058 77.0362 47.076C78.5912 46.1512 80.175 45.2631 81.8543 44.5867C84.9148 43.3546 88.2119 42.8522 91.412 42.0608C91.6998 41.9934 91.9665 41.8563 92.1887 41.6615C92.4108 41.4667 92.5815 41.2203 92.6856 40.9441C93.1596 39.6007 91.3316 39.6468 91.5265 38.6031C91.5714 38.3884 91.6905 38.1963 91.863 38.0604C98.707 32.4392 105.585 26.851 112.556 21.4079C118.713 16.605 124.908 11.754 131.497 7.53564C132.416 6.94617 136.845 3.55848 138.085 4.63416C140.958 7.12382 136.569 20.6814 131.888 25.2086C127.206 29.7358 120.758 37.9638 106.867 36.172C106.867 36.172 101.785 34.5855 98.5183 36.7537C96.8525 37.86 95.1537 40.6575 94.1902 42.4327C93.9222 42.9241 93.5488 43.3503 93.0966 43.6808C92.6444 44.0113 92.1247 44.238 91.5748 44.3445L90.4922 44.5578C89.4902 44.7598 88.4766 44.9305 87.4777 45.15C86.9104 45.2756 86.3544 45.4275 85.8003 45.6023C83.4145 46.3171 80.7297 47.2086 78.8587 48.919C76.4973 51.0769 73.7677 55.2802 69.553 58.7982C69.104 59.1717 68.5872 59.4551 68.0308 59.633L62.2464 61.5004C61.4094 61.7716 60.625 62.1842 59.9274 62.7202C58.549 63.7827 56.1954 65.6414 55.0499 66.8156C53.37 68.5381 50.181 70.989 47.7436 71.5824C44.9181 72.2773 41.9397 71.8916 39.9606 69.5616C39.8051 69.3403 39.602 69.1565 39.3661 69.0237C39.1329 68.9424 38.884 68.9159 38.6387 68.9463L32.0701 69.2646C30.144 69.3571 28.2179 69.4497 26.2951 69.6104C25.1814 69.7032 24.0555 69.8225 23.01 70.2184C18.1259 72.067 16.9477 78.8095 11.2249 78.8296C11.2249 78.8296 10.2663 78.8328 8.79931 77.6975C6.18259 75.6698 9.50927 72.8903 11.2763 72.0663C20.4986 67.7929 30.1294 63.8622 40.274 63.2496C40.896 63.212 41.5468 63.1926 42.1107 63.4558C42.7235 63.7365 43.1448 64.32 43.6339 64.7886C45.5964 66.6661 48.8168 66.7303 51.2528 65.5197C53.6888 64.3091 55.4615 62.0817 56.8452 59.7429C57.1413 59.2422 57.4396 58.7154 57.9177 58.3808C58.4926 57.9782 59.2336 57.9186 59.9344 57.8739C62.5672 57.7023 65.7507 58.9852 67.8314 57.3646" stroke="#0EDD9E" stroke-width="0.914826" stroke-miterlimit="10"/>
</g>
<defs>
<filter id="filter0_f_2_2274" x="3.67341" y="0.266607" width="139.486" height="82.7211" filterUnits="userSpaceOnUse" color-interpolation-filters="sRGB">
<feFlood flood-opacity="0" result="BackgroundImageFix"/>
<feBlend mode="normal" in="SourceGraphic" in2="BackgroundImageFix" result="shape"/>
<feGaussianBlur stdDeviation="1.85034" result="effect1_foregroundBlur_2_2274"/>
</filter>
</defs>
</svg>
