<svg width="104" height="66" viewBox="0 0 104 66" fill="none" xmlns="http://www.w3.org/2000/svg">
<path d="M98.8577 41.6562L97.6265 25.9977C97.6265 25.9977 96.7608 16.0904 96.2059 9.95719C96.0794 8.55792 93.4467 9.4017 92.0321 8.74873C89.9671 7.79556 89.7018 5.11053 88.3175 5.00387C86.9333 4.89721 86.7557 7.01609 86.3585 8.89061C85.9265 10.9291 85.9018 13.0659 86.4282 14.4707C88.5736 20.1971 89.2058 24.1864 89.2058 24.1864C89.2058 24.1864 89.2892 27.4012 89.1376 28.9863C88.986 30.5715 87.193 30.7972 86.5209 31.0301C85.8487 31.263 67.8752 29.0976 59.3028 28.0307C56.8107 27.7205 46.6991 19.8482 39.2594 15.169C38.7443 14.845 37.2753 17.1157 35.2701 19.3676C34.4523 20.286 33.5343 21.5045 32.7618 22.817C31.9893 24.1296 31.3622 25.5362 30.8582 25.7508C29.5634 26.3019 29.1933 24.7159 27.0003 21.8757C26.0699 20.6706 23.5563 18.3496 21.7663 17.4045C20.9665 16.9822 18.5396 19.8379 18.5396 19.8379C18.5396 19.8379 10.0853 33.6881 5.08642 40.9367C4.4383 41.8765 7.64827 44.3624 7.64827 44.3624C7.64827 44.3624 8.74333 45.3971 9.60604 45.7885C10.4114 46.154 10.8697 46.3642 11.3567 46.2835C12.1844 46.1464 11.2696 50.2155 12.0927 51.9923C12.6618 53.2206 15.8706 55.4464 17.8853 57.6986C19.0284 58.7577 18.9465 60.7835 20.6853 60.9989C21.2059 61.0588 21.7341 58.7313 22.4048 55.5565C23.0755 52.3817 24.0897 48.4947 24.7118 45.3006C25.1744 42.9252 25.7264 41.0326 27.0887 37.9484C28.4509 34.8641 30.7716 28.6009 31.4819 28.3123C32.1923 28.0238 35.4216 31.5056 38.7793 34.4132C42.1371 37.3209 41.778 36.9459 42.6419 37.8235C43.5058 38.701 46.613 39.6769 48.1688 39.7296C50.0366 39.7929 50.3495 39.953 50.3238 40.3195C50.2981 40.686 50.5459 41.3837 50.1974 42.935C49.8674 44.4036 51.1183 45.6185 51.3818 46.0135C51.6454 46.4085 53.3903 46.6518 56.5243 46.9327C58.8973 47.1455 63.6799 47.7362 64.151 47.6646C64.6221 47.593 64.9865 46.1337 65.2933 44.9031C65.6037 43.6583 65.9649 42.5052 66.401 42.1268C66.8371 41.7484 67.9423 42.2237 70.8272 42.4275C73.9876 42.6507 75.0879 42.9867 75.4699 43.0932C75.8519 43.1996 75.4333 44.6183 75.455 45.8079C75.4767 46.9974 76.1629 47.528 76.6753 47.8903C77.1877 48.2525 79.4908 48.4271 83.6316 48.9293C85.9485 49.2103 88.9185 49.6045 91.1231 49.878C93.3731 50.1571 94.6233 50.2485 95.102 50.0352C95.5806 49.8218 96.2497 48.9787 96.931 47.9855C97.5409 47.0965 98.6897 45.8606 98.9132 45.0703C99.1368 44.2799 98.8577 41.6562 98.8577 41.6562Z" stroke="#0EDD9E" stroke-width="0.9"/>
<g filter="url(#filter0_f_1_1512)">
<path d="M98.8577 41.6562L97.6265 25.9977C97.6265 25.9977 96.7608 16.0904 96.2059 9.95719C96.0794 8.55792 93.4467 9.4017 92.0321 8.74873C89.9671 7.79556 89.7018 5.11053 88.3175 5.00387C86.9333 4.89721 86.7557 7.01609 86.3585 8.89061C85.9265 10.9291 85.9018 13.0659 86.4282 14.4707C88.5736 20.1971 89.2058 24.1864 89.2058 24.1864C89.2058 24.1864 89.2892 27.4012 89.1376 28.9863C88.986 30.5715 87.193 30.7972 86.5209 31.0301C85.8487 31.263 67.8752 29.0976 59.3028 28.0307C56.8107 27.7205 46.6991 19.8482 39.2594 15.169C38.7443 14.845 37.2753 17.1157 35.2701 19.3676C34.4523 20.286 33.5343 21.5045 32.7618 22.817C31.9893 24.1296 31.3622 25.5362 30.8582 25.7508C29.5634 26.3019 29.1933 24.7159 27.0003 21.8757C26.0699 20.6706 23.5563 18.3496 21.7663 17.4045C20.9665 16.9822 18.5396 19.8379 18.5396 19.8379C18.5396 19.8379 10.0853 33.6881 5.08642 40.9367C4.4383 41.8765 7.64827 44.3624 7.64827 44.3624C7.64827 44.3624 8.74333 45.3971 9.60604 45.7885C10.4114 46.154 10.8697 46.3642 11.3567 46.2835C12.1844 46.1464 11.2696 50.2155 12.0927 51.9923C12.6618 53.2206 15.8706 55.4464 17.8853 57.6986C19.0284 58.7577 18.9465 60.7835 20.6853 60.9989C21.2059 61.0588 21.7341 58.7313 22.4048 55.5565C23.0755 52.3817 24.0897 48.4947 24.7118 45.3006C25.1744 42.9252 25.7264 41.0326 27.0887 37.9484C28.4509 34.8641 30.7716 28.6009 31.4819 28.3123C32.1923 28.0238 35.4216 31.5056 38.7793 34.4132C42.1371 37.3209 41.778 36.9459 42.6419 37.8235C43.5058 38.701 46.613 39.6769 48.1688 39.7296C50.0366 39.7929 50.3495 39.953 50.3238 40.3195C50.2981 40.686 50.5459 41.3837 50.1974 42.935C49.8674 44.4036 51.1183 45.6185 51.3818 46.0135C51.6454 46.4085 53.3903 46.6518 56.5243 46.9327C58.8973 47.1455 63.6799 47.7362 64.151 47.6646C64.6221 47.593 64.9865 46.1337 65.2933 44.9031C65.6037 43.6583 65.9649 42.5052 66.401 42.1268C66.8371 41.7484 67.9423 42.2237 70.8272 42.4275C73.9876 42.6507 75.0879 42.9867 75.4699 43.0932C75.8519 43.1996 75.4333 44.6183 75.455 45.8079C75.4767 46.9974 76.1629 47.528 76.6753 47.8903C77.1877 48.2525 79.4908 48.4271 83.6316 48.9293C85.9485 49.2103 88.9185 49.6045 91.1231 49.878C93.3731 50.1571 94.6233 50.2485 95.102 50.0352C95.5806 49.8218 96.2497 48.9787 96.931 47.9855C97.5409 47.0965 98.6897 45.8606 98.9132 45.0703C99.1368 44.2799 98.8577 41.6562 98.8577 41.6562Z" stroke="#0EDD9E" stroke-width="0.914826" stroke-miterlimit="10"/>
</g>
<defs>
<filter id="filter0_f_1_1512" x="0.841985" y="0.841924" width="102.316" height="64.3163" filterUnits="userSpaceOnUse" color-interpolation-filters="sRGB">
<feFlood flood-opacity="0" result="BackgroundImageFix"/>
<feBlend mode="normal" in="SourceGraphic" in2="BackgroundImageFix" result="shape"/>
<feGaussianBlur stdDeviation="1.85034" result="effect1_foregroundBlur_1_1512"/>
</filter>
</defs>
</svg>
