<svg width="143" height="50" viewBox="0 0 143 50" fill="none" xmlns="http://www.w3.org/2000/svg">
<path fill-rule="evenodd" clip-rule="evenodd" d="M138 28.9231C138.013 27.9915 136.816 27.1391 135.843 27.1025C134.346 27.0904 133.564 26.689 133.683 25.4591C134.033 21.8435 134.533 18.2819 134.753 14.654C134.857 12.9331 132.785 12.4489 131.442 11.9132C127.662 10.4051 124.31 9.36706 120.241 7.86621C119.266 7.50685 118.128 7.2074 117.158 7.4014C115.997 7.63348 114.628 8.40684 113.887 9.30879C113.068 10.3048 112.455 11.7056 112.234 13.0543C112.074 14.0297 112.465 15.3191 112.906 16.1167C113.926 17.9583 115.705 18.6423 117.5 19.2542C119.14 19.8133 119.977 20.0829 120.355 21.1135C121.474 24.1661 122.347 27.1235 123.566 30.6131C124.3 32.7145 122.109 34.0181 120.373 32.992C107.214 25.2138 95.2904 17.7217 82.1016 9.49307C80.3566 8.40439 78.4045 7.44107 76.3921 7.16899C75.1448 7.00034 73.5798 7.05524 72.4555 7.35448C71.1057 7.71373 69.483 8.61588 68.5661 9.76072C64.1161 15.317 61.8236 19.5004 57.8485 25.4857C56.9588 26.8255 56.4408 28.5419 56.6374 30.0611C57.1358 33.9119 55.5581 36.6523 53.0213 36.801C48.8363 37.0463 46.0801 36.6925 42.2092 36.5744C39.6374 36.4959 37.1606 35.4665 34.8676 34.2233C30.4063 31.8047 26.4253 29.431 22.2733 26.6431C21.1777 25.9074 20.2207 24.7237 19.963 23.5878C19.7639 22.7095 20.2479 21.2052 20.9031 20.5183C21.504 19.8883 22.4749 19.5724 23.4083 19.5958C30.0889 19.763 35.9182 19.6795 42.772 19.3704C44.1967 19.3061 46.2064 18.2167 47.26 17.2717C48.4521 16.2024 49.4143 15.1752 50.0744 13.6976C50.5562 12.6188 50.9222 11.2448 50.7664 10.0952C50.6177 8.99818 49.8628 7.45217 49.2012 6.71122C48.4169 5.83277 47.2508 5.09344 46.0178 5.07733C37.5052 4.9661 29.3063 4.94927 20.857 5.20057C18.7649 5.2625 15.851 6.18144 13.9975 7.142C11.7402 8.31184 9.83282 9.61605 8.12082 11.4685C6.82584 12.8698 5.88668 14.8511 5.38027 16.6977C4.97316 18.1823 4.89379 19.9133 5.13804 21.4621C5.38861 23.0508 5.98596 24.2158 6.78399 25.5761C7.50848 26.8111 8.5984 28.1092 9.8671 28.7547C12.557 30.1234 15.6439 31.0199 18.4174 32.3172C21.9697 33.9786 22.8875 35.9763 22.8443 39.8223C22.8181 42.1548 23.3549 44.6328 27.7614 44.7439C49.8237 45.3001 71.6723 44.7696 93.7489 44.819C106.234 44.847 116.619 44.9033 128.861 44.8942C132.137 44.8917 134.579 42.7881 135.757 41.3869C136.825 40.1154 137.616 37.9912 137.698 36.2598C137.818 33.7197 137.913 31.2857 138 28.9231Z" stroke="#0EDD9E" stroke-width="0.9" stroke-linejoin="round"/>
<g filter="url(#filter0_f_1_399)">
<path fill-rule="evenodd" clip-rule="evenodd" d="M138 28.9231C138.013 27.9915 136.816 27.1391 135.843 27.1025C134.346 27.0904 133.564 26.689 133.683 25.4591C134.033 21.8435 134.533 18.2819 134.753 14.654C134.857 12.9331 132.785 12.4489 131.442 11.9132C127.662 10.4051 124.31 9.36706 120.241 7.86621C119.266 7.50685 118.128 7.2074 117.158 7.4014C115.997 7.63348 114.628 8.40684 113.887 9.30879C113.068 10.3048 112.455 11.7056 112.234 13.0543C112.074 14.0297 112.465 15.3191 112.906 16.1167C113.926 17.9583 115.705 18.6423 117.5 19.2542C119.14 19.8133 119.977 20.0829 120.355 21.1135C121.474 24.1661 122.347 27.1235 123.566 30.6131C124.3 32.7145 122.109 34.0181 120.373 32.992C107.214 25.2138 95.2904 17.7217 82.1016 9.49307C80.3566 8.40439 78.4045 7.44107 76.3921 7.16899C75.1448 7.00034 73.5798 7.05524 72.4555 7.35448C71.1057 7.71373 69.483 8.61588 68.5661 9.76072C64.1161 15.317 61.8236 19.5004 57.8485 25.4857C56.9588 26.8255 56.4408 28.5419 56.6374 30.0611C57.1358 33.9119 55.5581 36.6523 53.0213 36.801C48.8363 37.0463 46.0801 36.6925 42.2092 36.5744C39.6374 36.4959 37.1606 35.4665 34.8676 34.2233C30.4063 31.8047 26.4253 29.431 22.2733 26.6431C21.1777 25.9074 20.2207 24.7237 19.963 23.5878C19.7639 22.7095 20.2479 21.2052 20.9031 20.5183C21.504 19.8883 22.4749 19.5724 23.4083 19.5958C30.0889 19.763 35.9182 19.6795 42.772 19.3704C44.1967 19.3061 46.2064 18.2167 47.26 17.2717C48.4521 16.2024 49.4143 15.1752 50.0744 13.6976C50.5562 12.6188 50.9222 11.2448 50.7664 10.0952C50.6177 8.99818 49.8628 7.45217 49.2012 6.71122C48.4169 5.83277 47.2508 5.09344 46.0178 5.07733C37.5052 4.9661 29.3063 4.94927 20.857 5.20057C18.7649 5.2625 15.851 6.18144 13.9975 7.142C11.7402 8.31184 9.83282 9.61605 8.12082 11.4685C6.82584 12.8698 5.88668 14.8511 5.38027 16.6977C4.97316 18.1823 4.89379 19.9133 5.13804 21.4621C5.38861 23.0508 5.98596 24.2158 6.78399 25.5761C7.50848 26.8111 8.5984 28.1092 9.8671 28.7547C12.557 30.1234 15.6439 31.0199 18.4174 32.3172C21.9697 33.9786 22.8875 35.9763 22.8443 39.8223C22.8181 42.1548 23.3549 44.6328 27.7614 44.7439C49.8237 45.3001 71.6723 44.7696 93.7489 44.819C106.234 44.847 116.619 44.9033 128.861 44.8942C132.137 44.8917 134.579 42.7881 135.757 41.3869C136.825 40.1154 137.616 37.9912 137.698 36.2598C137.818 33.7197 137.913 31.2857 138 28.9231Z" stroke="#0EDD9E" stroke-width="0.914826" stroke-miterlimit="10"/>
</g>
<defs>
<filter id="filter0_f_1_399" x="0.841924" y="0.841909" width="141.316" height="48.3162" filterUnits="userSpaceOnUse" color-interpolation-filters="sRGB">
<feFlood flood-opacity="0" result="BackgroundImageFix"/>
<feBlend mode="normal" in="SourceGraphic" in2="BackgroundImageFix" result="shape"/>
<feGaussianBlur stdDeviation="1.85034" result="effect1_foregroundBlur_1_399"/>
</filter>
</defs>
</svg>
