<svg width="156" height="82" viewBox="0 0 156 82" fill="none" xmlns="http://www.w3.org/2000/svg">
<path d="M123.555 57.1258L86.9692 58.8868L67.9498 59.5763L64.7892 56.697C64.38 56.3476 63.7874 56.0754 63.0904 55.9169C62.3935 55.7584 61.6255 55.7211 60.8891 55.8099C60.8891 55.8099 49.0837 56.8677 39.5647 56.7062C39.5647 56.7062 30.7349 56.079 23.1914 54.96C23.1914 54.96 19.3926 55.1643 21.9568 53.1074L24.6581 50.6062C24.6581 50.6062 26.0256 49.5457 21.7206 48.2313L14.4268 44.9999C14.4268 44.9999 12.7751 44.4723 13.464 42.2706L14.7013 36.5846C14.7013 36.5846 15.5616 34.6154 16.724 33.2949C16.724 33.2949 18.7801 31.6828 18.2495 29.9585C18.2495 29.9585 17.2231 28.2433 20.2753 28.0144C20.2753 28.0144 25.112 28.376 27.1067 26.7644C27.1067 26.7644 32.8869 23.766 34.8142 23.3993C34.8142 23.3993 36.5099 22.6526 40.7073 23.5871C40.7073 23.5871 47.1364 25.0093 55.4454 27.7313L59.8594 29.2611C59.8594 29.2611 60.6347 29.2588 59.6971 30.5076C59.6971 30.5076 58.0055 32.3262 59.4461 33.2724C59.4461 33.2724 65.8502 38.7504 70.6446 40.4023C70.6446 40.4023 76.9006 43.449 83.3346 43.299L97.7233 42.1015C97.7233 42.1015 100.446 41.771 102.51 40.1661C102.51 40.1661 104.526 37.8712 108.824 37.6168L126.355 36.2028C126.355 36.2028 129.535 36.5934 131.574 37.1835L148.185 41.1862C148.185 41.1862 150.902 41.6876 149.606 43.3827L145.245 50.4674C145.245 50.4674 144.24 52.4403 139.821 51.8649L128.412 50.832C127.092 50.9791 125.806 50.6303 126.374 52.3904C126.364 52.3897 129.418 57.218 123.555 57.1258Z" stroke="#0EDD9E" stroke-width="1.19864" stroke-miterlimit="10"/>
<g filter="url(#filter0_f_1_48)">
<path d="M123.555 57.1258L86.9692 58.8868L67.9498 59.5763L64.7892 56.697C64.38 56.3476 63.7874 56.0754 63.0904 55.9169C62.3935 55.7584 61.6255 55.7211 60.8891 55.8099C60.8891 55.8099 49.0837 56.8677 39.5647 56.7062C39.5647 56.7062 30.7349 56.079 23.1914 54.96C23.1914 54.96 19.3926 55.1643 21.9568 53.1074L24.6581 50.6062C24.6581 50.6062 26.0256 49.5457 21.7206 48.2313L14.4268 44.9999C14.4268 44.9999 12.7751 44.4723 13.464 42.2706L14.7013 36.5846C14.7013 36.5846 15.5616 34.6154 16.724 33.2949C16.724 33.2949 18.7801 31.6828 18.2495 29.9585C18.2495 29.9585 17.2231 28.2433 20.2753 28.0144C20.2753 28.0144 25.112 28.376 27.1067 26.7644C27.1067 26.7644 32.8869 23.766 34.8142 23.3993C34.8142 23.3993 36.5099 22.6526 40.7073 23.5871C40.7073 23.5871 47.1364 25.0093 55.4454 27.7313L59.8594 29.2611C59.8594 29.2611 60.6347 29.2588 59.6971 30.5076C59.6971 30.5076 58.0055 32.3262 59.4461 33.2724C59.4461 33.2724 65.8502 38.7504 70.6446 40.4023C70.6446 40.4023 76.9006 43.449 83.3346 43.299L97.7233 42.1015C97.7233 42.1015 100.446 41.771 102.51 40.1661C102.51 40.1661 104.526 37.8712 108.824 37.6168L126.355 36.2028C126.355 36.2028 129.535 36.5934 131.574 37.1835L148.185 41.1862C148.185 41.1862 150.902 41.6876 149.606 43.3827L145.245 50.4674C145.245 50.4674 144.24 52.4403 139.821 51.8649L128.412 50.832C127.092 50.9791 125.806 50.6303 126.374 52.3904C126.364 52.3897 129.418 57.218 123.555 57.1258Z" stroke="#0EDD9E" stroke-width="1.19864" stroke-miterlimit="10"/>
</g>
<defs>
<filter id="filter0_f_1_48" x="7.7305" y="17.8157" width="147.792" height="47.0778" filterUnits="userSpaceOnUse" color-interpolation-filters="sRGB">
<feFlood flood-opacity="0" result="BackgroundImageFix"/>
<feBlend mode="normal" in="SourceGraphic" in2="BackgroundImageFix" result="shape"/>
<feGaussianBlur stdDeviation="2.42438" result="effect1_foregroundBlur_1_48"/>
</filter>
</defs>
</svg>
