<svg width="176" height="157" viewBox="0 0 176 157" fill="none" xmlns="http://www.w3.org/2000/svg">
<path d="M132.571 62.9055L128.379 64.345L115.206 68.9457L110.309 70.7035L100.736 74.3755L90.6541 78.0918L90.4084 78.1823C90.281 78.2279 90.1607 78.2751 90.0364 78.3196C87.4239 79.2561 84.7312 79.9776 82.1708 81.0555C81.7088 81.2585 81.2574 81.4839 80.8188 81.7304C80.7533 81.7672 80.6872 81.8084 80.6214 81.8469C80.5557 81.8853 80.3952 81.9793 80.3952 81.9793L77.9154 83.4282L74.4145 85.6839L69.1825 89.0643L66.5196 90.7995L66.1089 91.0661C66.0127 91.1287 65.9111 91.1859 65.8208 91.2538C65.6258 91.3916 65.4434 91.5435 65.2759 91.7075C65.0897 91.9043 64.9235 92.1143 64.7794 92.3344C64.6313 92.5467 64.5042 92.7683 64.4 92.9963C64.3579 93.1099 64.3227 93.2247 64.2945 93.3401C64.2725 93.4116 64.2275 93.5567 64.2275 93.5567L63.7606 95.0506L63.1418 97.035C63.1418 97.035 63.0973 97.1758 63.0754 97.2467L62.9714 97.5792C62.9226 97.7346 62.8798 97.891 62.8257 98.0454C62.7474 98.2696 62.7052 98.5053 62.5683 98.7129C62.4421 98.908 62.2508 99.0709 62.0695 99.2315C61.726 99.5373 61.3281 99.7941 60.9587 100.075L60.7755 100.213L60.5801 100.361L54.1845 105.196L53.9466 105.376C53.8631 105.439 53.7791 105.502 53.6961 105.565C52.9467 106.143 52.129 106.661 51.4668 107.316C51.158 107.621 50.9218 107.976 50.6686 108.316C50.6199 108.382 50.5772 108.449 50.5314 108.516L50.4055 108.699L46.0121 115.093L45.7558 115.465C45.6907 115.56 45.6334 115.659 45.5597 115.75C45.4827 115.851 45.3934 115.944 45.2938 116.029C45.2107 116.095 45.118 116.151 45.019 116.194C44.8968 116.248 44.7676 116.283 44.6371 116.3C44.5201 116.311 44.4044 116.305 44.2942 116.283C44.1163 116.247 43.9456 116.195 43.7848 116.126C43.6946 116.091 43.6134 116.043 43.5271 116.001L43.2026 115.843L40.3648 114.465L35.1224 111.863L28.8363 108.887L28.5588 108.756C28.4935 108.725 28.4269 108.695 28.3618 108.663C28.2509 108.61 28.105 108.583 28.0351 108.489C27.9835 108.419 27.9923 108.318 27.9874 108.23C27.9812 108.029 27.994 107.826 28.0257 107.622C28.0725 107.262 28.186 106.903 28.2392 106.541C28.2854 106.227 28.3043 105.914 28.3292 105.6C28.335 105.523 28.3384 105.446 28.3435 105.369L28.3607 105.087L28.5649 101.782L28.7736 98.9377C28.7736 98.9377 28.7903 98.7114 28.7983 98.5985C28.8117 98.4155 28.821 98.2324 28.8387 98.0493C28.8888 97.5285 28.8865 97.004 29.0255 96.4861C29.1535 96.0103 29.4054 95.5538 29.6137 95.0923C29.6503 95.0115 29.6913 94.9296 29.7295 94.851L29.8485 94.6036L32.3337 89.4402L33.1315 87.8127L33.229 87.6136C33.2587 87.544 33.2924 87.4754 33.3299 87.408C33.555 87.0618 33.8429 86.7456 34.1803 86.474C34.4504 86.2656 34.7623 86.0998 35.0651 85.9298C35.1215 85.8979 35.1803 85.8709 35.2375 85.8417L35.3924 85.7623L37.3484 84.7637L45.9455 80.8408L48.7988 79.6686L51.0459 78.9076L54.0439 78.062L54.17 78.0267C54.206 78.0166 54.2415 78.0049 54.2778 77.9964C54.404 77.9605 54.5327 77.9368 54.6612 77.9259C54.7498 77.9192 54.8367 77.9286 54.9165 77.9534C55.0049 77.9842 55.0794 78.0363 55.1325 78.1044C55.224 78.2281 55.219 78.3976 55.2657 78.5428L55.2885 78.6106C55.295 78.6305 55.3088 78.6692 55.3088 78.6692L55.9326 80.4974L55.9655 80.5947C55.9778 80.6313 55.9882 80.6684 56.0032 80.7023C56.0342 80.8058 56.0816 80.9034 56.1441 80.9922C56.1977 81.0486 56.2638 81.0945 56.3391 81.1277C56.4375 81.1728 56.5433 81.2061 56.6543 81.2269C56.789 81.2529 56.9274 81.2684 57.0681 81.2733C57.2298 81.2818 57.3943 81.2736 57.5578 81.2681C57.8798 81.2582 58.2043 81.2207 58.5255 81.2173C58.6072 81.2133 58.6882 81.2159 58.7675 81.225C58.8277 81.2351 58.8855 81.2515 58.9397 81.2739C59.0759 81.3291 59.1933 81.4121 59.3212 81.4798C59.5286 81.5855 59.719 81.7238 59.9478 81.8002C60.0332 81.8272 60.1239 81.8433 60.2174 81.8481C60.3791 81.8537 60.543 81.8451 60.7068 81.8224C60.8146 81.8104 60.9231 81.7661 61.0303 81.7682C61.0695 81.7689 61.1075 81.7754 61.1426 81.7875C61.18 81.7985 61.2135 81.8165 61.2408 81.8404C61.2682 81.8695 61.2885 81.9035 61.3007 81.9407C61.3348 82.0433 61.3607 82.1487 61.3782 82.2561C61.382 82.2734 61.3852 82.2906 61.3888 82.31L61.3995 82.3585L62.1949 85.9512L63.2836 90.4938L63.3018 90.5687C63.3086 90.5961 63.3119 90.6225 63.3214 90.6516C63.3606 90.756 63.4134 90.8548 63.4788 90.9462C63.5324 91.0289 63.603 91.1012 63.6873 91.1598C63.719 91.1786 63.7557 91.1908 63.7951 91.1954C63.8418 91.2022 63.891 91.2 63.9393 91.189C63.9903 91.1729 64.0392 91.1506 64.0846 91.1227C64.1349 91.0957 64.1816 91.0634 64.2293 91.0332C64.2657 91.0101 64.3015 90.9871 64.3367 90.9635C64.372 90.9399 64.4504 90.8841 64.4504 90.8841L68.0577 88.5943L74.6077 84.3796L78.3095 82.1018L82.0227 79.7079L82.1003 79.658C82.1214 79.6448 82.1425 79.6321 82.1626 79.6179C82.2146 79.589 82.2607 79.5518 82.2983 79.5085C82.3247 79.4592 82.3374 79.4064 82.3353 79.3549C82.3392 79.3058 82.334 79.2576 82.3199 79.212C82.3089 79.1879 82.2954 79.1649 82.2796 79.1434L82.2347 79.0678L82.0745 78.7953L81.5881 77.9289L81.5551 77.8699C81.5404 77.8431 81.5244 77.8163 81.5102 77.79C81.4284 77.6338 81.3192 77.4876 81.2791 77.3154C81.2592 77.2219 81.2581 77.1241 81.276 77.0261C81.2981 76.8804 81.347 76.7358 81.4209 76.5983C81.4706 76.5105 81.5363 76.429 81.615 76.3577C81.7437 76.2517 81.8844 76.158 82.034 76.0785C82.0814 76.0505 82.133 76.0273 82.1824 76.0019L82.3924 75.8918L90.1059 71.9006L93.2748 70.6797L98.1275 68.8204L98.3404 68.7388C98.3794 68.726 98.4178 68.7114 98.4554 68.6949C98.5041 68.6735 98.549 68.6448 98.5879 68.6104C98.6291 68.5688 98.6592 68.5201 98.6756 68.4686C98.6899 68.4087 98.6907 68.3483 98.6781 68.291C98.659 68.2101 98.6333 68.1313 98.6012 68.055C98.587 68.0103 98.5727 67.9657 98.5579 67.921L98.5279 67.8291L98.0627 66.3931L96.4987 62.1464L95.6502 59.1122L95.6041 58.9476C95.5855 58.9013 95.5714 58.8532 95.562 58.8039C95.5565 58.7276 95.5666 58.6493 95.5921 58.5726C95.6307 58.442 95.7027 58.3174 95.8022 58.2088C95.8969 58.1155 96.032 58.0628 96.1546 58.0027C96.2195 57.9713 96.287 57.9473 96.3528 57.9223L96.5228 57.8531L97.907 57.2901L108.221 53.1915L112.099 51.6468L124.932 46.8123L134.859 43.4258L141.242 41.2281L141.394 41.1757C141.425 41.1651 141.457 41.1535 141.486 41.144C141.617 41.0984 141.751 41.062 141.886 41.035C141.969 41.0205 142.053 41.0162 142.135 41.0221C142.209 41.0262 142.279 41.0438 142.341 41.0739C142.394 41.1048 142.438 41.1461 142.469 41.1951C142.517 41.2803 142.555 41.3702 142.584 41.4637L142.612 41.5346L142.647 41.619L145.111 47.684L147.365 54.3519L147.433 54.5503C147.446 54.5907 147.461 54.6315 147.474 54.6719C147.596 55.0564 147.766 55.4291 147.821 55.8328C147.846 56.0148 147.843 56.2022 147.809 56.3898C147.789 56.5207 147.745 56.6505 147.679 56.7744C147.636 56.854 147.578 56.9278 147.507 56.9921C147.409 57.0703 147.301 57.1383 147.187 57.1946C146.978 57.3113 146.762 57.4177 146.542 57.5134C146.495 57.5338 146.447 57.55 146.399 57.5688L146.246 57.6277L132.567 62.9099" stroke="#0EDD9E" stroke-width="1.08539"/>
<g filter="url(#filter0_f_1_51)">
<path d="M132.571 62.9055L128.379 64.345L115.206 68.9457L110.309 70.7035L100.736 74.3755L90.6541 78.0918L90.4084 78.1823C90.281 78.2279 90.1607 78.2751 90.0364 78.3196C87.4239 79.2561 84.7312 79.9776 82.1708 81.0555C81.7088 81.2585 81.2574 81.4839 80.8188 81.7304C80.7533 81.7672 80.6872 81.8084 80.6214 81.8469C80.5557 81.8853 80.3952 81.9793 80.3952 81.9793L77.9154 83.4282L74.4145 85.6839L69.1825 89.0643L66.5196 90.7995L66.1089 91.0661C66.0127 91.1287 65.9111 91.1859 65.8208 91.2538C65.6258 91.3916 65.4434 91.5435 65.2759 91.7075C65.0897 91.9043 64.9235 92.1143 64.7794 92.3344C64.6313 92.5467 64.5042 92.7683 64.4 92.9963C64.3579 93.1099 64.3227 93.2247 64.2945 93.3401C64.2725 93.4116 64.2275 93.5567 64.2275 93.5567L63.7606 95.0506L63.1418 97.035C63.1418 97.035 63.0973 97.1758 63.0754 97.2467L62.9714 97.5792C62.9226 97.7346 62.8798 97.891 62.8257 98.0454C62.7474 98.2696 62.7052 98.5053 62.5683 98.7129C62.4421 98.908 62.2508 99.0709 62.0695 99.2315C61.726 99.5373 61.3281 99.7941 60.9587 100.075L60.7755 100.213L60.5801 100.361L54.1845 105.196L53.9466 105.376C53.8631 105.439 53.7791 105.502 53.6961 105.565C52.9467 106.143 52.129 106.661 51.4668 107.316C51.158 107.621 50.9218 107.976 50.6686 108.316C50.6199 108.382 50.5772 108.449 50.5314 108.516L50.4055 108.699L46.0121 115.093L45.7558 115.465C45.6907 115.56 45.6334 115.659 45.5597 115.75C45.4827 115.851 45.3934 115.944 45.2938 116.029C45.2107 116.095 45.118 116.151 45.019 116.194C44.8968 116.248 44.7676 116.283 44.6371 116.3C44.5201 116.311 44.4044 116.305 44.2942 116.283C44.1163 116.247 43.9456 116.195 43.7848 116.126C43.6946 116.091 43.6134 116.043 43.5271 116.001L43.2026 115.843L40.3648 114.465L35.1224 111.863L28.8363 108.887L28.5588 108.756C28.4935 108.725 28.4269 108.695 28.3618 108.663C28.2509 108.61 28.105 108.583 28.0351 108.489C27.9835 108.419 27.9923 108.318 27.9874 108.23C27.9812 108.029 27.994 107.826 28.0257 107.622C28.0725 107.262 28.186 106.903 28.2392 106.541C28.2854 106.227 28.3043 105.914 28.3292 105.6C28.335 105.523 28.3384 105.446 28.3435 105.369L28.3607 105.087L28.5649 101.782L28.7736 98.9377C28.7736 98.9377 28.7903 98.7114 28.7983 98.5985C28.8117 98.4155 28.821 98.2324 28.8387 98.0493C28.8888 97.5285 28.8865 97.004 29.0255 96.4861C29.1535 96.0103 29.4054 95.5538 29.6137 95.0923C29.6503 95.0115 29.6913 94.9296 29.7295 94.851L29.8485 94.6036L32.3337 89.4402L33.1315 87.8127L33.229 87.6136C33.2587 87.544 33.2924 87.4754 33.3299 87.408C33.555 87.0618 33.8429 86.7456 34.1803 86.474C34.4504 86.2656 34.7623 86.0998 35.0651 85.9298C35.1215 85.8979 35.1803 85.8709 35.2375 85.8417L35.3924 85.7623L37.3484 84.7637L45.9455 80.8408L48.7988 79.6686L51.0459 78.9076L54.0439 78.062L54.17 78.0267C54.206 78.0166 54.2415 78.0049 54.2778 77.9964C54.404 77.9605 54.5327 77.9368 54.6612 77.9259C54.7498 77.9192 54.8367 77.9286 54.9165 77.9534C55.0049 77.9842 55.0794 78.0363 55.1325 78.1044C55.224 78.2281 55.219 78.3976 55.2657 78.5428L55.2885 78.6106C55.295 78.6305 55.3088 78.6692 55.3088 78.6692L55.9326 80.4974L55.9655 80.5947C55.9778 80.6313 55.9882 80.6684 56.0032 80.7023C56.0342 80.8058 56.0816 80.9034 56.1441 80.9922C56.1977 81.0486 56.2638 81.0945 56.3391 81.1277C56.4375 81.1728 56.5433 81.2061 56.6543 81.2269C56.789 81.2529 56.9274 81.2684 57.0681 81.2733C57.2298 81.2818 57.3943 81.2736 57.5578 81.2681C57.8798 81.2582 58.2043 81.2207 58.5255 81.2173C58.6072 81.2133 58.6882 81.2159 58.7675 81.225C58.8277 81.2351 58.8855 81.2515 58.9397 81.2739C59.0759 81.3291 59.1933 81.4121 59.3212 81.4798C59.5286 81.5855 59.719 81.7238 59.9478 81.8002C60.0332 81.8272 60.1239 81.8433 60.2174 81.8481C60.3791 81.8537 60.543 81.8451 60.7068 81.8224C60.8146 81.8104 60.9231 81.7661 61.0303 81.7682C61.0695 81.7689 61.1075 81.7754 61.1426 81.7875C61.18 81.7985 61.2135 81.8165 61.2408 81.8404C61.2682 81.8695 61.2885 81.9035 61.3007 81.9407C61.3348 82.0433 61.3607 82.1487 61.3782 82.2561C61.382 82.2734 61.3852 82.2906 61.3888 82.31L61.3995 82.3585L62.1949 85.9512L63.2836 90.4938L63.3018 90.5687C63.3086 90.5961 63.3119 90.6225 63.3214 90.6516C63.3606 90.756 63.4134 90.8548 63.4788 90.9462C63.5324 91.0289 63.603 91.1012 63.6873 91.1598C63.719 91.1786 63.7557 91.1908 63.7951 91.1954C63.8418 91.2022 63.891 91.2 63.9393 91.189C63.9903 91.1729 64.0392 91.1506 64.0846 91.1227C64.1349 91.0957 64.1816 91.0634 64.2293 91.0332C64.2657 91.0101 64.3015 90.9871 64.3367 90.9635C64.372 90.9399 64.4504 90.8841 64.4504 90.8841L68.0577 88.5943L74.6077 84.3796L78.3095 82.1018L82.0227 79.7079L82.1003 79.658C82.1214 79.6448 82.1425 79.6321 82.1626 79.6179C82.2146 79.589 82.2607 79.5518 82.2983 79.5085C82.3247 79.4592 82.3374 79.4064 82.3353 79.3549C82.3392 79.3058 82.334 79.2576 82.3199 79.212C82.3089 79.1879 82.2954 79.1649 82.2796 79.1434L82.2347 79.0678L82.0745 78.7953L81.5881 77.9289L81.5551 77.8699C81.5404 77.8431 81.5244 77.8163 81.5102 77.79C81.4284 77.6338 81.3192 77.4876 81.2791 77.3154C81.2592 77.2219 81.2581 77.1241 81.276 77.0261C81.2981 76.8804 81.347 76.7358 81.4209 76.5983C81.4706 76.5105 81.5363 76.429 81.615 76.3577C81.7437 76.2517 81.8844 76.158 82.034 76.0785C82.0814 76.0505 82.133 76.0273 82.1824 76.0019L82.3924 75.8918L90.1059 71.9006L93.2748 70.6797L98.1275 68.8204L98.3404 68.7388C98.3794 68.726 98.4178 68.7114 98.4554 68.6949C98.5041 68.6735 98.549 68.6448 98.5879 68.6104C98.6291 68.5688 98.6592 68.5201 98.6756 68.4686C98.6899 68.4087 98.6907 68.3483 98.6781 68.291C98.659 68.2101 98.6333 68.1313 98.6012 68.055C98.587 68.0103 98.5727 67.9657 98.5579 67.921L98.5279 67.8291L98.0627 66.3931L96.4987 62.1464L95.6502 59.1122L95.6041 58.9476C95.5855 58.9013 95.5714 58.8532 95.562 58.8039C95.5565 58.7276 95.5666 58.6493 95.5921 58.5726C95.6307 58.442 95.7027 58.3174 95.8022 58.2088C95.8969 58.1155 96.032 58.0628 96.1546 58.0027C96.2195 57.9713 96.287 57.9473 96.3528 57.9223L96.5228 57.8531L97.907 57.2901L108.221 53.1915L112.099 51.6468L124.932 46.8123L134.859 43.4258L141.242 41.2281L141.394 41.1757C141.425 41.1651 141.457 41.1535 141.486 41.144C141.617 41.0984 141.751 41.062 141.886 41.035C141.969 41.0205 142.053 41.0162 142.135 41.0221C142.209 41.0262 142.279 41.0438 142.341 41.0739C142.394 41.1048 142.438 41.1461 142.469 41.1951C142.517 41.2803 142.555 41.3702 142.584 41.4637L142.612 41.5346L142.647 41.619L145.111 47.684L147.365 54.3519L147.433 54.5503C147.446 54.5907 147.461 54.6315 147.474 54.6719C147.596 55.0564 147.766 55.4291 147.821 55.8328C147.846 56.0148 147.843 56.2022 147.809 56.3898C147.789 56.5207 147.745 56.6505 147.679 56.7744C147.636 56.854 147.578 56.9278 147.507 56.9921C147.409 57.0703 147.301 57.1383 147.187 57.1946C146.978 57.3113 146.762 57.4177 146.542 57.5134C146.495 57.5338 146.447 57.55 146.399 57.5688L146.246 57.6277L132.567 62.9099" stroke="#0EDD9E" stroke-width="1.08435" stroke-miterlimit="10"/>
</g>
<defs>
<filter id="filter0_f_1_51" x="23.0528" y="36.0954" width="129.718" height="85.1339" filterUnits="userSpaceOnUse" color-interpolation-filters="sRGB">
<feFlood flood-opacity="0" result="BackgroundImageFix"/>
<feBlend mode="normal" in="SourceGraphic" in2="BackgroundImageFix" result="shape"/>
<feGaussianBlur stdDeviation="2.19322" result="effect1_foregroundBlur_1_51"/>
</filter>
</defs>
</svg>
