<svg width="150" height="86" viewBox="0 0 150 86" fill="none" xmlns="http://www.w3.org/2000/svg">
<path d="M68.3898 57.789C70.3494 56.3132 70.2707 53.3823 72.0294 51.6204C73.4913 50.1564 75.6222 48.2228 77.5919 47.4929C79.1469 46.5681 80.7307 45.68 82.4099 45.0037C85.4705 43.7715 88.7676 43.2691 91.9677 42.4777C92.2554 42.4104 92.5222 42.2732 92.7444 42.0785C92.9665 41.8837 93.1372 41.6372 93.2413 41.361C93.7152 40.0176 91.8872 40.0637 92.0822 39.02C92.1271 38.8053 92.2462 38.6132 92.4187 38.4773C99.2627 32.8561 106.141 27.268 113.112 21.8248C119.269 17.0219 125.464 12.1709 132.052 7.95258C132.972 7.3631 137.401 3.97541 138.641 5.05109C141.513 7.54076 137.125 21.0983 132.443 25.6255C127.761 30.1528 121.314 38.3807 107.422 36.5889C107.422 36.5889 102.34 35.0024 99.0739 37.1707C97.4082 38.277 95.7093 41.0744 94.7459 42.8496C94.4779 43.341 94.1044 43.7672 93.6523 44.0978C93.2001 44.4283 92.6804 44.6549 92.1304 44.7614L91.0478 44.9747C90.0459 45.1767 89.0323 45.3475 88.0334 45.567C87.466 45.6926 86.9101 45.8444 86.3559 46.0193C83.9702 46.734 81.2854 47.6256 79.4144 49.336C77.0529 51.4938 74.3233 55.6971 70.1087 59.2152C69.6597 59.5886 69.1429 59.872 68.5865 60.0499L62.8021 61.9174C61.9651 62.1886 61.1807 62.6011 60.4831 63.1371C59.1046 64.1996 56.7511 66.0583 55.6056 67.2325C53.9257 68.955 50.7367 71.4059 48.2992 71.9994C45.4737 72.6943 42.4954 72.3085 40.5162 69.9786C40.3607 69.7572 40.1576 69.5734 39.9218 69.4406C39.6886 69.3594 39.4397 69.3329 39.1944 69.3632L32.6258 69.6815C30.6997 69.7741 28.7736 69.8666 26.8508 70.0274C25.7371 70.1201 24.6112 70.2395 23.5657 70.6353C18.6816 72.4839 17.5033 79.2264 11.7806 79.2466C11.7806 79.2466 10.822 79.2497 9.35497 78.1144C6.73825 76.0867 10.0649 73.3072 11.8319 72.4833C21.0542 68.2098 30.6851 64.2791 40.8297 63.6665C41.4517 63.6289 42.1025 63.6095 42.6664 63.8728C43.2791 64.1534 43.7005 64.7369 44.1896 65.2056C46.152 67.0831 49.3724 67.1473 51.8084 65.9367C54.2445 64.726 56.0171 62.4986 57.4009 60.1598C57.697 59.6591 57.9953 59.1323 58.4733 58.7978C59.0483 58.3952 59.7893 58.3355 60.4901 58.2908C63.1228 58.1192 66.3064 59.4021 68.387 57.7816" stroke="#0EDD9E" stroke-width="0.914826" stroke-miterlimit="10"/>
<g filter="url(#filter0_f_1_54)">
<path d="M68.3898 57.789C70.3494 56.3132 70.2707 53.3823 72.0294 51.6204C73.4913 50.1564 75.6222 48.2228 77.5919 47.4929C79.1469 46.5681 80.7307 45.68 82.4099 45.0037C85.4705 43.7715 88.7676 43.2691 91.9677 42.4777C92.2554 42.4104 92.5222 42.2732 92.7444 42.0785C92.9665 41.8837 93.1372 41.6372 93.2413 41.361C93.7152 40.0176 91.8872 40.0637 92.0822 39.02C92.1271 38.8053 92.2462 38.6132 92.4187 38.4773C99.2627 32.8561 106.141 27.268 113.112 21.8248C119.269 17.0219 125.464 12.1709 132.052 7.95258C132.972 7.3631 137.401 3.97541 138.641 5.05109C141.513 7.54076 137.125 21.0983 132.443 25.6255C127.761 30.1528 121.314 38.3807 107.422 36.5889C107.422 36.5889 102.34 35.0024 99.0739 37.1707C97.4082 38.277 95.7093 41.0744 94.7459 42.8496C94.4779 43.341 94.1044 43.7672 93.6523 44.0978C93.2001 44.4283 92.6804 44.6549 92.1304 44.7614L91.0478 44.9747C90.0459 45.1767 89.0323 45.3475 88.0334 45.567C87.466 45.6926 86.9101 45.8444 86.3559 46.0193C83.9702 46.734 81.2854 47.6256 79.4144 49.336C77.0529 51.4938 74.3233 55.6971 70.1087 59.2152C69.6597 59.5886 69.1429 59.872 68.5865 60.0499L62.8021 61.9174C61.9651 62.1886 61.1807 62.6011 60.4831 63.1371C59.1046 64.1996 56.7511 66.0583 55.6056 67.2325C53.9257 68.955 50.7367 71.4059 48.2992 71.9994C45.4737 72.6943 42.4954 72.3085 40.5162 69.9786C40.3607 69.7572 40.1576 69.5734 39.9218 69.4406C39.6886 69.3594 39.4397 69.3329 39.1944 69.3632L32.6258 69.6815C30.6997 69.7741 28.7736 69.8666 26.8508 70.0274C25.7371 70.1201 24.6112 70.2395 23.5657 70.6353C18.6816 72.4839 17.5033 79.2264 11.7806 79.2466C11.7806 79.2466 10.822 79.2497 9.35497 78.1144C6.73825 76.0867 10.0649 73.3072 11.8319 72.4833C21.0542 68.2098 30.6851 64.2791 40.8297 63.6665C41.4517 63.6289 42.1025 63.6095 42.6664 63.8728C43.2791 64.1534 43.7005 64.7369 44.1896 65.2056C46.152 67.0831 49.3724 67.1473 51.8084 65.9367C54.2445 64.726 56.0171 62.4986 57.4009 60.1598C57.697 59.6591 57.9953 59.1323 58.4733 58.7978C59.0483 58.3952 59.7893 58.3355 60.4901 58.2908C63.1228 58.1192 66.3064 59.4021 68.387 57.7816" stroke="#0EDD9E" stroke-width="0.914826" stroke-miterlimit="10"/>
</g>
<defs>
<filter id="filter0_f_1_54" x="4.22906" y="0.683538" width="139.486" height="82.7211" filterUnits="userSpaceOnUse" color-interpolation-filters="sRGB">
<feFlood flood-opacity="0" result="BackgroundImageFix"/>
<feBlend mode="normal" in="SourceGraphic" in2="BackgroundImageFix" result="shape"/>
<feGaussianBlur stdDeviation="1.85034" result="effect1_foregroundBlur_1_54"/>
</filter>
</defs>
</svg>
